SplineFontDB: 3.2
FontName: Gontserrat-Medium
FullName: Gontserrat Medium
FamilyName: Gontserrat
Weight: Medium
Copyright: Gontserrat is a derivative work of Montserrat under the Open Font License, version 1.1. Copyright 2020 Gabriel Classon (gabeclasson.com). Montserrat copyright 2011 The Montserrat Project Authors (https://github.com/JulietaUla/Montserrat). 
Version: 7.222
ItalicAngle: 0
UnderlinePosition: -100
UnderlineWidth: 50
Ascent: 800
Descent: 200
InvalidEm: 0
sfntRevision: 0x00010000
LayerCount: 2
Layer: 0 1 "Back" 1
Layer: 1 1 "Fore" 0
XUID: [1021 930 -1503615855 14248]
StyleMap: 0x0040
FSType: 0
OS2Version: 4
OS2_WeightWidthSlopeOnly: 0
OS2_UseTypoMetrics: 1
CreationTime: 1485852831
ModificationTime: 1642923139
PfmFamily: 81
TTFWeight: 500
TTFWidth: 5
LineGap: 0
VLineGap: 0
Panose: 0 0 6 0 0 0 0 0 0 0
OS2TypoAscent: 968
OS2TypoAOffset: 0
OS2TypoDescent: -251
OS2TypoDOffset: 0
OS2TypoLinegap: 0
OS2WinAscent: 1177
OS2WinAOffset: 0
OS2WinDescent: 496
OS2WinDOffset: 0
HheadAscent: 968
HheadAOffset: 0
HheadDescent: -251
HheadDOffset: 0
OS2SubXSize: 650
OS2SubYSize: 600
OS2SubXOff: 0
OS2SubYOff: 75
OS2SupXSize: 650
OS2SupYSize: 600
OS2SupXOff: 0
OS2SupYOff: 350
OS2StrikeYSize: 50
OS2StrikeYPos: 321
OS2CapHeight: 700
OS2XHeight: 535
OS2Vendor: 'ULA '
OS2CodePages: 20000193.00000000
OS2UnicodeRanges: 20000007.00000001.00000000.00000000
Lookup: 1 0 0 "'rtla' Right to Left Alternates in Latin lookup 0" { "'rtla' Right to Left Alternates in Latin lookup 0 subtable"  } ['rtla' ('DFLT' <'dflt' > 'latn' <'dflt' > ) ]
Lookup: 1 0 0 "<10,2> Inferiors lookup 1" { "<10,2> Inferiors lookup 1 subtable" ("inferior") } [<10,2> ('DFLT' <'dflt' > ) 'subs' ('DFLT' <'dflt' > ) ]
Lookup: 1 0 0 "<10,1> Superiors lookup 2" { "<10,1> Superiors lookup 2 subtable" ("superior") } [<10,1> ('DFLT' <'dflt' > ) 'sups' ('DFLT' <'dflt' > ) ]

StartChar: .notdef
Encoding: 65536 -1 0
Width: 587
Flags: W
LayerCount: 2
Fore
SplineSet
40 0 m 1,0,-1
 40 700 l 1,1,-1
 547 700 l 1,2,-1
 547 0 l 1,3,-1
 40 0 l 1,0,-1
120 70 m 1,4,-1
 467 70 l 1,5,-1
 467 630 l 1,6,-1
 120 630 l 1,7,-1
 120 70 l 1,4,-1
EndSplineSet
EndChar

StartChar: exclam
Encoding: 33 33 5
Width: 222
Flags: W
LayerCount: 2
Fore
SplineSet
61 693 m 1,0,-1
 186 693 l 1,1,-1
 186 519 l 1,2,-1
 164 228 l 1,3,-1
 83 228 l 1,4,-1
 61 519 l 1,5,-1
 61 693 l 1,0,-1
172.5 115 m 128,-1,7
 192 95 192 95 192 64 c 0,8,9
 192 32 192 32 172.5 11.5 c 128,-1,10
 153 -9 153 -9 123 -9 c 0,11,12
 94 -9 94 -9 74.5 12 c 128,-1,13
 55 33 55 33 55 64 c 256,14,15
 55 95 55 95 74.5 115 c 128,-1,16
 94 135 94 135 123 135 c 0,17,6
 153 135 153 135 172.5 115 c 128,-1,7
EndSplineSet
Substitution2: "<3,3> Small Caps in Latin lookup 11 subtable" exclam.sc
EndChar

StartChar: numbersign
Encoding: 35 35 7
Width: 728
Flags: W
LayerCount: 2
Fore
SplineSet
693 429 m 1,0,-1
 553 429 l 1,1,-1
 533 265 l 1,2,-1
 670 265 l 1,3,-1
 660 167 l 1,4,-1
 521 167 l 1,5,-1
 500 0 l 1,6,-1
 404 0 l 1,7,-1
 425 167 l 1,8,-1
 258 167 l 1,9,-1
 237 0 l 1,10,-1
 141 0 l 1,11,-1
 162 167 l 1,12,-1
 24 167 l 1,13,-1
 34 265 l 1,14,-1
 174 265 l 1,15,-1
 194 429 l 1,16,-1
 57 429 l 1,17,-1
 66 526 l 1,18,-1
 206 526 l 1,19,-1
 228 700 l 1,20,-1
 323 700 l 1,21,-1
 302 526 l 1,22,-1
 469 526 l 1,23,-1
 491 700 l 1,24,-1
 586 700 l 1,25,-1
 565 526 l 1,26,-1
 703 526 l 1,27,-1
 693 429 l 1,0,-1
437 265 m 1,28,-1
 457 429 l 1,29,-1
 290 429 l 1,30,-1
 270 265 l 1,31,-1
 437 265 l 1,28,-1
EndSplineSet
EndChar

StartChar: dollar
Encoding: 36 36 8
Width: 628
Flags: W
LayerCount: 2
Fore
SplineSet
231.5 472.5 m 128,-1,1
 251 453 251 453 280.5 440.5 c 128,-1,2
 310 428 310 428 361 413 c 0,3,4
 432 392 432 392 477.5 371 c 128,-1,5
 523 350 523 350 555 309 c 128,-1,6
 587 268 587 268 587 201 c 0,7,8
 587 116 587 116 528 61.5 c 128,-1,9
 469 7 469 7 372 -5 c 1,10,-1
 372 -145 l 1,11,-1
 273 -145 l 1,12,-1
 273 -6 l 1,13,14
 203 2 203 2 137.5 31 c 128,-1,15
 72 60 72 60 23 104 c 1,16,-1
 79 218 l 1,17,18
 132 169 132 169 198 141 c 128,-1,19
 264 113 264 113 321 113 c 0,20,21
 377 113 377 113 409 134.5 c 128,-1,22
 441 156 441 156 441 193 c 0,23,24
 441 223 441 223 421.5 242.5 c 128,-1,25
 402 262 402 262 372 274 c 128,-1,26
 342 286 342 286 290 301 c 0,27,28
 219 322 219 322 174 342 c 128,-1,29
 129 362 129 362 97 402.5 c 128,-1,30
 65 443 65 443 65 509 c 0,31,32
 65 589 65 589 121 642 c 128,-1,33
 177 695 177 695 273 708 c 1,34,-1
 273 838 l 1,35,-1
 372 839 l 1,36,-1
 372 709 l 1,37,38
 429 703 429 703 483 684 c 128,-1,39
 537 665 537 665 580 637 c 1,40,-1
 526 520 l 1,41,42
 472 553 472 553 415.5 571 c 128,-1,43
 359 589 359 589 316 589 c 0,44,45
 268 589 268 589 240 571 c 128,-1,46
 212 553 212 553 212 521 c 0,47,0
 212 492 212 492 231.5 472.5 c 128,-1,1
EndSplineSet
EndChar

StartChar: ampersand
Encoding: 38 38 10
Width: 669
Flags: W
LayerCount: 2
Fore
SplineSet
595 -23 m 1,0,-1
 489 82 l 1,1,2
 395 -6 395 -6 281 -6 c 0,3,4
 218 -6 218 -6 166.5 19.5 c 128,-1,5
 115 45 115 45 85.5 90.5 c 128,-1,6
 56 136 56 136 56 193 c 0,7,8
 56 259 56 259 95.5 303.5 c 128,-1,9
 135 348 135 348 204 385 c 1,10,11
 171 431 171 431 155.5 469.5 c 128,-1,12
 140 508 140 508 140 545 c 0,13,14
 140 617 140 617 191 661.5 c 128,-1,15
 242 706 242 706 327 706 c 0,16,17
 380 706 380 706 422 687 c 128,-1,18
 464 668 464 668 487 633.5 c 128,-1,19
 510 599 510 599 510 555 c 0,20,21
 510 490 510 490 466 447.5 c 128,-1,22
 422 405 422 405 342 365 c 1,23,24
 400 301 400 301 478 224 c 1,25,26
 511 274 511 274 536 346 c 1,27,-1
 621 283 l 1,28,29
 593 210 593 210 551 153 c 1,30,-1
 662 45 l 1,31,-1
 595 -23 l 1,0,-1
290 430 m 1,33,34
 346 459 346 459 376 487.5 c 128,-1,35
 406 516 406 516 406 555 c 0,36,37
 406 587 406 587 384.5 606.5 c 128,-1,38
 363 626 363 626 328 626 c 0,39,40
 290 626 290 626 266.5 603 c 128,-1,41
 243 580 243 580 243 545 c 0,42,32
 243 496 243 496 290 430 c 1,33,34
419 151 m 1,44,45
 317 252 317 252 257 320 c 1,46,47
 212 294 212 294 188 266.5 c 128,-1,48
 164 239 164 239 164 203 c 0,49,50
 164 154 164 154 199 123 c 128,-1,51
 234 92 234 92 286 92 c 0,52,43
 355 92 355 92 419 151 c 1,44,45
EndSplineSet
Substitution2: "<3,3> Small Caps in Latin lookup 11 subtable" ampersand.sc
EndChar

StartChar: quotesingle
Encoding: 39 39 11
Width: 219
Flags: W
LayerCount: 2
Fore
SplineSet
60 700 m 1,0,-1
 160 700 l 1,1,-1
 160 445 l 1,2,-1
 60 445 l 1,3,-1
 60 700 l 1,0,-1
EndSplineSet
Substitution2: "<3,3> Small Caps in Latin lookup 11 subtable" quotesingle.sc
EndChar

StartChar: parenleft
Encoding: 40 40 12
Width: 320
Flags: W
LayerCount: 2
Fore
SplineSet
220.5 542 m 128,-1,1
 189 430 189 430 189 309 c 256,2,3
 189 188 189 188 220.5 76 c 128,-1,4
 252 -36 252 -36 308 -124 c 1,5,-1
 190 -124 l 1,6,7
 130 -38 130 -38 98.5 73.5 c 128,-1,8
 67 185 67 185 67 309 c 256,9,10
 67 433 67 433 98.5 544.5 c 128,-1,11
 130 656 130 656 190 742 c 1,12,-1
 308 742 l 1,13,0
 252 654 252 654 220.5 542 c 128,-1,1
EndSplineSet
Substitution2: "'rtla' Right to Left Alternates in Latin lookup 0 subtable" parenright
EndChar

StartChar: parenright
Encoding: 41 41 13
Width: 320
Flags: W
LayerCount: 2
Fore
SplineSet
130 742 m 1,0,1
 190 656 190 656 221.5 544.5 c 128,-1,2
 253 433 253 433 253 309 c 256,3,4
 253 185 253 185 221.5 73.5 c 128,-1,5
 190 -38 190 -38 130 -124 c 1,6,-1
 12 -124 l 1,7,8
 68 -36 68 -36 99.5 76 c 128,-1,9
 131 188 131 188 131 309 c 256,10,11
 131 430 131 430 99.5 542 c 128,-1,12
 68 654 68 654 12 742 c 1,13,-1
 130 742 l 1,0,1
EndSplineSet
Substitution2: "'rtla' Right to Left Alternates in Latin lookup 0 subtable" parenleft
EndChar

StartChar: asterisk
Encoding: 42 42 14
Width: 356
Flags: W
LayerCount: 2
Fore
SplineSet
144 720 m 1,0,-1
 212 720 l 1,1,-1
 211 620 l 1,2,-1
 298 671 l 1,3,-1
 332 609 l 1,4,-1
 242 560 l 1,5,-1
 332 511 l 1,6,-1
 298 448 l 1,7,-1
 210 500 l 1,8,-1
 212 400 l 1,9,-1
 144 400 l 1,10,-1
 146 501 l 1,11,-1
 58 450 l 1,12,-1
 25 511 l 1,13,-1
 113 560 l 1,14,-1
 25 609 l 1,15,-1
 58 672 l 1,16,-1
 145 620 l 1,17,-1
 144 720 l 1,0,-1
EndSplineSet
EndChar

StartChar: plus
Encoding: 43 43 15
Width: 501
Flags: W
LayerCount: 2
Fore
SplineSet
467 370 m 1,0,-1
 467 280 l 1,1,-1
 293 280 l 1,2,-1
 293 108 l 1,3,-1
 208 108 l 1,4,-1
 208 280 l 1,5,-1
 35 280 l 1,6,-1
 35 370 l 1,7,-1
 208 370 l 1,8,-1
 208 543 l 1,9,-1
 293 543 l 1,10,-1
 293 370 l 1,11,-1
 467 370 l 1,0,-1
EndSplineSet
EndChar

StartChar: comma
Encoding: 44 44 16
Width: 221
Flags: W
LayerCount: 2
Fore
SplineSet
159.5 114 m 128,-1,1
 179 95 179 95 179 63 c 0,2,3
 179 48 179 48 174.5 36 c 128,-1,4
 170 24 170 24 161 7 c 2,5,-1
 98 -114 l 1,6,-1
 33 -114 l 1,7,-1
 75 5 l 1,8,9
 45 25 45 25 45 63 c 0,10,11
 45 94 45 94 64 113.5 c 128,-1,12
 83 133 83 133 112 133 c 0,13,0
 140 133 140 133 159.5 114 c 128,-1,1
EndSplineSet
EndChar

StartChar: hyphen
Encoding: 45 45 17
Width: 370
Flags: W
LayerCount: 2
Fore
SplineSet
59 350 m 1,0,-1
 310 350 l 1,1,-1
 310 260 l 1,2,-1
 59 260 l 1,3,-1
 59 350 l 1,0,-1
EndSplineSet
EndChar

StartChar: period
Encoding: 46 46 18
Width: 225
Flags: W
LayerCount: 2
Fore
SplineSet
161.5 115 m 128,-1,1
 181 95 181 95 181 64 c 0,2,3
 181 32 181 32 161.5 11.5 c 128,-1,4
 142 -9 142 -9 112 -9 c 0,5,6
 83 -9 83 -9 63.5 12 c 128,-1,7
 44 33 44 33 44 64 c 256,8,9
 44 95 44 95 63.5 115 c 128,-1,10
 83 135 83 135 112 135 c 0,11,0
 142 135 142 135 161.5 115 c 128,-1,1
EndSplineSet
Substitution2: "<3,3> Small Caps in Latin lookup 11 subtable" period.sc
EndChar

StartChar: slash
Encoding: 47 47 19
Width: 337
Flags: W
LayerCount: 2
Fore
SplineSet
294 815 m 1,0,-1
 404 815 l 1,1,-1
 86 -115 l 1,2,-1
 -25 -115 l 1,3,-1
 294 815 l 1,0,-1
EndSplineSet
Substitution2: "<11,2> Diagonal Fractions lookup 3 subtable" fraction
EndChar

StartChar: zero
Encoding: 48 48 20
Width: 706
Flags: W
LayerCount: 2
Fore
SplineSet
577 614 m 128,-1,1
 655 522 655 522 655 350 c 0,2,3
 655 179 655 179 577 87 c 128,-1,4
 499 -5 499 -5 354 -5 c 256,5,6
 209 -5 209 -5 131 87 c 128,-1,7
 53 179 53 179 53 350 c 0,8,9
 53 522 53 522 131 614 c 128,-1,10
 209 706 209 706 354 706 c 256,11,0
 499 706 499 706 577 614 c 128,-1,1
231 539.5 m 128,-1,13
 191 479 191 479 191 350 c 0,14,15
 191 222 191 222 231 161 c 128,-1,16
 271 100 271 100 354 100 c 256,17,18
 437 100 437 100 477 161 c 128,-1,19
 517 222 517 222 517 350 c 0,20,21
 517 479 517 479 477 539.5 c 128,-1,22
 437 600 437 600 354 600 c 256,23,12
 271 600 271 600 231 539.5 c 128,-1,13
EndSplineSet
Substitution2: "<21,0> Lower Case Numbers lookup 10 subtable" zero.osf
Substitution2: "<6,0> Monospaced Numbers lookup 9 subtable" zero.tf
Substitution2: "<11,2> Diagonal Fractions lookup 4 subtable" zero.numr
Substitution2: "<10,1> Superiors lookup 2 subtable" uni2070
Substitution2: "<10,2> Inferiors lookup 1 subtable" uni2080
EndChar

StartChar: one
Encoding: 49 49 21
Width: 382
Flags: W
LayerCount: 2
Fore
SplineSet
1 700 m 1,0,-1
 282 700 l 1,1,-1
 282 0 l 1,2,-1
 148 0 l 1,3,-1
 148 582 l 1,4,-1
 1 582 l 1,5,-1
 1 700 l 1,0,-1
EndSplineSet
Substitution2: "<21,0> Lower Case Numbers lookup 10 subtable" one.osf
Substitution2: "<6,0> Monospaced Numbers lookup 9 subtable" one.tf
Substitution2: "<11,2> Diagonal Fractions lookup 4 subtable" one.numr
Substitution2: "<10,1> Superiors lookup 2 subtable" uni00B9
Substitution2: "<10,2> Inferiors lookup 1 subtable" uni2081
EndChar

StartChar: two
Encoding: 50 50 22
Width: 590
Flags: W
LayerCount: 2
Fore
SplineSet
556 117 m 1,0,-1
 556 0 l 1,1,-1
 38 0 l 1,2,-1
 38 97 l 1,3,-1
 302 369 l 2,4,5
 340 407 340 407 363 444 c 128,-1,6
 386 481 386 481 386 508 c 0,7,8
 386 546 386 546 356 567.5 c 128,-1,9
 326 589 326 589 273 589 c 0,10,11
 227 589 227 589 175 566 c 128,-1,12
 123 543 123 543 77 502 c 1,13,-1
 24 605 l 1,14,15
 86 653 86 653 154.5 679.5 c 128,-1,16
 223 706 223 706 292 706 c 256,17,18
 361 706 361 706 414 684 c 128,-1,19
 467 662 467 662 496.5 621.5 c 128,-1,20
 526 581 526 581 526 528 c 0,21,22
 526 477 526 477 491 420 c 128,-1,23
 456 363 456 363 393 297 c 2,24,-1
 215 117 l 1,25,-1
 556 117 l 1,0,-1
EndSplineSet
Substitution2: "<21,0> Lower Case Numbers lookup 10 subtable" two.osf
Substitution2: "<6,0> Monospaced Numbers lookup 9 subtable" two.tf
Substitution2: "<11,2> Diagonal Fractions lookup 4 subtable" two.numr
Substitution2: "<10,1> Superiors lookup 2 subtable" uni00B2
Substitution2: "<10,2> Inferiors lookup 1 subtable" uni2082
EndChar

StartChar: three
Encoding: 51 51 23
Width: 593
Flags: W
LayerCount: 2
Fore
SplineSet
490.5 349 m 128,-1,1
 548 299 548 299 548 218 c 0,2,3
 548 152 548 152 514 101.5 c 128,-1,4
 480 51 480 51 417 22.5 c 128,-1,5
 354 -6 354 -6 270 -6 c 0,6,7
 199 -6 199 -6 129.5 15.5 c 128,-1,8
 60 37 60 37 11 73 c 1,9,-1
 64 177 l 1,10,11
 106 142 106 142 157 123.5 c 128,-1,12
 208 105 208 105 261 105 c 0,13,14
 334 105 334 105 375.5 135 c 128,-1,15
 417 165 417 165 417 216 c 0,16,17
 417 268 417 268 376 295.5 c 128,-1,18
 335 323 335 323 259 323 c 2,19,-1
 153 323 l 1,20,-1
 153 404 l 1,21,-1
 341 586 l 1,22,-1
 46 586 l 1,23,-1
 45 700 l 1,24,-1
 513 700 l 1,25,-1
 513 617 l 1,26,-1
 299 412 l 1,27,-1
 336 408 l 2,28,0
 433 399 433 399 490.5 349 c 128,-1,1
EndSplineSet
Substitution2: "<21,0> Lower Case Numbers lookup 10 subtable" three.osf
Substitution2: "<6,0> Monospaced Numbers lookup 9 subtable" three.tf
Substitution2: "<11,2> Diagonal Fractions lookup 4 subtable" three.numr
Substitution2: "<10,1> Superiors lookup 2 subtable" uni00B3
Substitution2: "<10,2> Inferiors lookup 1 subtable" uni2083
EndChar

StartChar: four
Encoding: 52 52 24
Width: 600
Flags: W
LayerCount: 2
Fore
SplineSet
568 280 m 1,0,-1
 568 165 l 1,1,-1
 467 165 l 1,2,-1
 467 0 l 1,3,-1
 343 0 l 1,4,-1
 343 165 l 1,5,-1
 8 165 l 1,6,-1
 8 264 l 1,7,-1
 236 700 l 1,8,-1
 365 700 l 1,9,-1
 151 280 l 1,10,-1
 343 280 l 1,11,-1
 343 442 l 1,12,-1
 467 442 l 1,13,-1
 467 280 l 1,14,-1
 568 280 l 1,0,-1
EndSplineSet
Substitution2: "<21,0> Lower Case Numbers lookup 10 subtable" four.osf
Substitution2: "<6,0> Monospaced Numbers lookup 9 subtable" four.tf
Substitution2: "<11,2> Diagonal Fractions lookup 4 subtable" four.numr
Substitution2: "<10,1> Superiors lookup 2 subtable" uni2074
Substitution2: "<10,2> Inferiors lookup 1 subtable" uni2084
EndChar

StartChar: five
Encoding: 53 53 25
Width: 620
Flags: W
LayerCount: 2
Fore
SplineSet
455 417 m 128,-1,1
 515 390 515 390 547.5 341.5 c 128,-1,2
 580 293 580 293 580 232 c 0,3,4
 580 161 580 161 546 107 c 128,-1,5
 512 53 512 53 450 23.5 c 128,-1,6
 388 -6 388 -6 306 -6 c 0,7,8
 240 -6 240 -6 168.5 16.5 c 128,-1,9
 97 39 97 39 42 77 c 1,10,-1
 95 182 l 1,11,12
 140 147 140 147 191 127.5 c 128,-1,13
 242 108 242 108 293 108 c 0,14,15
 359 108 359 108 397.5 138.5 c 128,-1,16
 436 169 436 169 436 222 c 0,17,18
 436 273 436 273 398 301 c 128,-1,19
 360 329 360 329 285 329 c 0,20,21
 249 329 249 329 190 326.5 c 128,-1,22
 131 324 131 324 99 321 c 1,23,-1
 99 700 l 1,24,-1
 549 700 l 1,25,-1
 549 583 l 1,26,-1
 223 583 l 1,27,-1
 223 444 l 1,28,-1
 316 444 l 2,29,0
 395 444 395 444 455 417 c 128,-1,1
EndSplineSet
Substitution2: "<21,0> Lower Case Numbers lookup 10 subtable" five.osf
Substitution2: "<6,0> Monospaced Numbers lookup 9 subtable" five.tf
Substitution2: "<11,2> Diagonal Fractions lookup 4 subtable" five.numr
Substitution2: "<10,1> Superiors lookup 2 subtable" uni2075
Substitution2: "<10,2> Inferiors lookup 1 subtable" uni2085
EndChar

StartChar: six
Encoding: 54 54 26
Width: 633
Flags: W
LayerCount: 2
Fore
SplineSet
443.5 585.5 m 128,-1,1
 403 597 403 597 362 597 c 0,2,3
 268 597 268 597 220.5 534 c 128,-1,4
 173 471 173 471 176 362 c 1,5,6
 203 408 203 408 249.5 431.5 c 128,-1,7
 296 455 296 455 360 455 c 0,8,9
 464 455 464 455 525 394 c 128,-1,10
 586 333 586 333 586 231 c 0,11,12
 586 159 586 159 555 105.5 c 128,-1,13
 524 52 524 52 467.5 23 c 128,-1,14
 411 -6 411 -6 336 -6 c 0,15,16
 247 -6 247 -6 182 35 c 128,-1,17
 117 76 117 76 82.5 153 c 128,-1,18
 48 230 48 230 48 337 c 0,19,20
 48 448 48 448 85.5 531.5 c 128,-1,21
 123 615 123 615 192 660.5 c 128,-1,22
 261 706 261 706 354 706 c 0,23,24
 408 706 408 706 465.5 691.5 c 128,-1,25
 523 677 523 677 566 652 c 1,26,-1
 515 552 l 1,27,0
 484 574 484 574 443.5 585.5 c 128,-1,1
232 316 m 128,-1,29
 194 280 194 280 195 227 c 0,30,31
 194 197 194 197 209 169.5 c 128,-1,32
 224 142 224 142 254.5 124.5 c 128,-1,33
 285 107 285 107 330 107 c 0,34,35
 390 107 390 107 426 140 c 128,-1,36
 462 173 462 173 462 232 c 0,37,38
 462 287 462 287 427.5 319.5 c 128,-1,39
 393 352 393 352 334 352 c 0,40,28
 270 352 270 352 232 316 c 128,-1,29
EndSplineSet
Substitution2: "<21,0> Lower Case Numbers lookup 10 subtable" six.osf
Substitution2: "<6,0> Monospaced Numbers lookup 9 subtable" six.tf
Substitution2: "<11,2> Diagonal Fractions lookup 4 subtable" six.numr
Substitution2: "<10,1> Superiors lookup 2 subtable" uni2076
Substitution2: "<10,2> Inferiors lookup 1 subtable" uni2086
EndChar

StartChar: seven
Encoding: 55 55 27
Width: 575
Flags: W
LayerCount: 2
Fore
SplineSet
9 700 m 1,0,-1
 549 700 l 1,1,-1
 549 600 l 1,2,-1
 261 0 l 1,3,-1
 119 0 l 1,4,-1
 398 583 l 1,5,-1
 129 583 l 1,6,-1
 128 484 l 1,7,-1
 9 484 l 1,8,-1
 9 700 l 1,0,-1
EndSplineSet
Substitution2: "<21,0> Lower Case Numbers lookup 10 subtable" seven.osf
Substitution2: "<6,0> Monospaced Numbers lookup 9 subtable" seven.tf
Substitution2: "<11,2> Diagonal Fractions lookup 4 subtable" seven.numr
Substitution2: "<10,1> Superiors lookup 2 subtable" uni2077
Substitution2: "<10,2> Inferiors lookup 1 subtable" uni2087
EndChar

StartChar: eight
Encoding: 56 56 28
Width: 632
Flags: W
LayerCount: 2
Fore
SplineSet
487.5 656.5 m 128,-1,1
 551 607 551 607 551 522 c 0,2,3
 551 474 551 474 525 435 c 128,-1,4
 499 396 499 396 453 374 c 1,5,6
 515 351 515 351 550.5 304 c 128,-1,7
 586 257 586 257 586 196 c 256,8,9
 586 135 586 135 553 89 c 128,-1,10
 520 43 520 43 458.5 18.5 c 128,-1,11
 397 -6 397 -6 315 -6 c 256,12,13
 233 -6 233 -6 171.5 18.5 c 128,-1,14
 110 43 110 43 77 88 c 128,-1,15
 44 133 44 133 44 194 c 0,16,17
 44 256 44 256 81 303.5 c 128,-1,18
 118 351 118 351 183 374 c 1,19,20
 134 398 134 398 106.5 438 c 128,-1,21
 79 478 79 478 79 527 c 0,22,23
 79 609 79 609 142.5 657.5 c 128,-1,24
 206 706 206 706 314 706 c 0,25,0
 424 706 424 706 487.5 656.5 c 128,-1,1
224.5 585 m 128,-1,27
 192 560 192 560 192 515 c 256,28,29
 192 470 192 470 224.5 445 c 128,-1,30
 257 420 257 420 315 420 c 256,31,32
 373 420 373 420 405 445 c 128,-1,33
 437 470 437 470 437 515 c 256,34,35
 437 560 437 560 405 585 c 128,-1,36
 373 610 373 610 315 610 c 256,37,26
 257 610 257 610 224.5 585 c 128,-1,27
208 288 m 128,-1,39
 170 260 170 260 170 209 c 0,40,41
 170 157 170 157 208 128 c 128,-1,42
 246 99 246 99 315 99 c 0,43,44
 383 99 383 99 421.5 127.5 c 128,-1,45
 460 156 460 156 460 208 c 0,46,47
 460 259 460 259 421.5 287.5 c 128,-1,48
 383 316 383 316 314 316 c 0,49,38
 246 316 246 316 208 288 c 128,-1,39
EndSplineSet
Substitution2: "<21,0> Lower Case Numbers lookup 10 subtable" eight.osf
Substitution2: "<6,0> Monospaced Numbers lookup 9 subtable" eight.tf
Substitution2: "<11,2> Diagonal Fractions lookup 4 subtable" eight.numr
Substitution2: "<10,1> Superiors lookup 2 subtable" uni2078
Substitution2: "<10,2> Inferiors lookup 1 subtable" uni2088
EndChar

StartChar: nine
Encoding: 57 57 29
Width: 631
Flags: W
LayerCount: 2
Fore
SplineSet
184 115.5 m 128,-1,1
 224 104 224 104 264 104 c 0,2,3
 358 104 358 104 405 166.5 c 128,-1,4
 452 229 452 229 450 338 c 1,5,6
 423 293 423 293 376 269 c 128,-1,7
 329 245 329 245 266 245 c 0,8,9
 163 245 163 245 103 306 c 128,-1,10
 43 367 43 367 43 470 c 0,11,12
 43 542 43 542 73.5 595 c 128,-1,13
 104 648 104 648 160 677 c 128,-1,14
 216 706 216 706 291 706 c 0,15,16
 380 706 380 706 444.5 665 c 128,-1,17
 509 624 509 624 543.5 547 c 128,-1,18
 578 470 578 470 578 364 c 0,19,20
 578 253 578 253 540.5 169 c 128,-1,21
 503 85 503 85 434 39.5 c 128,-1,22
 365 -6 365 -6 273 -6 c 0,23,24
 220 -6 220 -6 162.5 9 c 128,-1,25
 105 24 105 24 61 49 c 1,26,-1
 113 148 l 1,27,0
 144 127 144 127 184 115.5 c 128,-1,1
202 560 m 128,-1,29
 166 527 166 527 166 469 c 0,30,31
 166 413 166 413 200 381 c 128,-1,32
 234 349 234 349 293 349 c 0,33,34
 357 349 357 349 394 384.5 c 128,-1,35
 431 420 431 420 430 473 c 0,36,37
 431 521 431 521 396.5 557 c 128,-1,38
 362 593 362 593 297 593 c 0,39,28
 238 593 238 593 202 560 c 128,-1,29
EndSplineSet
Substitution2: "<21,0> Lower Case Numbers lookup 10 subtable" nine.osf
Substitution2: "<6,0> Monospaced Numbers lookup 9 subtable" nine.tf
Substitution2: "<11,2> Diagonal Fractions lookup 4 subtable" nine.numr
Substitution2: "<10,1> Superiors lookup 2 subtable" uni2079
Substitution2: "<10,2> Inferiors lookup 1 subtable" uni2089
EndChar

StartChar: less
Encoding: 60 60 32
Width: 501
Flags: W
LayerCount: 2
Fore
SplineSet
467 568 m 1,0,-1
 467 468 l 1,1,-1
 121 325 l 1,2,-1
 467 182 l 1,3,-1
 467 83 l 1,4,-1
 35 268 l 1,5,-1
 35 382 l 1,6,-1
 467 568 l 1,0,-1
EndSplineSet
Substitution2: "'rtla' Right to Left Alternates in Latin lookup 0 subtable" greater
EndChar

StartChar: equal
Encoding: 61 61 33
Width: 501
Flags: W
LayerCount: 2
Fore
SplineSet
35 476 m 1,0,-1
 467 476 l 1,1,-1
 467 386 l 1,2,-1
 35 386 l 1,3,-1
 35 476 l 1,0,-1
35 264 m 1,4,-1
 467 264 l 1,5,-1
 467 175 l 1,6,-1
 35 175 l 1,7,-1
 35 264 l 1,4,-1
EndSplineSet
EndChar

StartChar: greater
Encoding: 62 62 34
Width: 501
Flags: W
LayerCount: 2
Fore
SplineSet
34 88 m 1,0,-1
 34 188 l 1,1,-1
 380 331 l 1,2,-1
 34 474 l 1,3,-1
 34 573 l 1,4,-1
 466 388 l 1,5,-1
 466 274 l 1,6,-1
 34 88 l 1,0,-1
EndSplineSet
Substitution2: "'rtla' Right to Left Alternates in Latin lookup 0 subtable" less
EndChar

StartChar: question
Encoding: 63 63 35
Width: 451
Flags: W
LayerCount: 2
Fore
SplineSet
81 642.5 m 128,-1,1
 138 698 138 698 235 698 c 0,2,3
 329 698 329 698 384.5 654 c 128,-1,4
 440 610 440 610 440 528 c 0,5,6
 440 490 440 490 427 461 c 128,-1,7
 414 432 414 432 396 412 c 128,-1,8
 378 392 378 392 347 365 c 0,9,10
 306 330 306 330 285.5 301.5 c 128,-1,11
 265 273 265 273 265 231 c 1,12,-1
 165 231 l 1,13,14
 165 271 165 271 177 301 c 128,-1,15
 189 331 189 331 205.5 350.5 c 128,-1,16
 222 370 222 370 251 396 c 0,17,18
 285 427 285 427 301 450 c 128,-1,19
 317 473 317 473 317 508 c 0,20,21
 317 547 317 547 292.5 566.5 c 128,-1,22
 268 586 268 586 224 586 c 0,23,24
 178 586 178 586 152 561.5 c 128,-1,25
 126 537 126 537 124 489 c 1,26,-1
 23 489 l 1,27,0
 24 587 24 587 81 642.5 c 128,-1,1
262.5 115 m 128,-1,29
 282 95 282 95 282 64 c 0,30,31
 282 32 282 32 262.5 11.5 c 128,-1,32
 243 -9 243 -9 213 -9 c 0,33,34
 184 -9 184 -9 164.5 12 c 128,-1,35
 145 33 145 33 145 64 c 256,36,37
 145 95 145 95 164.5 115 c 128,-1,38
 184 135 184 135 213 135 c 0,39,28
 243 135 243 135 262.5 115 c 128,-1,29
EndSplineSet
Substitution2: "<3,3> Small Caps in Latin lookup 11 subtable" question.sc
EndChar

StartChar: at
Encoding: 64 64 36
Width: 958
Flags: W
LayerCount: 2
Fore
SplineSet
715.5 112 m 128,-1,1
 727 99 727 99 747 99 c 0,2,3
 771 99 771 99 791.5 121 c 128,-1,4
 812 143 812 143 825 182 c 128,-1,5
 838 221 838 221 838 270 c 0,6,7
 838 368 838 368 795 447.5 c 128,-1,8
 752 527 752 527 671.5 572.5 c 128,-1,9
 591 618 591 618 485 618 c 0,10,11
 385 618 385 618 301.5 571 c 128,-1,12
 218 524 218 524 169 443.5 c 128,-1,13
 120 363 120 363 120 267 c 0,14,15
 120 173 120 173 166.5 96.5 c 128,-1,16
 213 20 213 20 293.5 -23 c 128,-1,17
 374 -66 374 -66 472 -66 c 0,18,19
 519 -66 519 -66 571.5 -50.5 c 128,-1,20
 624 -35 624 -35 664 -6 c 1,21,-1
 707 -81 l 1,22,23
 664 -113 664 -113 597.5 -132.5 c 128,-1,24
 531 -152 531 -152 472 -152 c 0,25,26
 348 -152 348 -152 247.5 -97.5 c 128,-1,27
 147 -43 147 -43 89 53 c 128,-1,28
 31 149 31 149 31 267 c 0,29,30
 31 388 31 388 91.5 487 c 128,-1,31
 152 586 152 586 256 643.5 c 128,-1,32
 360 701 360 701 485 701 c 256,33,34
 610 701 610 701 711 646 c 128,-1,35
 812 591 812 591 869.5 493 c 128,-1,36
 927 395 927 395 927 273 c 0,37,38
 927 199 927 199 902.5 142.5 c 128,-1,39
 878 86 878 86 835 55 c 128,-1,40
 792 24 792 24 736 24 c 0,41,42
 689 24 689 24 658.5 44.5 c 128,-1,43
 628 65 628 65 620 105 c 2,44,-1
 618 123 l 1,45,46
 588 80 588 80 545 58 c 128,-1,47
 502 36 502 36 451 36 c 0,48,49
 391 36 391 36 339 65.5 c 128,-1,50
 287 95 287 95 255.5 148.5 c 128,-1,51
 224 202 224 202 224 269 c 0,52,53
 224 335 224 335 251 389 c 128,-1,54
 278 443 278 443 327 475 c 128,-1,55
 376 507 376 507 440 507 c 0,56,57
 479 507 479 507 511.5 494 c 128,-1,58
 544 481 544 481 565 464 c 128,-1,59
 586 447 586 447 592 436 c 1,60,-1
 592 496 l 1,61,-1
 704 496 l 1,62,-1
 704 152 l 2,63,0
 704 125 704 125 715.5 112 c 128,-1,1
377.5 365.5 m 128,-1,65
 345 328 345 328 345 274 c 0,66,67
 345 218 345 218 378 178 c 128,-1,68
 411 138 411 138 464 138 c 0,69,70
 519 138 519 138 551.5 177 c 128,-1,71
 584 216 584 216 584 273 c 0,72,73
 584 328 584 328 550.5 365.5 c 128,-1,74
 517 403 517 403 462 403 c 0,75,64
 410 403 410 403 377.5 365.5 c 128,-1,65
EndSplineSet
EndChar

StartChar: A
Encoding: 65 65 37
Width: 747
Flags: W
LayerCount: 2
Fore
SplineSet
604 0 m 1,0,-1
 542 148 l 1,1,-1
 200 148 l 1,2,-1
 138 0 l 1,3,-1
 -1 0 l 1,4,-1
 306 700 l 1,5,-1
 445 700 l 1,6,-1
 748 0 l 1,7,-1
 604 0 l 1,0,-1
248 263 m 1,8,-1
 494 263 l 1,9,-1
 372 557 l 1,10,-1
 248 263 l 1,8,-1
EndSplineSet
Substitution2: "<11,2> Diagonal Fractions lookup 7 nested-substitutions 0 subtable" ordfeminine
Substitution2: "<11,2> Diagonal Fractions lookup 5 nested-substitutions 0 subtable" ordfeminine
EndChar

StartChar: B
Encoding: 66 66 38
Width: 709
Flags: W
LayerCount: 2
Fore
SplineSet
573.5 653 m 128,-1,1
 638 606 638 606 638 525 c 0,2,3
 638 467 638 467 605.5 425.5 c 128,-1,4
 573 384 573 384 516 370 c 1,5,6
 586 357 586 357 625.5 310 c 128,-1,7
 665 263 665 263 665 193 c 0,8,9
 665 103 665 103 595.5 51.5 c 128,-1,10
 526 0 526 0 406 0 c 2,11,-1
 86 0 l 1,12,-1
 86 700 l 1,13,-1
 397 700 l 2,14,0
 509 700 509 700 573.5 653 c 128,-1,1
471.5 437 m 128,-1,16
 501 460 501 460 501 501 c 0,17,18
 501 541 501 541 471.5 563 c 128,-1,19
 442 585 442 585 390 584 c 2,20,-1
 220 584 l 1,21,-1
 220 414 l 1,22,-1
 390 414 l 2,23,15
 442 414 442 414 471.5 437 c 128,-1,16
490 140 m 128,-1,25
 526 165 526 165 526 210 c 0,26,27
 526 253 526 253 490 277.5 c 128,-1,28
 454 302 454 302 390 301 c 2,29,-1
 220 301 l 1,30,-1
 220 116 l 1,31,-1
 390 116 l 2,32,24
 454 115 454 115 490 140 c 128,-1,25
EndSplineSet
EndChar

StartChar: C
Encoding: 67 67 39
Width: 696
Flags: W
LayerCount: 2
Fore
SplineSet
505.5 565 m 128,-1,1
 455 589 455 589 403 589 c 0,2,3
 338 589 338 589 284 558 c 128,-1,4
 230 527 230 527 199 472.5 c 128,-1,5
 168 418 168 418 168 353 c 256,6,7
 168 288 168 288 199 233.5 c 128,-1,8
 230 179 230 179 284 147.5 c 128,-1,9
 338 116 338 116 403 116 c 0,10,11
 453 116 453 116 503.5 138 c 128,-1,12
 554 160 554 160 593 199 c 1,13,-1
 672 111 l 1,14,15
 617 55 617 55 544 22.5 c 128,-1,16
 471 -10 471 -10 396 -10 c 0,17,18
 295 -10 295 -10 211 38 c 128,-1,19
 127 86 127 86 79 168.5 c 128,-1,20
 31 251 31 251 31 351 c 256,21,22
 31 451 31 451 80 533 c 128,-1,23
 129 615 129 615 213.5 662 c 128,-1,24
 298 709 298 709 401 709 c 0,25,26
 476 709 476 709 548 679 c 128,-1,27
 620 649 620 649 671 596 c 1,28,-1
 593 498 l 1,29,0
 556 541 556 541 505.5 565 c 128,-1,1
EndSplineSet
EndChar

StartChar: D
Encoding: 68 68 40
Width: 773
Flags: W
LayerCount: 2
Fore
SplineSet
565 655.5 m 128,-1,1
 648 611 648 611 695 531 c 128,-1,2
 742 451 742 451 742 350 c 256,3,4
 742 249 742 249 694.5 169.5 c 128,-1,5
 647 90 647 90 563 45 c 128,-1,6
 479 0 479 0 372 0 c 2,7,-1
 86 0 l 1,8,-1
 86 700 l 1,9,-1
 377 700 l 2,10,0
 482 700 482 700 565 655.5 c 128,-1,1
495.5 147.5 m 128,-1,12
 547 177 547 177 576 229.5 c 128,-1,13
 605 282 605 282 605 349 c 256,14,15
 605 416 605 416 575 469.5 c 128,-1,16
 545 523 545 523 492.5 552.5 c 128,-1,17
 440 582 440 582 375 582 c 2,18,-1
 220 582 l 1,19,-1
 220 118 l 1,20,-1
 380 118 l 2,21,11
 444 118 444 118 495.5 147.5 c 128,-1,12
EndSplineSet
EndChar

StartChar: E
Encoding: 69 69 41
Width: 661
Flags: W
LayerCount: 2
Fore
SplineSet
86 700 m 1,0,-1
 599 700 l 1,1,-1
 599 583 l 1,2,-1
 220 583 l 1,3,-1
 220 410 l 1,4,-1
 560 410 l 1,5,-1
 560 293 l 1,6,-1
 220 293 l 1,7,-1
 220 117 l 1,8,-1
 611 117 l 1,9,-1
 611 0 l 1,10,-1
 86 0 l 1,11,-1
 86 700 l 1,0,-1
EndSplineSet
EndChar

StartChar: F
Encoding: 70 70 42
Width: 583
Flags: W
LayerCount: 2
Fore
SplineSet
86 700 m 1,0,-1
 569 700 l 1,1,-1
 568 583 l 1,2,-1
 220 583 l 1,3,-1
 220 394 l 1,4,-1
 537 394 l 1,5,-1
 537 277 l 1,6,-1
 220 277 l 1,7,-1
 220 0 l 1,8,-1
 86 0 l 1,9,-1
 86 700 l 1,0,-1
EndSplineSet
EndChar

StartChar: G
Encoding: 71 71 43
Width: 747
Flags: W
LayerCount: 2
Fore
SplineSet
409 393 m 1,0,-1
 683 393 l 1,1,-1
 683 82 l 1,2,3
 628 41 628 41 550.5 15.5 c 128,-1,4
 473 -10 473 -10 401 -10 c 0,5,6
 298 -10 298 -10 213.5 38 c 128,-1,7
 129 86 129 86 80 168.5 c 128,-1,8
 31 251 31 251 31 351 c 256,9,10
 31 451 31 451 81 532.5 c 128,-1,11
 131 614 131 614 217.5 661.5 c 128,-1,12
 304 709 304 709 409 709 c 0,13,14
 484 709 484 709 554.5 682 c 128,-1,15
 625 655 625 655 678 608 c 1,16,-1
 602 509 l 1,17,18
 562 547 562 547 512 568 c 128,-1,19
 462 589 462 589 409 589 c 0,20,21
 343 589 343 589 287.5 557.5 c 128,-1,22
 232 526 232 526 200 471 c 128,-1,23
 168 416 168 416 168 351 c 0,24,25
 168 285 168 285 200.5 230 c 128,-1,26
 233 175 233 175 288 143 c 128,-1,27
 343 111 343 111 410 111 c 0,28,29
 446 111 446 111 485.5 122.5 c 128,-1,30
 525 134 525 134 561 155 c 1,31,-1
 561 271 l 1,32,-1
 409 271 l 1,33,-1
 409 393 l 1,0,-1
EndSplineSet
EndChar

StartChar: H
Encoding: 72 72 44
Width: 790
Flags: W
LayerCount: 2
Fore
SplineSet
86 700 m 1,0,-1
 220 700 l 1,1,-1
 220 401 l 1,2,-1
 569 401 l 1,3,-1
 569 700 l 1,4,-1
 703 700 l 1,5,-1
 703 0 l 1,6,-1
 569 0 l 1,7,-1
 569 284 l 1,8,-1
 220 284 l 1,9,-1
 220 0 l 1,10,-1
 86 0 l 1,11,-1
 86 700 l 1,0,-1
EndSplineSet
EndChar

StartChar: I
Encoding: 73 73 45
Width: 306
Flags: W
LayerCount: 2
Fore
SplineSet
86 700 m 1,0,-1
 220 700 l 1,1,-1
 220 0 l 1,2,-1
 86 0 l 1,3,-1
 86 700 l 1,0,-1
EndSplineSet
EndChar

StartChar: J
Encoding: 74 74 46
Width: 509
Flags: W
LayerCount: 2
Fore
SplineSet
377 53.5 m 128,-1,1
 317 -6 317 -6 213 -6 c 0,2,3
 83 -6 83 -6 -3 99 c 1,4,-1
 60 199 l 1,5,6
 95 162 95 162 134.5 141.5 c 128,-1,7
 174 121 174 121 209 121 c 0,8,9
 253 121 253 121 277.5 147.5 c 128,-1,10
 302 174 302 174 302 223 c 2,11,-1
 302 581 l 1,12,-1
 61 581 l 1,13,-1
 61 700 l 1,14,-1
 437 700 l 1,15,-1
 437 220 l 2,16,0
 437 113 437 113 377 53.5 c 128,-1,1
EndSplineSet
EndChar

StartChar: K
Encoding: 75 75 47
Width: 726
Flags: W
LayerCount: 2
Fore
SplineSet
711 0 m 1,0,-1
 550 0 l 1,1,-1
 330 300 l 1,2,-1
 220 179 l 1,3,-1
 220 0 l 1,4,-1
 86 0 l 1,5,-1
 86 700 l 1,6,-1
 220 700 l 1,7,-1
 220 351 l 1,8,-1
 536 700 l 1,9,-1
 694 700 l 1,10,-1
 425 404 l 1,11,-1
 711 0 l 1,0,-1
EndSplineSet
EndChar

StartChar: L
Encoding: 76 76 48
Width: 541
Flags: W
LayerCount: 2
Fore
SplineSet
86 700 m 1,0,-1
 220 700 l 1,1,-1
 220 121 l 1,2,-1
 522 121 l 1,3,-1
 522 0 l 1,4,-1
 86 0 l 1,5,-1
 86 700 l 1,0,-1
EndSplineSet
EndChar

StartChar: M
Encoding: 77 77 49
Width: 940
Flags: W
LayerCount: 2
Fore
SplineSet
86 700 m 1,0,-1
 239 700 l 1,1,-1
 471 249 l 1,2,-1
 701 700 l 1,3,-1
 854 700 l 1,4,-1
 854 0 l 1,5,-1
 731 0 l 1,6,-1
 731 502 l 1,7,-1
 513 72 l 1,8,-1
 427 72 l 1,9,-1
 208 502 l 1,10,-1
 208 0 l 1,11,-1
 86 0 l 1,12,-1
 86 700 l 1,0,-1
EndSplineSet
EndChar

StartChar: N
Encoding: 78 78 50
Width: 790
Flags: W
LayerCount: 2
Fore
SplineSet
574 700 m 1,0,-1
 704 700 l 1,1,-1
 704 0 l 1,2,-1
 577 0 l 1,3,-1
 217 482 l 1,4,-1
 217 0 l 1,5,-1
 86 0 l 1,6,-1
 86 700 l 1,7,-1
 213 700 l 1,8,-1
 574 217 l 1,9,-1
 574 700 l 1,0,-1
EndSplineSet
EndChar

StartChar: O
Encoding: 79 79 51
Width: 809
Flags: W
LayerCount: 2
Fore
SplineSet
593.5 662 m 128,-1,1
 679 615 679 615 728 533 c 128,-1,2
 777 451 777 451 777 351 c 256,3,4
 777 251 777 251 728 168.5 c 128,-1,5
 679 86 679 86 593.5 38 c 128,-1,6
 508 -10 508 -10 404 -10 c 256,7,8
 300 -10 300 -10 214.5 38 c 128,-1,9
 129 86 129 86 80 168.5 c 128,-1,10
 31 251 31 251 31 351 c 256,11,12
 31 451 31 451 80 533 c 128,-1,13
 129 615 129 615 214.5 662 c 128,-1,14
 300 709 300 709 404 709 c 256,15,0
 508 709 508 709 593.5 662 c 128,-1,1
287 557.5 m 128,-1,17
 232 526 232 526 200 471.5 c 128,-1,18
 168 417 168 417 168 351 c 256,19,20
 168 285 168 285 200.5 230 c 128,-1,21
 233 175 233 175 287.5 143 c 128,-1,22
 342 111 342 111 406 111 c 0,23,24
 469 111 469 111 523 143 c 128,-1,25
 577 175 577 175 608.5 230 c 128,-1,26
 640 285 640 285 640 351 c 256,27,28
 640 417 640 417 608.5 471.5 c 128,-1,29
 577 526 577 526 523 557.5 c 128,-1,30
 469 589 469 589 406 589 c 0,31,16
 342 589 342 589 287 557.5 c 128,-1,17
EndSplineSet
Substitution2: "<11,2> Diagonal Fractions lookup 7 nested-substitutions 0 subtable" ordmasculine
Substitution2: "<11,2> Diagonal Fractions lookup 5 nested-substitutions 0 subtable" ordmasculine
EndChar

StartChar: P
Encoding: 80 80 52
Width: 675
Flags: W
LayerCount: 2
Fore
SplineSet
577.5 637 m 128,-1,1
 650 574 650 574 650 459 c 0,2,3
 650 339 650 339 577.5 272.5 c 128,-1,4
 505 206 505 206 373 206 c 2,5,-1
 220 206 l 1,6,-1
 220 0 l 1,7,-1
 86 0 l 1,8,-1
 86 700 l 1,9,-1
 373 700 l 2,10,0
 505 700 505 700 577.5 637 c 128,-1,1
482.5 357 m 128,-1,12
 523 390 523 390 523 455 c 0,13,14
 523 519 523 519 482.5 551 c 128,-1,15
 442 583 442 583 366 583 c 2,16,-1
 220 583 l 1,17,-1
 220 324 l 1,18,-1
 366 324 l 2,19,11
 442 324 442 324 482.5 357 c 128,-1,12
EndSplineSet
EndChar

StartChar: Q
Encoding: 81 81 53
Width: 816
Flags: W
LayerCount: 2
Fore
SplineSet
817 -80 m 1,0,1
 777 -116 777 -116 725 -136.5 c 128,-1,2
 673 -157 673 -157 623 -157 c 0,3,4
 557 -157 557 -157 500 -118.5 c 128,-1,5
 443 -80 443 -80 403 -10 c 1,6,7
 299 -10 299 -10 214 38 c 128,-1,8
 129 86 129 86 80 168.5 c 128,-1,9
 31 251 31 251 31 351 c 256,10,11
 31 451 31 451 80 533 c 128,-1,12
 129 615 129 615 214.5 662 c 128,-1,13
 300 709 300 709 404 709 c 256,14,15
 508 709 508 709 593.5 662 c 128,-1,16
 679 615 679 615 728 533 c 128,-1,17
 777 451 777 451 777 351 c 0,18,19
 777 273 777 273 746.5 204.5 c 128,-1,20
 716 136 716 136 661 86 c 128,-1,21
 606 36 606 36 534 11 c 1,22,23
 587 -45 587 -45 639 -45 c 0,24,25
 693 -45 693 -45 765 11 c 1,26,-1
 817 -80 l 1,0,1
200.5 230 m 128,-1,28
 233 175 233 175 287.5 143 c 128,-1,29
 342 111 342 111 406 111 c 0,30,31
 469 111 469 111 523 143 c 128,-1,32
 577 175 577 175 608.5 230 c 128,-1,33
 640 285 640 285 640 351 c 256,34,35
 640 417 640 417 608.5 471.5 c 128,-1,36
 577 526 577 526 523 557.5 c 128,-1,37
 469 589 469 589 406 589 c 0,38,39
 342 589 342 589 287 557.5 c 128,-1,40
 232 526 232 526 200 471.5 c 128,-1,41
 168 417 168 417 168 351 c 256,42,27
 168 285 168 285 200.5 230 c 128,-1,28
EndSplineSet
EndChar

StartChar: R
Encoding: 82 82 54
Width: 723
Flags: W
LayerCount: 2
Fore
SplineSet
524 0 m 1,0,-1
 403 207 l 1,1,2
 395 206 395 206 378 206 c 2,3,-1
 220 206 l 1,4,-1
 220 0 l 1,5,-1
 86 0 l 1,6,-1
 86 700 l 1,7,-1
 378 700 l 2,8,9
 514 700 514 700 588 637 c 128,-1,10
 662 574 662 574 662 459 c 0,11,12
 662 377 662 377 626.5 319 c 128,-1,13
 591 261 591 261 523 232 c 1,14,-1
 677 0 l 1,15,-1
 524 0 l 1,0,-1
220 324 m 1,16,-1
 378 324 l 2,17,18
 454 324 454 324 494 357 c 128,-1,19
 534 390 534 390 534 455 c 0,20,21
 534 519 534 519 494 551 c 128,-1,22
 454 583 454 583 378 583 c 2,23,-1
 220 583 l 1,24,-1
 220 324 l 1,16,-1
EndSplineSet
EndChar

StartChar: S
Encoding: 83 83 55
Width: 628
Flags: W
LayerCount: 2
Fore
SplineSet
415.5 571 m 128,-1,1
 359 589 359 589 316 589 c 0,2,3
 268 589 268 589 240 571 c 128,-1,4
 212 553 212 553 212 521 c 0,5,6
 212 492 212 492 231.5 472.5 c 128,-1,7
 251 453 251 453 280.5 440.5 c 128,-1,8
 310 428 310 428 361 413 c 0,9,10
 432 392 432 392 477.5 371 c 128,-1,11
 523 350 523 350 555 309 c 128,-1,12
 587 268 587 268 587 201 c 0,13,14
 587 137 587 137 552.5 89.5 c 128,-1,15
 518 42 518 42 457.5 17 c 128,-1,16
 397 -8 397 -8 319 -8 c 0,17,18
 237 -8 237 -8 159 22.5 c 128,-1,19
 81 53 81 53 23 104 c 1,20,-1
 79 218 l 1,21,22
 132 169 132 169 198 141 c 128,-1,23
 264 113 264 113 321 113 c 0,24,25
 377 113 377 113 409 134.5 c 128,-1,26
 441 156 441 156 441 193 c 0,27,28
 441 223 441 223 421.5 242.5 c 128,-1,29
 402 262 402 262 372 274 c 128,-1,30
 342 286 342 286 290 301 c 0,31,32
 219 322 219 322 174 342 c 128,-1,33
 129 362 129 362 97 402.5 c 128,-1,34
 65 443 65 443 65 509 c 0,35,36
 65 570 65 570 97.5 615.5 c 128,-1,37
 130 661 130 661 189.5 686 c 128,-1,38
 249 711 249 711 327 711 c 0,39,40
 395 711 395 711 461.5 691 c 128,-1,41
 528 671 528 671 580 637 c 1,42,-1
 526 520 l 1,43,0
 472 553 472 553 415.5 571 c 128,-1,1
EndSplineSet
EndChar

StartChar: T
Encoding: 84 84 56
Width: 588
Flags: W
LayerCount: 2
Fore
SplineSet
8 700 m 1,0,-1
 579 700 l 1,1,-1
 579 581 l 1,2,-1
 361 581 l 1,3,-1
 361 0 l 1,4,-1
 226 0 l 1,5,-1
 226 581 l 1,6,-1
 8 581 l 1,7,-1
 8 700 l 1,0,-1
EndSplineSet
EndChar

StartChar: U
Encoding: 85 85 57
Width: 756
Flags: W
LayerCount: 2
Fore
SplineSet
254 158 m 128,-1,1
 301 111 301 111 380 111 c 256,2,3
 459 111 459 111 504.5 158 c 128,-1,4
 550 205 550 205 550 288 c 2,5,-1
 550 700 l 1,6,-1
 684 700 l 1,7,-1
 684 288 l 2,8,9
 684 197 684 197 647 129.5 c 128,-1,10
 610 62 610 62 541.5 26 c 128,-1,11
 473 -10 473 -10 380 -10 c 0,12,13
 286 -10 286 -10 216.5 26 c 128,-1,14
 147 62 147 62 110 129.5 c 128,-1,15
 73 197 73 197 73 288 c 2,16,-1
 73 700 l 1,17,-1
 207 700 l 1,18,-1
 207 288 l 2,19,0
 207 205 207 205 254 158 c 128,-1,1
EndSplineSet
EndChar

StartChar: V
Encoding: 86 86 58
Width: 701
Flags: W
LayerCount: 2
Fore
SplineSet
2 700 m 1,0,-1
 146 700 l 1,1,-1
 352 149 l 1,2,-1
 560 700 l 1,3,-1
 698 700 l 1,4,-1
 418 0 l 1,5,-1
 279 0 l 1,6,-1
 2 700 l 1,0,-1
EndSplineSet
EndChar

StartChar: W
Encoding: 87 87 59
Width: 1076
Flags: W
LayerCount: 2
Fore
SplineSet
935 700 m 1,0,-1
 1074 700 l 1,1,-1
 837 0 l 1,2,-1
 698 0 l 1,3,-1
 538 531 l 1,4,-1
 375 0 l 1,5,-1
 238 0 l 1,6,-1
 2 700 l 1,7,-1
 146 700 l 1,8,-1
 311 145 l 1,9,-1
 475 700 l 1,10,-1
 607 700 l 1,11,-1
 772 143 l 1,12,-1
 935 700 l 1,0,-1
EndSplineSet
EndChar

StartChar: X
Encoding: 88 88 60
Width: 704
Flags: W
LayerCount: 2
Fore
SplineSet
29 700 m 1,0,-1
 186 700 l 1,1,-1
 347 470 l 1,2,-1
 508 700 l 1,3,-1
 667 700 l 1,4,-1
 432 365 l 1,5,-1
 687 0 l 1,6,-1
 526 0 l 1,7,-1
 347 250 l 1,8,-1
 170 0 l 1,9,-1
 13 0 l 1,10,-1
 265 359 l 1,11,-1
 29 700 l 1,0,-1
EndSplineSet
EndChar

StartChar: Y
Encoding: 89 89 61
Width: 649
Flags: W
LayerCount: 2
Fore
SplineSet
649 700 m 1,0,-1
 394 229 l 1,1,-1
 394 0 l 1,2,-1
 260 0 l 1,3,-1
 260 224 l 1,4,-1
 -1 700 l 1,5,-1
 135 700 l 1,6,-1
 326 371 l 1,7,-1
 514 700 l 1,8,-1
 649 700 l 1,0,-1
EndSplineSet
EndChar

StartChar: Z
Encoding: 90 90 62
Width: 668
Flags: W
LayerCount: 2
Fore
SplineSet
48 700 m 1,0,-1
 628 700 l 1,1,-1
 628 606 l 1,2,-1
 216 117 l 1,3,-1
 633 117 l 1,4,-1
 633 0 l 1,5,-1
 35 0 l 1,6,-1
 35 95 l 1,7,-1
 447 583 l 1,8,-1
 47 583 l 1,9,-1
 48 700 l 1,0,-1
EndSplineSet
EndChar

StartChar: bracketleft
Encoding: 91 91 63
Width: 336
Flags: W
LayerCount: 2
Fore
SplineSet
78 742 m 1,0,-1
 318 742 l 1,1,-1
 318 638 l 1,2,-1
 195 638 l 1,3,-1
 195 -20 l 1,4,-1
 318 -20 l 1,5,-1
 318 -124 l 1,6,-1
 78 -124 l 1,7,-1
 78 742 l 1,0,-1
EndSplineSet
Substitution2: "'rtla' Right to Left Alternates in Latin lookup 0 subtable" bracketright
EndChar

StartChar: backslash
Encoding: 92 92 64
Width: 337
Flags: W
LayerCount: 2
Fore
SplineSet
43 815 m 1,0,-1
 362 -115 l 1,1,-1
 251 -115 l 1,2,-1
 -67 815 l 1,3,-1
 43 815 l 1,0,-1
EndSplineSet
EndChar

StartChar: bracketright
Encoding: 93 93 65
Width: 336
Flags: W
LayerCount: 2
Fore
SplineSet
258 742 m 1,0,-1
 258 -124 l 1,1,-1
 18 -124 l 1,2,-1
 18 -20 l 1,3,-1
 141 -20 l 1,4,-1
 141 638 l 1,5,-1
 18 638 l 1,6,-1
 18 742 l 1,7,-1
 258 742 l 1,0,-1
EndSplineSet
Substitution2: "'rtla' Right to Left Alternates in Latin lookup 0 subtable" bracketleft
EndChar

StartChar: asciicircum
Encoding: 94 94 66
Width: 547
Flags: W
LayerCount: 2
Fore
SplineSet
516 134 m 1,0,-1
 416 134 l 1,1,-1
 273 447 l 1,2,-1
 130 134 l 1,3,-1
 31 134 l 1,4,-1
 216 525 l 1,5,-1
 330 525 l 1,6,-1
 516 134 l 1,0,-1
EndSplineSet
EndChar

StartChar: underscore
Encoding: 95 95 67
Width: 571
Flags: W
LayerCount: 2
Fore
SplineSet
0 -126 m 1,0,-1
 570 -126 l 1,1,-1
 570 -204 l 1,2,-1
 0 -204 l 1,3,-1
 0 -126 l 1,0,-1
EndSplineSet
EndChar

StartChar: a
Encoding: 97 97 69
Width: 590
Flags: W
LayerCount: 2
Fore
SplineSet
397 0 m 1,0,-1
 397 65 l 1,1,2
 369 30 369 30 325 12 c 128,-1,3
 281 -6 281 -6 224 -6 c 0,4,5
 168 -6 168 -6 125.5 15.5 c 128,-1,6
 83 37 83 37 60 75 c 128,-1,7
 37 113 37 113 37 160 c 0,8,9
 37 235 37 235 90 277.5 c 128,-1,10
 143 320 143 320 240 321 c 2,11,-1
 396 321 l 1,12,-1
 396 335 l 2,13,14
 396 382 396 382 365 408 c 128,-1,15
 334 434 334 434 275 434 c 0,16,17
 199 434 199 434 116 384 c 1,18,-1
 69 474 l 1,19,20
 132 509 132 509 183.5 524.5 c 128,-1,21
 235 540 235 540 304 540 c 0,22,23
 408 540 408 540 465.5 490 c 128,-1,24
 523 440 523 440 524 350 c 2,25,-1
 525 0 l 1,26,-1
 397 0 l 1,0,-1
351 120.5 m 128,-1,28
 391 147 391 147 396 186 c 1,29,-1
 396 234 l 1,30,-1
 261 234 l 2,31,32
 209 234 209 234 184.5 218.5 c 128,-1,33
 160 203 160 203 160 168 c 0,34,35
 160 134 160 134 185.5 114 c 128,-1,36
 211 94 211 94 255 94 c 0,37,27
 311 94 311 94 351 120.5 c 128,-1,28
EndSplineSet
Substitution2: "<3,3> Small Caps in Latin lookup 11 subtable" a.sc
Substitution2: "<11,2> Diagonal Fractions lookup 7 nested-substitutions 0 subtable" ordfeminine
Substitution2: "<11,2> Diagonal Fractions lookup 5 nested-substitutions 0 subtable" ordfeminine
EndChar

StartChar: b
Encoding: 98 98 70
Width: 681
Flags: W
LayerCount: 2
Fore
SplineSet
528.5 504.5 m 128,-1,1
 586 470 586 470 617.5 408 c 128,-1,2
 649 346 649 346 649 265 c 0,3,4
 649 185 649 185 618 124 c 128,-1,5
 587 63 587 63 530 29 c 128,-1,6
 473 -5 473 -5 398 -5 c 0,7,8
 338 -5 338 -5 292 18.5 c 128,-1,9
 246 42 246 42 216 87 c 1,10,-1
 216 0 l 1,11,-1
 86 0 l 1,12,-1
 86 742 l 1,13,-1
 216 742 l 1,14,-1
 216 447 l 1,15,16
 245 492 245 492 290.5 515.5 c 128,-1,17
 336 539 336 539 396 539 c 0,18,0
 471 539 471 539 528.5 504.5 c 128,-1,1
475 152.5 m 128,-1,20
 517 198 517 198 517 269 c 256,21,22
 517 340 517 340 475 385 c 128,-1,23
 433 430 433 430 367 430 c 0,24,25
 300 430 300 430 258 385 c 128,-1,26
 216 340 216 340 216 269 c 0,27,28
 216 197 216 197 258 152 c 128,-1,29
 300 107 300 107 367 107 c 0,30,19
 433 107 433 107 475 152.5 c 128,-1,20
EndSplineSet
Substitution2: "<3,3> Small Caps in Latin lookup 11 subtable" b.sc
EndChar

StartChar: c
Encoding: 99 99 71
Width: 564
Flags: W
LayerCount: 2
Fore
SplineSet
309 425 m 0,1,2
 244 425 244 425 203.5 381 c 128,-1,3
 163 337 163 337 163 267 c 0,4,5
 163 195 163 195 203.5 151 c 128,-1,6
 244 107 244 107 309 107 c 0,7,8
 405 107 405 107 453 170 c 1,9,-1
 534 103 l 1,10,11
 498 51 498 51 439 23 c 128,-1,12
 380 -5 380 -5 302 -5 c 0,13,14
 223 -5 223 -5 161.5 29 c 128,-1,15
 100 63 100 63 66 124.5 c 128,-1,16
 32 186 32 186 32 266 c 0,17,18
 32 347 32 347 66.5 409 c 128,-1,19
 101 471 101 471 162.5 505 c 128,-1,20
 224 539 224 539 304 539 c 0,21,22
 377 539 377 539 434.5 513.5 c 128,-1,23
 492 488 492 488 528 441 c 1,24,-1
 449 366 l 1,25,0
 395 425 395 425 309 425 c 0,1,2
EndSplineSet
Substitution2: "<3,3> Small Caps in Latin lookup 11 subtable" c.sc
EndChar

StartChar: d
Encoding: 100 100 72
Width: 683
Flags: W
LayerCount: 2
Fore
SplineSet
597 742 m 1,0,-1
 597 0 l 1,1,-1
 467 0 l 1,2,-1
 467 86 l 1,3,4
 438 41 438 41 392.5 17.5 c 128,-1,5
 347 -6 347 -6 287 -6 c 0,6,7
 211 -6 211 -6 153.5 28.5 c 128,-1,8
 96 63 96 63 64 125.5 c 128,-1,9
 32 188 32 188 32 269 c 0,10,11
 32 349 32 349 63.5 410.5 c 128,-1,12
 95 472 95 472 152.5 506 c 128,-1,13
 210 540 210 540 284 540 c 0,14,15
 345 540 345 540 391 516 c 128,-1,16
 437 492 437 492 467 447 c 1,17,-1
 467 742 l 1,18,-1
 597 742 l 1,0,-1
424.5 148.5 m 128,-1,20
 467 194 467 194 467 266 c 256,21,22
 467 338 467 338 424.5 383.5 c 128,-1,23
 382 429 382 429 315 429 c 256,24,25
 248 429 248 429 206 383.5 c 128,-1,26
 164 338 164 338 163 266 c 0,27,28
 164 194 164 194 206 148.5 c 128,-1,29
 248 103 248 103 315 103 c 256,30,19
 382 103 382 103 424.5 148.5 c 128,-1,20
EndSplineSet
Substitution2: "<3,3> Small Caps in Latin lookup 11 subtable" d.sc
EndChar

StartChar: e
Encoding: 101 101 73
Width: 592
Flags: W
LayerCount: 2
Fore
SplineSet
496.5 466 m 128,-1,1
 561 393 561 393 561 261 c 0,2,3
 561 235 561 235 560 222 c 1,4,-1
 165 222 l 1,5,6
 178 165 178 165 218.5 132.5 c 128,-1,7
 259 100 259 100 318 100 c 0,8,9
 359 100 359 100 396.5 115.5 c 128,-1,10
 434 131 434 131 462 160 c 1,11,-1
 532 87 l 1,12,13
 492 43 492 43 434.5 19 c 128,-1,14
 377 -5 377 -5 307 -5 c 0,15,16
 225 -5 225 -5 162.5 29 c 128,-1,17
 100 63 100 63 66 124.5 c 128,-1,18
 32 186 32 186 32 266 c 256,19,20
 32 346 32 346 66.5 408 c 128,-1,21
 101 470 101 470 163 504.5 c 128,-1,22
 225 539 225 539 304 539 c 0,23,0
 432 539 432 539 496.5 466 c 128,-1,1
442 309 m 1,24,25
 440 368 440 368 403 403 c 128,-1,26
 366 438 366 438 305 438 c 0,27,28
 248 438 248 438 209.5 403.5 c 128,-1,29
 171 369 171 369 162 309 c 1,30,-1
 442 309 l 1,24,25
EndSplineSet
Substitution2: "<3,3> Small Caps in Latin lookup 11 subtable" e.sc
EndChar

StartChar: f
Encoding: 102 102 74
Width: 365
Flags: W
LayerCount: 2
Fore
SplineSet
254.5 619 m 128,-1,1
 235 602 235 602 235 568 c 2,2,-1
 235 513 l 1,3,-1
 369 513 l 1,4,-1
 369 418 l 1,5,-1
 235 418 l 1,6,-1
 235 0 l 1,7,-1
 105 0 l 1,8,-1
 105 418 l 1,9,-1
 35 418 l 1,10,-1
 35 513 l 1,11,-1
 105 513 l 1,12,-1
 105 564 l 2,13,14
 105 623 105 623 131 664.5 c 128,-1,15
 157 706 157 706 200.5 727 c 128,-1,16
 244 748 244 748 295 748 c 0,17,18
 345 748 345 748 393 725 c 1,19,-1
 370 620 l 1,20,21
 330 636 330 636 304 636 c 0,22,0
 274 636 274 636 254.5 619 c 128,-1,1
EndSplineSet
Substitution2: "<3,3> Small Caps in Latin lookup 11 subtable" f.sc
EndChar

StartChar: g
Encoding: 103 103 75
Width: 642
Flags: W
LayerCount: 2
Fore
SplineSet
570 535 m 1,0,-1
 570 51 l 2,1,2
 570 -25 570 -25 535.5 -81.5 c 128,-1,3
 501 -138 501 -138 437.5 -168.5 c 128,-1,4
 374 -199 374 -199 290 -199 c 0,5,6
 168 -199 168 -199 64 -128 c 1,7,-1
 116 -34 l 1,8,9
 192 -90 192 -90 283 -90 c 0,10,11
 355 -90 355 -90 397.5 -53 c 128,-1,12
 440 -16 440 -16 440 48 c 2,13,-1
 440 111 l 1,14,15
 413 70 413 70 370 48.5 c 128,-1,16
 327 27 327 27 270 27 c 0,17,18
 200 27 200 27 146 59.5 c 128,-1,19
 92 92 92 92 62 150.5 c 128,-1,20
 32 209 32 209 32 285 c 0,21,22
 32 360 32 360 62 417.5 c 128,-1,23
 92 475 92 475 146 507 c 128,-1,24
 200 539 200 539 270 539 c 0,25,26
 326 539 326 539 369.5 517 c 128,-1,27
 413 495 413 495 440 455 c 1,28,-1
 440 535 l 1,29,-1
 570 535 l 1,0,-1
400.5 171.5 m 128,-1,31
 440 214 440 214 440 282 c 256,32,33
 440 350 440 350 400.5 392.5 c 128,-1,34
 361 435 361 435 298 435 c 256,35,36
 235 435 235 435 195.5 392 c 128,-1,37
 156 349 156 349 155 282 c 0,38,39
 156 214 156 214 195.5 171.5 c 128,-1,40
 235 129 235 129 298 129 c 256,41,30
 361 129 361 129 400.5 171.5 c 128,-1,31
EndSplineSet
Substitution2: "<3,3> Small Caps in Latin lookup 11 subtable" g.sc
EndChar

StartChar: h
Encoding: 104 104 76
Width: 672
Flags: W
LayerCount: 2
Fore
SplineSet
554 484.5 m 128,-1,1
 607 429 607 429 607 334 c 2,2,-1
 607 0 l 1,3,-1
 476 0 l 1,4,-1
 476 296 l 2,5,6
 476 352 476 352 444 384.5 c 128,-1,7
 412 417 412 417 357 417 c 0,8,9
 292 416 292 416 254 373 c 128,-1,10
 216 330 216 330 216 263 c 2,11,-1
 216 0 l 1,12,-1
 86 0 l 1,13,-1
 86 742 l 1,14,-1
 216 742 l 1,15,-1
 216 433 l 1,16,17
 271 538 271 538 409 540 c 0,18,0
 501 540 501 540 554 484.5 c 128,-1,1
EndSplineSet
Substitution2: "<3,3> Small Caps in Latin lookup 11 subtable" h.sc
EndChar

StartChar: k
Encoding: 107 107 79
Width: 605
Flags: W
LayerCount: 2
Fore
SplineSet
443 0 m 1,0,-1
 298 234 l 1,1,-1
 216 148 l 1,2,-1
 216 0 l 1,3,-1
 86 0 l 1,4,-1
 86 742 l 1,5,-1
 216 742 l 1,6,-1
 216 312 l 1,7,-1
 436 534 l 1,8,-1
 586 534 l 1,9,-1
 388 328 l 1,10,-1
 598 0 l 1,11,-1
 443 0 l 1,0,-1
EndSplineSet
Substitution2: "<3,3> Small Caps in Latin lookup 11 subtable" k.sc
EndChar

StartChar: l
Encoding: 108 108 80
Width: 302
Flags: W
LayerCount: 2
Fore
SplineSet
86 742 m 1,0,-1
 216 742 l 1,1,-1
 216 0 l 1,2,-1
 86 0 l 1,3,-1
 86 742 l 1,0,-1
EndSplineSet
Substitution2: "<3,3> Small Caps in Latin lookup 11 subtable" l.sc
EndChar

StartChar: m
Encoding: 109 109 81
Width: 1041
Flags: W
LayerCount: 2
Fore
SplineSet
925 484.5 m 128,-1,1
 977 429 977 429 977 334 c 2,2,-1
 977 0 l 1,3,-1
 846 0 l 1,4,-1
 846 296 l 2,5,6
 846 353 846 353 814.5 385.5 c 128,-1,7
 783 418 783 418 729 418 c 0,8,9
 667 416 667 416 630.5 373 c 128,-1,10
 594 330 594 330 594 264 c 2,11,-1
 594 0 l 1,12,-1
 463 0 l 1,13,-1
 463 296 l 2,14,15
 463 353 463 353 432 385.5 c 128,-1,16
 401 418 401 418 347 418 c 0,17,18
 284 416 284 416 247.5 373 c 128,-1,19
 211 330 211 330 211 264 c 2,20,-1
 211 0 l 1,21,-1
 81 0 l 1,22,-1
 81 535 l 1,23,-1
 211 535 l 1,24,-1
 211 436 l 1,25,26
 264 538 264 538 399 540 c 0,27,28
 469 540 469 540 516.5 506.5 c 128,-1,29
 564 473 564 473 583 412 c 1,30,31
 634 538 634 538 782 540 c 0,32,0
 873 540 873 540 925 484.5 c 128,-1,1
EndSplineSet
Substitution2: "<3,3> Small Caps in Latin lookup 11 subtable" m.sc
EndChar

StartChar: n
Encoding: 110 110 82
Width: 666
Flags: W
LayerCount: 2
Fore
SplineSet
548 484.5 m 128,-1,1
 601 429 601 429 601 334 c 2,2,-1
 601 0 l 1,3,-1
 470 0 l 1,4,-1
 470 296 l 2,5,6
 470 352 470 352 438 384.5 c 128,-1,7
 406 417 406 417 351 417 c 0,8,9
 286 416 286 416 248.5 373 c 128,-1,10
 211 330 211 330 211 263 c 2,11,-1
 211 0 l 1,12,-1
 81 0 l 1,13,-1
 81 535 l 1,14,-1
 211 535 l 1,15,-1
 211 435 l 1,16,17
 266 538 266 538 403 540 c 0,18,0
 495 540 495 540 548 484.5 c 128,-1,1
EndSplineSet
Substitution2: "<3,3> Small Caps in Latin lookup 11 subtable" n.sc
EndChar

StartChar: o
Encoding: 111 111 83
Width: 628
Flags: W
LayerCount: 2
Fore
SplineSet
461.5 505 m 128,-1,1
 525 471 525 471 560.5 409.5 c 128,-1,2
 596 348 596 348 596 268 c 0,3,4
 596 187 596 187 560.5 125 c 128,-1,5
 525 63 525 63 461.5 29 c 128,-1,6
 398 -5 398 -5 315 -5 c 0,7,8
 231 -5 231 -5 167 29 c 128,-1,9
 103 63 103 63 67.5 125 c 128,-1,10
 32 187 32 187 32 268 c 0,11,12
 32 348 32 348 67.5 409.5 c 128,-1,13
 103 471 103 471 167 505 c 128,-1,14
 231 539 231 539 315 539 c 0,15,0
 398 539 398 539 461.5 505 c 128,-1,1
205 383 m 128,-1,17
 163 338 163 338 163 266 c 256,18,19
 163 194 163 194 205 149 c 128,-1,20
 247 104 247 104 315 104 c 0,21,22
 381 104 381 104 423 149 c 128,-1,23
 465 194 465 194 465 266 c 256,24,25
 465 338 465 338 423 383 c 128,-1,26
 381 428 381 428 315 428 c 0,27,16
 247 428 247 428 205 383 c 128,-1,17
EndSplineSet
Substitution2: "<3,3> Small Caps in Latin lookup 11 subtable" o.sc
Substitution2: "<11,2> Diagonal Fractions lookup 7 nested-substitutions 0 subtable" ordmasculine
Substitution2: "<11,2> Diagonal Fractions lookup 5 nested-substitutions 0 subtable" ordmasculine
EndChar

StartChar: p
Encoding: 112 112 84
Width: 681
Flags: W
LayerCount: 2
Fore
SplineSet
528.5 504.5 m 128,-1,1
 586 470 586 470 617.5 408 c 128,-1,2
 649 346 649 346 649 265 c 0,3,4
 649 185 649 185 618 124 c 128,-1,5
 587 63 587 63 530 29 c 128,-1,6
 473 -5 473 -5 398 -5 c 0,7,8
 338 -5 338 -5 292 18.5 c 128,-1,9
 246 42 246 42 216 87 c 1,10,-1
 216 -194 l 1,11,-1
 86 -194 l 1,12,-1
 86 535 l 1,13,-1
 216 535 l 1,14,-1
 216 447 l 1,15,16
 245 492 245 492 290.5 515.5 c 128,-1,17
 336 539 336 539 396 539 c 0,18,0
 471 539 471 539 528.5 504.5 c 128,-1,1
475 152.5 m 128,-1,20
 517 198 517 198 517 269 c 256,21,22
 517 340 517 340 475 385 c 128,-1,23
 433 430 433 430 367 430 c 0,24,25
 300 430 300 430 258 385 c 128,-1,26
 216 340 216 340 216 269 c 0,27,28
 216 197 216 197 258 152 c 128,-1,29
 300 107 300 107 367 107 c 0,30,19
 433 107 433 107 475 152.5 c 128,-1,20
EndSplineSet
Substitution2: "<3,3> Small Caps in Latin lookup 11 subtable" p.sc
EndChar

StartChar: q
Encoding: 113 113 85
Width: 683
Flags: W
LayerCount: 2
Fore
SplineSet
597 535 m 1,0,-1
 597 -194 l 1,1,-1
 467 -194 l 1,2,-1
 467 86 l 1,3,4
 438 41 438 41 392.5 17.5 c 128,-1,5
 347 -6 347 -6 287 -6 c 0,6,7
 211 -6 211 -6 153.5 28.5 c 128,-1,8
 96 63 96 63 64 125.5 c 128,-1,9
 32 188 32 188 32 269 c 0,10,11
 32 349 32 349 63.5 410.5 c 128,-1,12
 95 472 95 472 152.5 506 c 128,-1,13
 210 540 210 540 284 540 c 0,14,15
 345 540 345 540 391 516 c 128,-1,16
 437 492 437 492 467 447 c 1,17,-1
 467 535 l 1,18,-1
 597 535 l 1,0,-1
424.5 148.5 m 128,-1,20
 467 194 467 194 467 266 c 256,21,22
 467 338 467 338 424.5 383.5 c 128,-1,23
 382 429 382 429 315 429 c 256,24,25
 248 429 248 429 206 383.5 c 128,-1,26
 164 338 164 338 163 266 c 0,27,28
 164 194 164 194 206 148.5 c 128,-1,29
 248 103 248 103 315 103 c 256,30,19
 382 103 382 103 424.5 148.5 c 128,-1,20
EndSplineSet
Substitution2: "<3,3> Small Caps in Latin lookup 11 subtable" q.sc
EndChar

StartChar: r
Encoding: 114 114 86
Width: 403
Flags: W
LayerCount: 2
Fore
SplineSet
284.5 511.5 m 128,-1,1
 331 539 331 539 393 540 c 1,2,-1
 393 414 l 1,3,4
 310 419 310 419 260.5 375.5 c 128,-1,5
 211 332 211 332 211 258 c 2,6,-1
 211 0 l 1,7,-1
 81 0 l 1,8,-1
 81 535 l 1,9,-1
 211 535 l 1,10,-1
 211 432 l 1,11,0
 238 484 238 484 284.5 511.5 c 128,-1,1
EndSplineSet
Substitution2: "<3,3> Small Caps in Latin lookup 11 subtable" r.sc
EndChar

StartChar: s
Encoding: 115 115 87
Width: 482
Flags: W
LayerCount: 2
Fore
SplineSet
317.5 426 m 128,-1,1
 276 439 276 439 241 439 c 0,2,3
 208 439 208 439 188.5 427.5 c 128,-1,4
 169 416 169 416 169 392 c 0,5,6
 169 367 169 367 193.5 353.5 c 128,-1,7
 218 340 218 340 271 325 c 0,8,9
 327 308 327 308 363 291.5 c 128,-1,10
 399 275 399 275 425.5 242.5 c 128,-1,11
 452 210 452 210 452 157 c 0,12,13
 452 79 452 79 392 37 c 128,-1,14
 332 -5 332 -5 241 -5 c 0,15,16
 179 -5 179 -5 120 14.5 c 128,-1,17
 61 34 61 34 20 70 c 1,18,-1
 65 161 l 1,19,20
 101 130 101 130 151 112.5 c 128,-1,21
 201 95 201 95 246 95 c 0,22,23
 282 95 282 95 303.5 107.5 c 128,-1,24
 325 120 325 120 325 145 c 0,25,26
 325 173 325 173 300 187 c 128,-1,27
 275 201 275 201 219 218 c 0,28,29
 165 234 165 234 131 249.5 c 128,-1,30
 97 265 97 265 72 296.5 c 128,-1,31
 47 328 47 328 47 379 c 0,32,33
 47 458 47 458 104.5 499.5 c 128,-1,34
 162 541 162 541 249 541 c 0,35,36
 302 541 302 541 353.5 526 c 128,-1,37
 405 511 405 511 445 484 c 1,38,-1
 398 390 l 1,39,0
 359 413 359 413 317.5 426 c 128,-1,1
EndSplineSet
Substitution2: "<3,3> Small Caps in Latin lookup 11 subtable" s.sc
EndChar

StartChar: t
Encoding: 116 116 88
Width: 415
Flags: W
LayerCount: 2
Fore
SplineSet
394 33 m 1,0,1
 330 -6 330 -6 260 -6 c 0,2,3
 191 -6 191 -6 147 34.5 c 128,-1,4
 103 75 103 75 103 154 c 2,5,-1
 103 418 l 1,6,-1
 28 418 l 1,7,-1
 27 513 l 1,8,-1
 103 513 l 1,9,-1
 103 660 l 1,10,-1
 232 660 l 1,11,-1
 232 513 l 1,12,-1
 385 513 l 1,13,-1
 385 418 l 1,14,-1
 232 418 l 1,15,-1
 232 177 l 2,16,17
 232 140 232 140 246 124.5 c 128,-1,18
 260 109 260 109 288 109 c 0,19,20
 318 109 318 109 364 131 c 1,21,-1
 394 33 l 1,0,1
EndSplineSet
Substitution2: "<3,3> Small Caps in Latin lookup 11 subtable" t.sc
EndChar

StartChar: u
Encoding: 117 117 89
Width: 656
Flags: W
LayerCount: 2
Fore
SplineSet
575 535 m 1,0,-1
 575 0 l 1,1,-1
 444 0 l 1,2,-1
 444 99 l 1,3,4
 390 -5 390 -5 258 -5 c 0,5,6
 168 -5 168 -5 116 50 c 128,-1,7
 64 105 64 105 64 200 c 2,8,-1
 64 535 l 1,9,-1
 195 535 l 1,10,-1
 195 238 l 2,11,12
 195 182 195 182 225.5 150 c 128,-1,13
 256 118 256 118 310 118 c 0,14,15
 372 119 372 119 408 162 c 128,-1,16
 444 205 444 205 444 271 c 2,17,-1
 444 535 l 1,18,-1
 575 535 l 1,0,-1
EndSplineSet
Substitution2: "<3,3> Small Caps in Latin lookup 11 subtable" u.sc
EndChar

StartChar: v
Encoding: 118 118 90
Width: 537
Flags: W
LayerCount: 2
Fore
SplineSet
-1 534 m 1,0,-1
 135 535 l 1,1,-1
 275 128 l 1,2,-1
 412 535 l 1,3,-1
 543 535 l 1,4,-1
 339 0 l 1,5,-1
 205 0 l 1,6,-1
 -1 534 l 1,0,-1
EndSplineSet
Substitution2: "<3,3> Small Caps in Latin lookup 11 subtable" v.sc
EndChar

StartChar: w
Encoding: 119 119 91
Width: 905
Flags: W
LayerCount: 2
Fore
SplineSet
-1 534 m 1,0,-1
 133 535 l 1,1,-1
 264 131 l 1,2,-1
 391 535 l 1,3,-1
 522 535 l 1,4,-1
 651 131 l 1,5,-1
 779 535 l 1,6,-1
 910 535 l 1,7,-1
 716 0 l 1,8,-1
 583 0 l 1,9,-1
 455 377 l 1,10,-1
 328 0 l 1,11,-1
 195 0 l 1,12,-1
 -1 534 l 1,0,-1
EndSplineSet
Substitution2: "<3,3> Small Caps in Latin lookup 11 subtable" w.sc
EndChar

StartChar: x
Encoding: 120 120 92
Width: 568
Flags: W
LayerCount: 2
Fore
SplineSet
24 535 m 1,0,-1
 174 535 l 1,1,-1
 285 361 l 1,2,-1
 399 535 l 1,3,-1
 542 535 l 1,4,-1
 372 274 l 1,5,-1
 554 0 l 1,6,-1
 404 0 l 1,7,-1
 285 187 l 1,8,-1
 156 0 l 1,9,-1
 11 0 l 1,10,-1
 198 274 l 1,11,-1
 24 535 l 1,0,-1
EndSplineSet
Substitution2: "<3,3> Small Caps in Latin lookup 11 subtable" x.sc
EndChar

StartChar: y
Encoding: 121 121 93
Width: 544
Flags: W
LayerCount: 2
Fore
SplineSet
238.5 -166.5 m 128,-1,1
 192 -200 192 -200 128 -200 c 0,2,3
 89 -200 89 -200 57.5 -188.5 c 128,-1,4
 26 -177 26 -177 -5 -152 c 1,5,-1
 51 -53 l 1,6,7
 70 -67 70 -67 86 -73.5 c 128,-1,8
 102 -80 102 -80 120 -80 c 0,9,10
 173 -80 173 -80 198 -26 c 2,11,-1
 214 9 l 1,12,-1
 -7 535 l 1,13,-1
 128 535 l 1,14,-1
 280 146 l 1,15,-1
 419 535 l 1,16,-1
 550 535 l 1,17,-1
 310 -67 l 2,18,0
 285 -133 285 -133 238.5 -166.5 c 128,-1,1
EndSplineSet
Substitution2: "<3,3> Small Caps in Latin lookup 11 subtable" y.sc
EndChar

StartChar: z
Encoding: 122 122 94
Width: 541
Flags: W
LayerCount: 2
Fore
SplineSet
52 534 m 1,0,-1
 498 534 l 1,1,-1
 498 448 l 1,2,-1
 204 106 l 1,3,-1
 506 105 l 1,4,-1
 506 -1 l 1,5,-1
 42 0 l 1,6,-1
 42 86 l 1,7,-1
 336 428 l 1,8,-1
 52 429 l 1,9,-1
 52 534 l 1,0,-1
EndSplineSet
Substitution2: "<3,3> Small Caps in Latin lookup 11 subtable" z.sc
EndChar

StartChar: braceleft
Encoding: 123 123 95
Width: 350
Flags: W
LayerCount: 2
Fore
SplineSet
215.5 357.5 m 128,-1,1
 199 339 199 339 174 326 c 128,-1,2
 149 313 149 313 140 309 c 1,3,-1
 159 299 l 2,4,5
 188 284 188 284 202 274 c 128,-1,6
 216 264 216 264 224 245.5 c 128,-1,7
 232 227 232 227 232 196 c 2,8,-1
 232 46 l 2,9,10
 232 9 232 9 252.5 -6.5 c 128,-1,11
 273 -22 273 -22 325 -22 c 1,12,-1
 325 -126 l 1,13,-1
 275 -126 l 2,14,15
 188 -126 188 -126 151 -96 c 128,-1,16
 114 -66 114 -66 114 6 c 2,17,-1
 114 205 l 2,18,19
 114 232 114 232 104.5 243.5 c 128,-1,20
 95 255 95 255 73 255 c 2,21,-1
 40 255 l 1,22,-1
 40 362 l 1,23,-1
 73 362 l 2,24,25
 95 362 95 362 104.5 373.5 c 128,-1,26
 114 385 114 385 114 412 c 2,27,-1
 114 611 l 2,28,29
 114 683 114 683 151 713 c 128,-1,30
 188 743 188 743 275 743 c 2,31,-1
 325 743 l 1,32,-1
 325 639 l 1,33,34
 273 639 273 639 252.5 623.5 c 128,-1,35
 232 608 232 608 232 571 c 2,36,-1
 232 420 l 2,37,0
 232 376 232 376 215.5 357.5 c 128,-1,1
EndSplineSet
Substitution2: "'rtla' Right to Left Alternates in Latin lookup 0 subtable" braceright
EndChar

StartChar: bar
Encoding: 124 124 96
Width: 277
Flags: W
LayerCount: 2
Fore
SplineSet
89 808 m 1,0,-1
 188 808 l 1,1,-1
 188 -114 l 1,2,-1
 89 -114 l 1,3,-1
 89 808 l 1,0,-1
EndSplineSet
EndChar

StartChar: braceright
Encoding: 125 125 97
Width: 350
Flags: W
LayerCount: 2
Fore
SplineSet
310 362 m 1,0,-1
 310 255 l 1,1,-1
 277 255 l 2,2,3
 255 255 255 255 245.5 243.5 c 128,-1,4
 236 232 236 232 236 205 c 2,5,-1
 236 6 l 2,6,7
 236 -66 236 -66 199 -96 c 128,-1,8
 162 -126 162 -126 75 -126 c 2,9,-1
 25 -126 l 1,10,-1
 25 -22 l 1,11,12
 77 -22 77 -22 97.5 -6.5 c 128,-1,13
 118 9 118 9 118 46 c 2,14,-1
 118 196 l 2,15,16
 118 227 118 227 126 245.5 c 128,-1,17
 134 264 134 264 148 274 c 128,-1,18
 162 284 162 284 191 299 c 2,19,-1
 210 309 l 1,20,21
 201 313 201 313 171 328.5 c 128,-1,22
 141 344 141 344 129.5 365 c 128,-1,23
 118 386 118 386 118 420 c 2,24,-1
 118 571 l 2,25,26
 118 608 118 608 97.5 623.5 c 128,-1,27
 77 639 77 639 25 639 c 1,28,-1
 25 743 l 1,29,-1
 75 743 l 2,30,31
 162 743 162 743 199 713 c 128,-1,32
 236 683 236 683 236 611 c 2,33,-1
 236 412 l 2,34,35
 236 385 236 385 245.5 373.5 c 128,-1,36
 255 362 255 362 277 362 c 2,37,-1
 310 362 l 1,0,-1
EndSplineSet
Substitution2: "'rtla' Right to Left Alternates in Latin lookup 0 subtable" braceleft
EndChar

StartChar: asciitilde
Encoding: 126 126 98
Width: 501
Flags: W
LayerCount: 2
Fore
SplineSet
338 245 m 0,1,2
 312 245 312 245 290 254 c 128,-1,3
 268 263 268 263 244 278 c 0,4,5
 223 289 223 289 212 294 c 128,-1,6
 201 299 201 299 190 299 c 0,7,8
 153 299 153 299 153 250 c 1,9,-1
 64 250 l 1,10,11
 64 401 64 401 165 401 c 0,12,13
 189 401 189 401 209 392.5 c 128,-1,14
 229 384 229 384 257 368 c 0,15,16
 278 356 278 356 289.5 351 c 128,-1,17
 301 346 301 346 312 346 c 0,18,19
 349 346 349 346 349 395 c 1,20,-1
 438 395 l 1,21,0
 438 245 438 245 338 245 c 0,1,2
EndSplineSet
EndChar

StartChar: exclamdown
Encoding: 161 161 100
Width: 222
Flags: W
LayerCount: 2
Fore
SplineSet
75.5 419 m 128,-1,1
 56 439 56 439 56 470 c 0,2,3
 56 502 56 502 75.5 522.5 c 128,-1,4
 95 543 95 543 125 543 c 0,5,6
 154 543 154 543 173.5 522 c 128,-1,7
 193 501 193 501 193 470 c 256,8,9
 193 439 193 439 173.5 419 c 128,-1,10
 154 399 154 399 125 399 c 0,11,0
 95 399 95 399 75.5 419 c 128,-1,1
187 -159 m 1,12,-1
 62 -159 l 1,13,-1
 62 15 l 1,14,-1
 84 306 l 1,15,-1
 165 306 l 1,16,-1
 187 15 l 1,17,-1
 187 -159 l 1,12,-1
EndSplineSet
Substitution2: "<3,3> Small Caps in Latin lookup 11 subtable" exclamdown.sc
EndChar

StartChar: cent
Encoding: 162 162 101
Width: 600
Flags: W
LayerCount: 2
Fore
SplineSet
356 -1 m 1,1,-1
 356 -145 l 1,2,-1
 257 -145 l 1,3,-1
 257 -2 l 1,4,5
 190 7 190 7 139 43.5 c 128,-1,6
 88 80 88 80 60 137 c 128,-1,7
 32 194 32 194 32 266 c 0,8,9
 32 375 32 375 93.5 448 c 128,-1,10
 155 521 155 521 257 536 c 1,11,-1
 257 689 l 1,12,-1
 356 689 l 1,13,-1
 356 535 l 1,14,15
 411 528 411 528 455 503.5 c 128,-1,16
 499 479 499 479 528 441 c 1,17,-1
 449 366 l 1,18,19
 395 425 395 425 309 425 c 0,20,21
 244 425 244 425 203.5 381 c 128,-1,22
 163 337 163 337 163 267 c 0,23,24
 163 195 163 195 203.5 151 c 128,-1,25
 244 107 244 107 309 107 c 0,26,27
 405 107 405 107 453 170 c 1,28,-1
 534 103 l 1,29,0
 473 15 473 15 356 -1 c 1,1,-1
EndSplineSet
EndChar

StartChar: sterling
Encoding: 163 163 102
Width: 551
Flags: W
LayerCount: 2
Fore
SplineSet
250 109 m 1,0,-1
 524 109 l 1,1,-1
 524 0 l 1,2,-1
 35 0 l 1,3,-1
 35 109 l 1,4,-1
 116 109 l 1,5,-1
 116 318 l 1,6,-1
 35 318 l 1,7,-1
 35 380 l 1,8,-1
 116 380 l 1,9,-1
 116 480 l 2,10,11
 116 588 116 588 173 647 c 128,-1,12
 230 706 230 706 336 706 c 0,13,14
 394 706 394 706 446 683 c 128,-1,15
 498 660 498 660 537 617 c 1,16,-1
 485 513 l 1,17,18
 420 586 420 586 349 586 c 0,19,20
 301 586 301 586 275.5 558.5 c 128,-1,21
 250 531 250 531 250 477 c 2,22,-1
 250 380 l 1,23,-1
 424 380 l 1,24,-1
 424 318 l 1,25,-1
 250 318 l 1,26,-1
 250 109 l 1,0,-1
EndSplineSet
EndChar

StartChar: currency
Encoding: 164 164 103
Width: 708
Flags: W
LayerCount: 2
Fore
SplineSet
575 174 m 1,1,-1
 676 73 l 1,2,-1
 602 -5 l 1,3,-1
 496 100 l 1,4,5
 431 59 431 59 354 59 c 256,6,7
 277 59 277 59 212 100 c 1,8,-1
 106 -5 l 1,9,-1
 32 73 l 1,10,-1
 133 174 l 1,11,12
 88 242 88 242 88 320 c 256,13,14
 88 398 88 398 131 463 c 1,15,-1
 32 562 l 1,16,-1
 106 641 l 1,17,-1
 208 539 l 1,18,19
 275 582 275 582 354 582 c 256,20,21
 433 582 433 582 500 539 c 1,22,-1
 602 641 l 1,23,-1
 676 562 l 1,24,-1
 577 463 l 1,25,26
 621 399 621 399 621 320 c 256,27,0
 621 241 621 241 575 174 c 1,1,-1
436 189.5 m 128,-1,29
 474 210 474 210 496 244.5 c 128,-1,30
 518 279 518 279 518 320 c 256,31,32
 518 361 518 361 496 396.5 c 128,-1,33
 474 432 474 432 436 452.5 c 128,-1,34
 398 473 398 473 354 473 c 256,35,36
 310 473 310 473 272.5 452.5 c 128,-1,37
 235 432 235 432 213 396.5 c 128,-1,38
 191 361 191 361 191 320 c 256,39,40
 191 279 191 279 213 244.5 c 128,-1,41
 235 210 235 210 272.5 189.5 c 128,-1,42
 310 169 310 169 354 169 c 256,43,28
 398 169 398 169 436 189.5 c 128,-1,29
EndSplineSet
EndChar

StartChar: yen
Encoding: 165 165 104
Width: 650
Flags: W
LayerCount: 2
Fore
SplineSet
650 700 m 1,0,-1
 437 308 l 1,1,-1
 592 308 l 1,2,-1
 592 245 l 1,3,-1
 403 245 l 1,4,-1
 395 230 l 1,5,-1
 395 189 l 1,6,-1
 592 189 l 1,7,-1
 592 126 l 1,8,-1
 395 126 l 1,9,-1
 395 0 l 1,10,-1
 260 0 l 1,11,-1
 260 126 l 1,12,-1
 62 126 l 1,13,-1
 62 189 l 1,14,-1
 260 189 l 1,15,-1
 260 226 l 1,16,-1
 249 245 l 1,17,-1
 62 245 l 1,18,-1
 62 308 l 1,19,-1
 215 308 l 1,20,-1
 0 700 l 1,21,-1
 135 700 l 1,22,-1
 327 371 l 1,23,-1
 514 700 l 1,24,-1
 650 700 l 1,0,-1
EndSplineSet
EndChar

StartChar: brokenbar
Encoding: 166 166 105
Width: 277
Flags: W
LayerCount: 2
Fore
SplineSet
89 808 m 1,0,-1
 188 808 l 1,1,-1
 188 463 l 1,2,-1
 89 463 l 1,3,-1
 89 808 l 1,0,-1
89 231 m 1,4,-1
 188 231 l 1,5,-1
 188 -114 l 1,6,-1
 89 -114 l 1,7,-1
 89 231 l 1,4,-1
EndSplineSet
EndChar

StartChar: section
Encoding: 167 167 106
Width: 511
Flags: W
LayerCount: 2
Fore
SplineSet
266 602 m 0,1,2
 226 602 226 602 202.5 587.5 c 128,-1,3
 179 573 179 573 179 550 c 0,4,5
 179 520 179 520 207.5 504 c 128,-1,6
 236 488 236 488 298 469 c 0,7,8
 356 451 356 451 392.5 434.5 c 128,-1,9
 429 418 429 418 455.5 386.5 c 128,-1,10
 482 355 482 355 482 306 c 0,11,12
 482 263 482 263 452 227 c 128,-1,13
 422 191 422 191 377 176 c 1,14,15
 420 156 420 156 439 131.5 c 128,-1,16
 458 107 458 107 458 66 c 0,17,18
 458 22 458 22 431.5 -12.5 c 128,-1,19
 405 -47 405 -47 357 -66.5 c 128,-1,20
 309 -86 309 -86 247 -86 c 256,21,22
 185 -86 185 -86 125.5 -66.5 c 128,-1,23
 66 -47 66 -47 20 -10 c 1,24,-1
 58 75 l 1,25,26
 103 42 103 42 151 24.5 c 128,-1,27
 199 7 199 7 244 7 c 0,28,29
 286 7 286 7 312.5 23 c 128,-1,30
 339 39 339 39 339 63 c 0,31,32
 339 92 339 92 311 107.5 c 128,-1,33
 283 123 283 123 222 143 c 0,34,35
 164 162 164 162 127.5 178.5 c 128,-1,36
 91 195 91 195 65 226 c 128,-1,37
 39 257 39 257 39 305 c 0,38,39
 39 351 39 351 70.5 384.5 c 128,-1,40
 102 418 102 418 157 433 c 1,41,42
 105 456 105 456 84.5 481.5 c 128,-1,43
 64 507 64 507 64 545 c 0,44,45
 64 588 64 588 88.5 622 c 128,-1,46
 113 656 113 656 159 675 c 128,-1,47
 205 694 205 694 265 694 c 0,48,49
 370 694 370 694 464 638 c 1,50,-1
 423 554 l 1,51,0
 336 602 336 602 266 602 c 0,1,2
178 353.5 m 128,-1,53
 154 339 154 339 154 313 c 0,54,55
 154 282 154 282 188.5 262 c 128,-1,56
 223 242 223 242 274 242 c 0,57,58
 318 242 318 242 341.5 257.5 c 128,-1,59
 365 273 365 273 365 299 c 0,60,61
 365 329 365 329 331.5 348.5 c 128,-1,62
 298 368 298 368 247 368 c 0,63,52
 202 368 202 368 178 353.5 c 128,-1,53
EndSplineSet
EndChar

StartChar: copyright
Encoding: 169 169 108
Width: 740
Flags: W
LayerCount: 2
Fore
SplineSet
540.5 643.5 m 128,-1,1
 618 598 618 598 663 520 c 128,-1,2
 708 442 708 442 708 350 c 0,3,4
 708 259 708 259 663 180.5 c 128,-1,5
 618 102 618 102 540 55.5 c 128,-1,6
 462 9 462 9 368 9 c 0,7,8
 275 9 275 9 197.5 55 c 128,-1,9
 120 101 120 101 75.5 179 c 128,-1,10
 31 257 31 257 31 348 c 256,11,12
 31 439 31 439 76 517.5 c 128,-1,13
 121 596 121 596 198.5 642.5 c 128,-1,14
 276 689 276 689 370 689 c 0,15,0
 463 689 463 689 540.5 643.5 c 128,-1,1
230.5 585.5 m 128,-1,17
 167 548 167 548 130.5 485 c 128,-1,18
 94 422 94 422 94 348 c 256,19,20
 94 274 94 274 130 211.5 c 128,-1,21
 166 149 166 149 229 112 c 128,-1,22
 292 75 292 75 368 75 c 0,23,24
 445 75 445 75 508.5 112 c 128,-1,25
 572 149 572 149 608.5 212.5 c 128,-1,26
 645 276 645 276 645 350 c 256,27,28
 645 424 645 424 608.5 486.5 c 128,-1,29
 572 549 572 549 509 586 c 128,-1,30
 446 623 446 623 370 623 c 256,31,16
 294 623 294 623 230.5 585.5 c 128,-1,17
425 448.5 m 128,-1,33
 401 460 401 460 377 460 c 0,34,35
 329 460 329 460 296.5 428.5 c 128,-1,36
 264 397 264 397 264 350 c 256,37,38
 264 303 264 303 296.5 271 c 128,-1,39
 329 239 329 239 377 239 c 0,40,41
 400 239 400 239 424.5 249.5 c 128,-1,42
 449 260 449 260 468 278 c 1,43,-1
 507 235 l 1,44,45
 481 209 481 209 445 193.5 c 128,-1,46
 409 178 409 178 373 178 c 0,47,48
 324 178 324 178 284 200.5 c 128,-1,49
 244 223 244 223 220.5 262 c 128,-1,50
 197 301 197 301 197 349 c 0,51,52
 197 396 197 396 220.5 435 c 128,-1,53
 244 474 244 474 285 496.5 c 128,-1,54
 326 519 326 519 376 519 c 0,55,56
 412 519 412 519 446.5 504.5 c 128,-1,57
 481 490 481 490 507 464 c 1,58,-1
 468 417 l 1,59,32
 449 437 449 437 425 448.5 c 128,-1,33
EndSplineSet
EndChar

StartChar: ordfeminine
Encoding: 170 170 109
Width: 387
Flags: W
LayerCount: 2
Fore
SplineSet
251 458 m 1,0,-1
 251 505 l 1,1,2
 234 480 234 480 205.5 467 c 128,-1,3
 177 454 177 454 140 454 c 0,4,5
 89 454 89 454 59 480.5 c 128,-1,6
 29 507 29 507 29 551 c 0,7,8
 29 596 29 596 62.5 619.5 c 128,-1,9
 96 643 96 643 157 644 c 2,10,-1
 251 644 l 1,11,-1
 251 655 l 2,12,13
 250 681 250 681 232 695 c 128,-1,14
 214 709 214 709 179 709 c 0,15,16
 130 709 130 709 72 681 c 1,17,-1
 49 744 l 1,18,19
 131 780 131 780 199 780 c 0,20,21
 266 780 266 780 303.5 749.5 c 128,-1,22
 341 719 341 719 340 666 c 2,23,-1
 341 458 l 1,24,-1
 251 458 l 1,0,-1
251 560 m 1,26,-1
 251 598 l 1,27,-1
 175 598 l 2,28,29
 147 598 147 598 131.5 588 c 128,-1,30
 116 578 116 578 116 559 c 0,31,32
 116 539 116 539 130.5 527 c 128,-1,33
 145 515 145 515 170 515 c 0,34,25
 227 515 227 515 251 560 c 1,26,-1
EndSplineSet
EndChar

StartChar: logicalnot
Encoding: 172 172 111
Width: 566
Flags: W
LayerCount: 2
Fore
SplineSet
494 412 m 1,0,-1
 494 142 l 1,1,-1
 398 142 l 1,2,-1
 398 322 l 1,3,-1
 35 322 l 1,4,-1
 35 412 l 1,5,-1
 494 412 l 1,0,-1
EndSplineSet
EndChar

StartChar: uni00AD
Encoding: 173 173 112
Width: 370
Flags: W
LayerCount: 2
Fore
SplineSet
59 350 m 1,0,-1
 310 350 l 1,1,-1
 310 260 l 1,2,-1
 59 260 l 1,3,-1
 59 350 l 1,0,-1
EndSplineSet
EndChar

StartChar: registered
Encoding: 174 174 113
Width: 740
Flags: W
LayerCount: 2
Fore
SplineSet
540.5 643.5 m 128,-1,1
 618 598 618 598 663 520 c 128,-1,2
 708 442 708 442 708 350 c 0,3,4
 708 259 708 259 663 180.5 c 128,-1,5
 618 102 618 102 540 55.5 c 128,-1,6
 462 9 462 9 368 9 c 0,7,8
 275 9 275 9 197.5 55 c 128,-1,9
 120 101 120 101 75.5 179 c 128,-1,10
 31 257 31 257 31 348 c 256,11,12
 31 439 31 439 76 517.5 c 128,-1,13
 121 596 121 596 198.5 642.5 c 128,-1,14
 276 689 276 689 370 689 c 0,15,0
 463 689 463 689 540.5 643.5 c 128,-1,1
508.5 112 m 128,-1,17
 572 149 572 149 608.5 212.5 c 128,-1,18
 645 276 645 276 645 350 c 256,19,20
 645 424 645 424 608.5 486.5 c 128,-1,21
 572 549 572 549 509 586 c 128,-1,22
 446 623 446 623 370 623 c 256,23,24
 294 623 294 623 230.5 585.5 c 128,-1,25
 167 548 167 548 130.5 485 c 128,-1,26
 94 422 94 422 94 348 c 256,27,28
 94 274 94 274 130 211.5 c 128,-1,29
 166 149 166 149 229 112 c 128,-1,30
 292 75 292 75 368 75 c 0,31,16
 445 75 445 75 508.5 112 c 128,-1,17
496.5 344.5 m 128,-1,33
 479 317 479 317 447 303 c 1,34,-1
 521 193 l 1,35,-1
 449 193 l 1,36,-1
 390 291 l 1,37,-1
 378 291 l 1,38,-1
 304 291 l 1,39,-1
 304 193 l 1,40,-1
 241 193 l 1,41,-1
 241 525 l 1,42,-1
 378 525 l 2,43,44
 443 525 443 525 478.5 495.5 c 128,-1,45
 514 466 514 466 514 411 c 0,46,32
 514 372 514 372 496.5 344.5 c 128,-1,33
304 344 m 1,47,-1
 378 344 l 2,48,49
 414 344 414 344 434 361.5 c 128,-1,50
 454 379 454 379 454 410 c 256,51,52
 454 441 454 441 434 457 c 128,-1,53
 414 473 414 473 378 473 c 2,54,-1
 304 473 l 1,55,-1
 304 344 l 1,47,-1
EndSplineSet
EndChar

StartChar: degree
Encoding: 176 176 115
Width: 354
Flags: W
LayerCount: 2
Fore
SplineSet
281 778 m 128,-1,1
 316 744 316 744 316 696 c 0,2,3
 316 649 316 649 281 615 c 128,-1,4
 246 581 246 581 198 581 c 256,5,6
 150 581 150 581 115.5 615 c 128,-1,7
 81 649 81 649 81 696 c 0,8,9
 81 744 81 744 115.5 778 c 128,-1,10
 150 812 150 812 198 812 c 256,11,0
 246 812 246 812 281 778 c 128,-1,1
153.5 738.5 m 128,-1,13
 135 721 135 721 135 696 c 0,14,15
 135 672 135 672 153.5 654.5 c 128,-1,16
 172 637 172 637 198 637 c 256,17,18
 224 637 224 637 243 654.5 c 128,-1,19
 262 672 262 672 262 696 c 0,20,21
 262 721 262 721 243 738.5 c 128,-1,22
 224 756 224 756 198 756 c 256,23,12
 172 756 172 756 153.5 738.5 c 128,-1,13
EndSplineSet
EndChar

StartChar: plusminus
Encoding: 177 177 116
Width: 501
Flags: W
LayerCount: 2
Fore
SplineSet
293 438 m 1,0,-1
 467 438 l 1,1,-1
 467 350 l 1,2,-1
 293 350 l 1,3,-1
 293 183 l 1,4,-1
 208 183 l 1,5,-1
 208 350 l 1,6,-1
 35 350 l 1,7,-1
 35 438 l 1,8,-1
 208 438 l 1,9,-1
 208 606 l 1,10,-1
 293 606 l 1,11,-1
 293 438 l 1,0,-1
35 14 m 1,12,-1
 35 104 l 1,13,-1
 467 104 l 1,14,-1
 467 14 l 1,15,-1
 35 14 l 1,12,-1
EndSplineSet
EndChar

StartChar: paragraph
Encoding: 182 182 121
Width: 625
Flags: W
LayerCount: 2
Fore
SplineSet
189 345 m 0,1,2
 119 345 119 345 76 376 c 128,-1,3
 33 407 33 407 15.5 451.5 c 128,-1,4
 -2 496 -2 496 -2 540 c 0,5,6
 -2 594 -2 594 22 640 c 128,-1,7
 46 686 46 686 97.5 714 c 128,-1,8
 149 742 149 742 228 742 c 2,9,-1
 539 742 l 1,10,-1
 539 -108 l 1,11,-1
 439 -108 l 1,12,-1
 439 662 l 1,13,-1
 317 662 l 1,14,-1
 317 -108 l 1,15,-1
 219 -108 l 1,16,-1
 219 346 l 1,17,0
 208 345 208 345 189 345 c 0,1,2
EndSplineSet
EndChar

StartChar: ordmasculine
Encoding: 186 186 125
Width: 409
Flags: W
LayerCount: 2
Fore
SplineSet
332 734.5 m 128,-1,1
 381 690 381 690 381 617 c 256,2,3
 381 544 381 544 332 499.5 c 128,-1,4
 283 455 283 455 204 455 c 256,5,6
 125 455 125 455 76 499.5 c 128,-1,7
 27 544 27 544 27 617 c 256,8,9
 27 690 27 690 76 734.5 c 128,-1,10
 125 779 125 779 204 779 c 256,11,0
 283 779 283 779 332 734.5 c 128,-1,1
142.5 680 m 128,-1,13
 119 656 119 656 119 616 c 256,14,15
 119 576 119 576 142.5 552 c 128,-1,16
 166 528 166 528 204 528 c 256,17,18
 242 528 242 528 265.5 552 c 128,-1,19
 289 576 289 576 289 616 c 256,20,21
 289 656 289 656 265.5 680 c 128,-1,22
 242 704 242 704 204 704 c 256,23,12
 166 704 166 704 142.5 680 c 128,-1,13
EndSplineSet
EndChar

StartChar: questiondown
Encoding: 191 191 130
Width: 451
Flags: W
LayerCount: 2
Fore
SplineSet
188.5 419 m 128,-1,1
 169 439 169 439 169 470 c 0,2,3
 169 502 169 502 188.5 522.5 c 128,-1,4
 208 543 208 543 238 543 c 0,5,6
 267 543 267 543 286.5 522 c 128,-1,7
 306 501 306 501 306 470 c 256,8,9
 306 439 306 439 286.5 419 c 128,-1,10
 267 399 267 399 238 399 c 0,11,0
 208 399 208 399 188.5 419 c 128,-1,1
370 -108.5 m 128,-1,13
 313 -164 313 -164 216 -164 c 0,14,15
 122 -164 122 -164 66.5 -120 c 128,-1,16
 11 -76 11 -76 11 6 c 0,17,18
 11 44 11 44 24 73 c 128,-1,19
 37 102 37 102 55 122 c 128,-1,20
 73 142 73 142 104 169 c 0,21,22
 145 204 145 204 165.5 232.5 c 128,-1,23
 186 261 186 261 186 303 c 1,24,-1
 286 303 l 1,25,26
 286 263 286 263 274 233 c 128,-1,27
 262 203 262 203 245.5 183.5 c 128,-1,28
 229 164 229 164 200 138 c 0,29,30
 166 107 166 107 150 84 c 128,-1,31
 134 61 134 61 134 26 c 0,32,33
 134 -13 134 -13 158.5 -32.5 c 128,-1,34
 183 -52 183 -52 227 -52 c 0,35,36
 273 -52 273 -52 299 -27.5 c 128,-1,37
 325 -3 325 -3 327 45 c 1,38,-1
 428 45 l 1,39,12
 427 -53 427 -53 370 -108.5 c 128,-1,13
EndSplineSet
Substitution2: "<3,3> Small Caps in Latin lookup 11 subtable" questiondown.sc
EndChar

StartChar: AE
Encoding: 198 198 137
Width: 1065
Flags: W
LayerCount: 2
Fore
SplineSet
624 117 m 1,0,-1
 1015 117 l 1,1,-1
 1015 0 l 1,2,-1
 491 0 l 1,3,-1
 491 164 l 1,4,-1
 231 164 l 1,5,-1
 140 0 l 1,6,-1
 -1 0 l 1,7,-1
 404 700 l 1,8,-1
 1003 700 l 1,9,-1
 1003 583 l 1,10,-1
 624 583 l 1,11,-1
 624 410 l 1,12,-1
 965 410 l 1,13,-1
 965 293 l 1,14,-1
 624 293 l 1,15,-1
 624 117 l 1,0,-1
290 269 m 1,16,-1
 491 269 l 1,17,-1
 491 590 l 1,18,-1
 468 590 l 1,19,-1
 290 269 l 1,16,-1
EndSplineSet
EndChar

StartChar: Ccedilla
Encoding: 199 199 138
Width: 696
Flags: W
LayerCount: 2
Fore
SplineSet
560 30.5 m 128,-1,1
 497 -1 497 -1 431 -8 c 1,2,-1
 414 -53 l 1,3,4
 456 -60 456 -60 476 -81.5 c 128,-1,5
 496 -103 496 -103 496 -133 c 0,6,7
 496 -177 496 -177 462.5 -200.5 c 128,-1,8
 429 -224 429 -224 377 -224 c 0,9,10
 328 -224 328 -224 277 -203 c 1,11,-1
 301 -133 l 1,12,13
 332 -144 332 -144 358 -144 c 0,14,15
 377 -144 377 -144 388 -137 c 128,-1,16
 399 -130 399 -130 399 -120 c 0,17,18
 399 -109 399 -109 386 -102 c 128,-1,19
 373 -95 373 -95 349 -95 c 2,20,-1
 319 -95 l 1,21,-1
 348 -7 l 1,22,23
 258 4 258 4 185.5 53.5 c 128,-1,24
 113 103 113 103 72 181 c 128,-1,25
 31 259 31 259 31 351 c 0,26,27
 31 451 31 451 80 533 c 128,-1,28
 129 615 129 615 213.5 662 c 128,-1,29
 298 709 298 709 401 709 c 0,30,31
 476 709 476 709 548 679 c 128,-1,32
 620 649 620 649 671 596 c 1,33,-1
 593 498 l 1,34,35
 556 541 556 541 505.5 565 c 128,-1,36
 455 589 455 589 403 589 c 0,37,38
 338 589 338 589 284 558 c 128,-1,39
 230 527 230 527 199 472.5 c 128,-1,40
 168 418 168 418 168 353 c 256,41,42
 168 288 168 288 199 233.5 c 128,-1,43
 230 179 230 179 284 147.5 c 128,-1,44
 338 116 338 116 403 116 c 0,45,46
 453 116 453 116 503.5 138 c 128,-1,47
 554 160 554 160 593 199 c 1,48,-1
 672 111 l 1,49,0
 623 62 623 62 560 30.5 c 128,-1,1
EndSplineSet
EndChar

StartChar: multiply
Encoding: 215 215 154
Width: 501
Flags: W
LayerCount: 2
Fore
SplineSet
433 447 m 1,0,-1
 312 325 l 1,1,-1
 433 203 l 1,2,-1
 373 140 l 1,3,-1
 251 263 l 1,4,-1
 128 140 l 1,5,-1
 68 203 l 1,6,-1
 189 325 l 1,7,-1
 68 447 l 1,8,-1
 128 510 l 1,9,-1
 251 387 l 1,10,-1
 373 510 l 1,11,-1
 433 447 l 1,0,-1
EndSplineSet
EndChar

StartChar: Oslash
Encoding: 216 216 155
Width: 809
Flags: W
LayerCount: 2
Fore
SplineSet
740 506.5 m 128,-1,1
 777 434 777 434 777 349 c 0,2,3
 777 250 777 250 728 168.5 c 128,-1,4
 679 87 679 87 593.5 40 c 128,-1,5
 508 -7 508 -7 404 -7 c 0,6,7
 318 -7 318 -7 243 26 c 1,8,-1
 190 -55 l 1,9,-1
 87 -55 l 1,10,-1
 169 70 l 1,11,12
 104 119 104 119 67.5 191.5 c 128,-1,13
 31 264 31 264 31 349 c 0,14,15
 31 448 31 448 80 529 c 128,-1,16
 129 610 129 610 214.5 656.5 c 128,-1,17
 300 703 300 703 404 703 c 0,18,19
 490 703 490 703 563 671 c 1,20,-1
 618 755 l 1,21,-1
 721 755 l 1,22,-1
 638 628 l 1,23,0
 703 579 703 579 740 506.5 c 128,-1,1
187.5 256 m 128,-1,25
 207 212 207 212 241 179 c 1,26,-1
 494 566 l 1,27,28
 452 583 452 583 406 583 c 0,29,30
 342 583 342 583 287 552 c 128,-1,31
 232 521 232 521 200 467.5 c 128,-1,32
 168 414 168 414 168 349 c 0,33,24
 168 300 168 300 187.5 256 c 128,-1,25
523 144.5 m 128,-1,35
 577 176 577 176 608.5 230 c 128,-1,36
 640 284 640 284 640 349 c 0,37,38
 640 399 640 399 621 443 c 128,-1,39
 602 487 602 487 567 520 c 1,40,-1
 313 132 l 1,41,42
 357 113 357 113 406 113 c 0,43,34
 469 113 469 113 523 144.5 c 128,-1,35
EndSplineSet
EndChar

StartChar: Thorn
Encoding: 222 222 161
Width: 681
Flags: W
LayerCount: 2
Fore
SplineSet
579.5 541.5 m 128,-1,1
 657 480 657 480 657 367 c 0,2,3
 657 249 657 249 579.5 184 c 128,-1,4
 502 119 502 119 360 119 c 2,5,-1
 220 119 l 1,6,-1
 220 0 l 1,7,-1
 86 0 l 1,8,-1
 86 700 l 1,9,-1
 220 700 l 1,10,-1
 220 603 l 1,11,-1
 360 603 l 2,12,0
 502 603 502 603 579.5 541.5 c 128,-1,1
477.5 263.5 m 128,-1,14
 519 298 519 298 519 363 c 0,15,16
 519 426 519 426 477.5 459.5 c 128,-1,17
 436 493 436 493 355 493 c 2,18,-1
 220 493 l 1,19,-1
 220 229 l 1,20,-1
 355 229 l 2,21,13
 436 229 436 229 477.5 263.5 c 128,-1,14
EndSplineSet
EndChar

StartChar: germandbls
Encoding: 223 223 162
Width: 656
Flags: W
LayerCount: 2
Fore
SplineSet
104 626.5 m 128,-1,1
 135 685 135 685 193.5 716.5 c 128,-1,2
 252 748 252 748 332 748 c 0,3,4
 403 748 403 748 457 724 c 128,-1,5
 511 700 511 700 541.5 655.5 c 128,-1,6
 572 611 572 611 572 552 c 0,7,8
 572 496 572 496 542 449.5 c 128,-1,9
 512 403 512 403 461 382 c 1,10,11
 530 366 530 366 571 322.5 c 128,-1,12
 612 279 612 279 612 212 c 0,13,14
 612 150 612 150 579 102 c 128,-1,15
 546 54 546 54 485.5 27 c 128,-1,16
 425 0 425 0 345 0 c 2,17,-1
 295 0 l 1,18,-1
 295 100 l 1,19,-1
 350 100 l 2,20,21
 412 100 412 100 448.5 130 c 128,-1,22
 485 160 485 160 485 210 c 0,23,24
 485 261 485 261 443 289.5 c 128,-1,25
 401 318 401 318 328 318 c 2,26,-1
 314 318 l 1,27,-1
 314 418 l 1,28,29
 375 418 375 418 410 448.5 c 128,-1,30
 445 479 445 479 445 533 c 0,31,32
 445 584 445 584 414 613.5 c 128,-1,33
 383 643 383 643 331 643 c 0,34,35
 271 643 271 643 236.5 604.5 c 128,-1,36
 202 566 202 566 202 499 c 2,37,-1
 202 0 l 1,38,-1
 73 0 l 1,39,-1
 73 489 l 2,40,0
 73 568 73 568 104 626.5 c 128,-1,1
EndSplineSet
Substitution2: "<3,3> Small Caps in Latin lookup 11 subtable" germandbls.sc
EndChar

StartChar: ae
Encoding: 230 230 169
Width: 973
Flags: W
LayerCount: 2
Fore
SplineSet
553 163 m 128,-1,1
 575 134 575 134 611 117 c 128,-1,2
 647 100 647 100 687 100 c 0,3,4
 728 100 728 100 765.5 115.5 c 128,-1,5
 803 131 803 131 832 160 c 1,6,-1
 902 87 l 1,7,8
 860 42 860 42 802.5 18.5 c 128,-1,9
 745 -5 745 -5 677 -5 c 0,10,11
 600 -5 600 -5 541.5 26.5 c 128,-1,12
 483 58 483 58 451 117 c 1,13,14
 420 56 420 56 363 25 c 128,-1,15
 306 -6 306 -6 226 -6 c 0,16,17
 141 -6 141 -6 89 38.5 c 128,-1,18
 37 83 37 83 37 157 c 0,19,20
 37 230 37 230 90 269 c 128,-1,21
 143 308 143 308 241 309 c 2,22,-1
 398 309 l 1,23,-1
 398 337 l 2,24,25
 397 384 397 384 365.5 409 c 128,-1,26
 334 434 334 434 276 434 c 0,27,28
 193 434 193 434 101 384 c 1,29,-1
 69 477 l 1,30,31
 193 540 193 540 304 540 c 0,32,33
 367 540 367 540 414 521.5 c 128,-1,34
 461 503 461 503 489 467 c 1,35,36
 559 539 559 539 673 539 c 0,37,38
 756 539 756 539 818 501.5 c 128,-1,39
 880 464 880 464 912 396 c 128,-1,40
 944 328 944 328 941 238 c 1,41,-1
 530 238 l 1,42,-1
 530 225 l 2,43,0
 531 192 531 192 553 163 c 128,-1,1
770.5 406 m 128,-1,45
 733 444 733 444 674 444 c 0,46,47
 617 444 617 444 577 406.5 c 128,-1,48
 537 369 537 369 529 307 c 1,49,-1
 810 307 l 1,50,44
 808 368 808 368 770.5 406 c 128,-1,45
188 222 m 128,-1,52
 160 203 160 203 160 168 c 0,53,54
 160 130 160 130 186.5 107.5 c 128,-1,55
 213 85 213 85 256 85 c 0,56,57
 353 85 353 85 399 170 c 1,58,-1
 398 241 l 1,59,-1
 266 241 l 2,60,51
 216 241 216 241 188 222 c 128,-1,52
EndSplineSet
Substitution2: "<3,3> Small Caps in Latin lookup 11 subtable" ae.sc
EndChar

StartChar: ccedilla
Encoding: 231 231 170
Width: 564
Flags: W
LayerCount: 2
Fore
SplineSet
454 31 m 128,-1,1
 405 4 405 4 342 -3 c 1,2,-1
 323 -53 l 1,3,4
 365 -60 365 -60 385 -81.5 c 128,-1,5
 405 -103 405 -103 405 -133 c 0,6,7
 405 -177 405 -177 371.5 -200.5 c 128,-1,8
 338 -224 338 -224 286 -224 c 0,9,10
 237 -224 237 -224 186 -203 c 1,11,-1
 210 -133 l 1,12,13
 241 -144 241 -144 267 -144 c 0,14,15
 286 -144 286 -144 297 -137 c 128,-1,16
 308 -130 308 -130 308 -120 c 0,17,18
 308 -109 308 -109 295 -102 c 128,-1,19
 282 -95 282 -95 258 -95 c 2,20,-1
 228 -95 l 1,21,-1
 259 -2 l 1,22,23
 191 7 191 7 139.5 43 c 128,-1,24
 88 79 88 79 60 136.5 c 128,-1,25
 32 194 32 194 32 266 c 0,26,27
 32 347 32 347 66.5 409 c 128,-1,28
 101 471 101 471 162.5 505 c 128,-1,29
 224 539 224 539 304 539 c 0,30,31
 377 539 377 539 434.5 513.5 c 128,-1,32
 492 488 492 488 528 441 c 1,33,-1
 449 366 l 1,34,35
 395 425 395 425 309 425 c 0,36,37
 244 425 244 425 203.5 381 c 128,-1,38
 163 337 163 337 163 267 c 0,39,40
 163 195 163 195 203.5 151 c 128,-1,41
 244 107 244 107 309 107 c 0,42,43
 405 107 405 107 453 170 c 1,44,-1
 534 103 l 1,45,0
 503 58 503 58 454 31 c 128,-1,1
EndSplineSet
Substitution2: "<3,3> Small Caps in Latin lookup 11 subtable" ccedilla.sc
EndChar

StartChar: eth
Encoding: 240 240 179
Width: 594
Flags: W
LayerCount: 2
Fore
SplineSet
522.5 451 m 128,-1,1
 563 363 563 363 563 271 c 0,2,3
 563 188 563 188 528 125 c 128,-1,4
 493 62 493 62 429.5 28 c 128,-1,5
 366 -6 366 -6 282 -6 c 0,6,7
 207 -6 207 -6 150.5 22.5 c 128,-1,8
 94 51 94 51 63 103.5 c 128,-1,9
 32 156 32 156 32 225 c 0,10,11
 32 291 32 291 60 340.5 c 128,-1,12
 88 390 88 390 139.5 417 c 128,-1,13
 191 444 191 444 259 444 c 0,14,15
 314 444 314 444 361 423.5 c 128,-1,16
 408 403 408 403 432 369 c 1,17,18
 416 471 416 471 310 567 c 1,19,-1
 133 485 l 1,20,-1
 103 547 l 1,21,-1
 249 615 l 1,22,23
 190 657 190 657 117 689 c 1,24,-1
 204 748 l 1,25,26
 285 712 285 712 350 662 c 1,27,-1
 489 726 l 1,28,-1
 518 663 l 1,29,-1
 408 612 l 1,30,0
 482 539 482 539 522.5 451 c 128,-1,1
387 141.5 m 128,-1,32
 424 174 424 174 424 228 c 0,33,34
 424 284 424 284 387 317 c 128,-1,35
 350 350 350 350 289 350 c 0,36,37
 229 350 229 350 193 318 c 128,-1,38
 157 286 157 286 157 232 c 0,39,40
 157 177 157 177 193.5 143 c 128,-1,41
 230 109 230 109 289 109 c 0,42,31
 350 109 350 109 387 141.5 c 128,-1,32
EndSplineSet
Substitution2: "<3,3> Small Caps in Latin lookup 11 subtable" eth.sc
EndChar

StartChar: divide
Encoding: 247 247 186
Width: 501
Flags: W
LayerCount: 2
Fore
SplineSet
297 559 m 128,-1,1
 316 539 316 539 316 509 c 0,2,3
 316 480 316 480 297 460.5 c 128,-1,4
 278 441 278 441 250 441 c 256,5,6
 222 441 222 441 203.5 460.5 c 128,-1,7
 185 480 185 480 185 509 c 0,8,9
 185 540 185 540 203.5 559.5 c 128,-1,10
 222 579 222 579 250 579 c 256,11,0
 278 579 278 579 297 559 c 128,-1,1
34 370 m 1,12,-1
 467 370 l 1,13,-1
 467 280 l 1,14,-1
 34 280 l 1,15,-1
 34 370 l 1,12,-1
297 203 m 128,-1,17
 316 183 316 183 316 153 c 0,18,19
 316 124 316 124 297 104.5 c 128,-1,20
 278 85 278 85 250 85 c 256,21,22
 222 85 222 85 203.5 104.5 c 128,-1,23
 185 124 185 124 185 153 c 0,24,25
 185 184 185 184 203.5 203.5 c 128,-1,26
 222 223 222 223 250 223 c 256,27,16
 278 223 278 223 297 203 c 128,-1,17
EndSplineSet
EndChar

StartChar: oslash
Encoding: 248 248 187
Width: 628
Flags: W
LayerCount: 2
Fore
SplineSet
571 389 m 128,-1,1
 596 335 596 335 596 268 c 0,2,3
 596 187 596 187 560.5 125 c 128,-1,4
 525 63 525 63 461.5 29 c 128,-1,5
 398 -5 398 -5 315 -5 c 0,6,7
 246 -5 246 -5 187 20 c 1,8,-1
 111 -92 l 1,9,-1
 28 -92 l 1,10,-1
 128 55 l 1,11,12
 82 91 82 91 57 145.5 c 128,-1,13
 32 200 32 200 32 268 c 0,14,15
 32 348 32 348 67.5 409.5 c 128,-1,16
 103 471 103 471 167 505 c 128,-1,17
 231 539 231 539 315 539 c 0,18,19
 384 539 384 539 442 514 c 1,20,-1
 519 627 l 1,21,-1
 602 627 l 1,22,-1
 501 479 l 1,23,0
 546 443 546 443 571 389 c 128,-1,1
193 149 m 1,25,-1
 381 425 l 1,26,27
 348 438 348 438 315 438 c 0,28,29
 244 438 244 438 200 390.5 c 128,-1,30
 156 343 156 343 156 266 c 0,31,24
 156 195 156 195 193 149 c 1,25,-1
429 141 m 128,-1,33
 473 189 473 189 473 266 c 0,34,35
 473 336 473 336 435 383 c 1,36,-1
 247 107 l 1,37,38
 278 93 278 93 315 93 c 0,39,32
 385 93 385 93 429 141 c 128,-1,33
EndSplineSet
Substitution2: "<3,3> Small Caps in Latin lookup 11 subtable" oslash.sc
EndChar

StartChar: thorn
Encoding: 254 254 193
Width: 681
Flags: W
LayerCount: 2
Fore
SplineSet
291 516.5 m 128,-1,1
 337 539 337 539 396 539 c 0,2,3
 471 539 471 539 528.5 504.5 c 128,-1,4
 586 470 586 470 617.5 408 c 128,-1,5
 649 346 649 346 649 265 c 0,6,7
 649 185 649 185 618 124 c 128,-1,8
 587 63 587 63 530 29 c 128,-1,9
 473 -5 473 -5 398 -5 c 0,10,11
 338 -5 338 -5 292 18 c 128,-1,12
 246 41 246 41 216 84 c 1,13,-1
 216 -194 l 1,14,-1
 86 -194 l 1,15,-1
 86 742 l 1,16,-1
 216 742 l 1,17,-1
 216 451 l 1,18,0
 245 494 245 494 291 516.5 c 128,-1,1
258 385 m 128,-1,20
 216 340 216 340 216 269 c 0,21,22
 216 197 216 197 258 152 c 128,-1,23
 300 107 300 107 367 107 c 0,24,25
 433 107 433 107 475 152.5 c 128,-1,26
 517 198 517 198 517 269 c 256,27,28
 517 340 517 340 475 385 c 128,-1,29
 433 430 433 430 367 430 c 0,30,19
 300 430 300 430 258 385 c 128,-1,20
EndSplineSet
Substitution2: "<3,3> Small Caps in Latin lookup 11 subtable" thorn.sc
EndChar

StartChar: Aogonek
Encoding: 260 260 199
Width: 747
Flags: W
LayerCount: 2
Fore
SplineSet
671 -56.5 m 128,-1,1
 651 -81 651 -81 651 -103 c 0,2,3
 651 -117 651 -117 658 -124 c 128,-1,4
 665 -131 665 -131 676 -131 c 0,5,6
 695 -131 695 -131 708 -123 c 1,7,-1
 736 -203 l 1,8,9
 690 -223 690 -223 648 -223 c 0,10,11
 599 -223 599 -223 569.5 -197.5 c 128,-1,12
 540 -172 540 -172 540 -127 c 0,13,14
 540 -59 540 -59 605 0 c 1,15,-1
 604 0 l 1,16,-1
 542 148 l 1,17,-1
 200 148 l 1,18,-1
 138 0 l 1,19,-1
 -1 0 l 1,20,-1
 306 700 l 1,21,-1
 445 700 l 1,22,-1
 748 0 l 1,23,-1
 736 0 l 1,24,0
 691 -32 691 -32 671 -56.5 c 128,-1,1
248 263 m 1,25,-1
 494 263 l 1,26,-1
 372 557 l 1,27,-1
 248 263 l 1,25,-1
EndSplineSet
EndChar

StartChar: aogonek
Encoding: 261 261 200
Width: 590
Flags: W
LayerCount: 2
Fore
SplineSet
452 -56.5 m 128,-1,1
 432 -81 432 -81 432 -103 c 0,2,3
 432 -117 432 -117 439 -124 c 128,-1,4
 446 -131 446 -131 457 -131 c 0,5,6
 476 -131 476 -131 489 -123 c 1,7,-1
 517 -203 l 1,8,9
 471 -223 471 -223 429 -223 c 0,10,11
 380 -223 380 -223 350.5 -197.5 c 128,-1,12
 321 -172 321 -172 321 -127 c 0,13,14
 321 -52 321 -52 397 10 c 1,15,-1
 397 65 l 1,16,17
 369 30 369 30 325 12 c 128,-1,18
 281 -6 281 -6 224 -6 c 0,19,20
 168 -6 168 -6 125.5 15.5 c 128,-1,21
 83 37 83 37 60 75 c 128,-1,22
 37 113 37 113 37 160 c 0,23,24
 37 235 37 235 90 277.5 c 128,-1,25
 143 320 143 320 240 321 c 2,26,-1
 396 321 l 1,27,-1
 396 335 l 2,28,29
 396 382 396 382 365 408 c 128,-1,30
 334 434 334 434 275 434 c 0,31,32
 199 434 199 434 116 384 c 1,33,-1
 69 474 l 1,34,35
 132 509 132 509 183.5 524.5 c 128,-1,36
 235 540 235 540 304 540 c 0,37,38
 408 540 408 540 465.5 490 c 128,-1,39
 523 440 523 440 524 350 c 2,40,-1
 525 0 l 1,41,-1
 517 0 l 1,42,0
 472 -32 472 -32 452 -56.5 c 128,-1,1
351 120.5 m 128,-1,44
 391 147 391 147 396 186 c 1,45,-1
 396 234 l 1,46,-1
 261 234 l 2,47,48
 209 234 209 234 184.5 218.5 c 128,-1,49
 160 203 160 203 160 168 c 0,50,51
 160 134 160 134 185.5 114 c 128,-1,52
 211 94 211 94 255 94 c 0,53,43
 311 94 311 94 351 120.5 c 128,-1,44
EndSplineSet
Substitution2: "<3,3> Small Caps in Latin lookup 11 subtable" aogonek.sc
EndChar

StartChar: Dcroat
Encoding: 272 272 211
Width: 773
Flags: W
LayerCount: 2
Fore
SplineSet
565 655.5 m 128,-1,1
 648 611 648 611 694.5 531 c 128,-1,2
 741 451 741 451 741 350 c 256,3,4
 741 249 741 249 694 169.5 c 128,-1,5
 647 90 647 90 563 45 c 128,-1,6
 479 0 479 0 373 0 c 2,7,-1
 86 0 l 1,8,-1
 86 314 l 1,9,-1
 15 314 l 1,10,-1
 15 387 l 1,11,-1
 86 387 l 1,12,-1
 86 700 l 1,13,-1
 377 700 l 2,14,0
 482 700 482 700 565 655.5 c 128,-1,1
495.5 147.5 m 128,-1,16
 547 177 547 177 576.5 229.5 c 128,-1,17
 606 282 606 282 606 349 c 256,18,19
 606 416 606 416 575.5 469 c 128,-1,20
 545 522 545 522 492 552 c 128,-1,21
 439 582 439 582 374 582 c 2,22,-1
 220 582 l 1,23,-1
 220 387 l 1,24,-1
 409 387 l 1,25,-1
 409 314 l 1,26,-1
 220 314 l 1,27,-1
 220 118 l 1,28,-1
 380 118 l 2,29,15
 444 118 444 118 495.5 147.5 c 128,-1,16
EndSplineSet
EndChar

StartChar: dcroat
Encoding: 273 273 212
Width: 682
Flags: W
LayerCount: 2
Fore
SplineSet
666 585 m 1,0,-1
 597 585 l 1,1,-1
 597 0 l 1,2,-1
 467 0 l 1,3,-1
 467 91 l 1,4,5
 437 45 437 45 390 19.5 c 128,-1,6
 343 -6 343 -6 284 -6 c 0,7,8
 210 -6 210 -6 153 27 c 128,-1,9
 96 60 96 60 64 119.5 c 128,-1,10
 32 179 32 179 32 257 c 0,11,12
 32 333 32 333 63.5 391.5 c 128,-1,13
 95 450 95 450 151.5 482.5 c 128,-1,14
 208 515 208 515 281 515 c 0,15,16
 340 515 340 515 388 489.5 c 128,-1,17
 436 464 436 464 467 418 c 1,18,-1
 467 585 l 1,19,-1
 270 585 l 1,20,-1
 270 658 l 1,21,-1
 467 658 l 1,22,-1
 467 742 l 1,23,-1
 597 742 l 1,24,-1
 597 658 l 1,25,-1
 666 658 l 1,26,-1
 666 585 l 1,0,-1
424.5 144.5 m 128,-1,28
 467 186 467 186 467 253 c 256,29,30
 467 320 467 320 424.5 362 c 128,-1,31
 382 404 382 404 315 404 c 256,32,33
 248 404 248 404 205.5 362 c 128,-1,34
 163 320 163 320 163 253 c 256,35,36
 163 186 163 186 205.5 144.5 c 128,-1,37
 248 103 248 103 315 103 c 256,38,27
 382 103 382 103 424.5 144.5 c 128,-1,28
EndSplineSet
Substitution2: "<3,3> Small Caps in Latin lookup 11 subtable" dcroat.sc
EndChar

StartChar: Eogonek
Encoding: 280 280 219
Width: 661
Flags: W
LayerCount: 2
Fore
SplineSet
546 -56.5 m 128,-1,1
 526 -81 526 -81 526 -103 c 0,2,3
 526 -117 526 -117 533 -124 c 128,-1,4
 540 -131 540 -131 551 -131 c 0,5,6
 570 -131 570 -131 583 -123 c 1,7,-1
 611 -203 l 1,8,9
 565 -223 565 -223 523 -223 c 0,10,11
 474 -223 474 -223 444.5 -197.5 c 128,-1,12
 415 -172 415 -172 415 -127 c 0,13,14
 415 -59 415 -59 480 0 c 1,15,-1
 86 0 l 1,16,-1
 86 700 l 1,17,-1
 599 700 l 1,18,-1
 599 583 l 1,19,-1
 220 583 l 1,20,-1
 220 410 l 1,21,-1
 560 410 l 1,22,-1
 560 293 l 1,23,-1
 220 293 l 1,24,-1
 220 117 l 1,25,-1
 611 117 l 1,26,-1
 611 0 l 1,27,0
 566 -32 566 -32 546 -56.5 c 128,-1,1
EndSplineSet
EndChar

StartChar: eogonek
Encoding: 281 281 220
Width: 592
Flags: W
LayerCount: 2
Fore
SplineSet
496.5 466 m 128,-1,1
 561 393 561 393 561 261 c 0,2,3
 561 235 561 235 560 222 c 1,4,-1
 165 222 l 1,5,6
 178 165 178 165 218.5 132.5 c 128,-1,7
 259 100 259 100 318 100 c 0,8,9
 359 100 359 100 396.5 115.5 c 128,-1,10
 434 131 434 131 462 160 c 1,11,-1
 532 87 l 1,12,13
 511 64 511 64 485 46 c 1,14,15
 451 12 451 12 428 -28.5 c 128,-1,16
 405 -69 405 -69 405 -98 c 0,17,18
 405 -131 405 -131 431 -131 c 0,19,20
 448 -131 448 -131 462 -123 c 1,21,-1
 490 -203 l 1,22,23
 442 -223 442 -223 402 -223 c 0,24,25
 353 -223 353 -223 323.5 -195 c 128,-1,26
 294 -167 294 -167 294 -118 c 0,27,28
 294 -60 294 -60 341 -3 c 1,29,30
 319 -5 319 -5 307 -5 c 0,31,32
 225 -5 225 -5 162.5 29 c 128,-1,33
 100 63 100 63 66 124.5 c 128,-1,34
 32 186 32 186 32 266 c 256,35,36
 32 346 32 346 66.5 408 c 128,-1,37
 101 470 101 470 163 504.5 c 128,-1,38
 225 539 225 539 304 539 c 0,39,0
 432 539 432 539 496.5 466 c 128,-1,1
442 309 m 1,40,41
 440 368 440 368 403 403 c 128,-1,42
 366 438 366 438 305 438 c 0,43,44
 248 438 248 438 209.5 403.5 c 128,-1,45
 171 369 171 369 162 309 c 1,46,-1
 442 309 l 1,40,41
EndSplineSet
Substitution2: "<3,3> Small Caps in Latin lookup 11 subtable" eogonek.sc
EndChar

StartChar: Hbar
Encoding: 294 294 233
Width: 804
Flags: W
LayerCount: 2
Fore
SplineSet
803 595 m 1,0,-1
 803 522 l 1,1,-1
 711 522 l 1,2,-1
 711 0 l 1,3,-1
 576 0 l 1,4,-1
 576 284 l 1,5,-1
 227 284 l 1,6,-1
 227 0 l 1,7,-1
 93 0 l 1,8,-1
 93 522 l 1,9,-1
 2 522 l 1,10,-1
 2 595 l 1,11,-1
 93 595 l 1,12,-1
 93 700 l 1,13,-1
 227 700 l 1,14,-1
 227 595 l 1,15,-1
 576 595 l 1,16,-1
 576 700 l 1,17,-1
 711 700 l 1,18,-1
 711 595 l 1,19,-1
 803 595 l 1,0,-1
576 401 m 1,20,-1
 576 522 l 1,21,-1
 227 522 l 1,22,-1
 227 401 l 1,23,-1
 576 401 l 1,20,-1
EndSplineSet
EndChar

StartChar: hbar
Encoding: 295 295 234
Width: 672
Flags: W
LayerCount: 2
Fore
SplineSet
554 459.5 m 128,-1,1
 607 404 607 404 607 309 c 2,2,-1
 607 0 l 1,3,-1
 476 0 l 1,4,-1
 476 272 l 2,5,6
 476 328 476 328 444.5 360 c 128,-1,7
 413 392 413 392 357 392 c 0,8,9
 292 392 292 392 254 348.5 c 128,-1,10
 216 305 216 305 216 238 c 2,11,-1
 216 0 l 1,12,-1
 86 0 l 1,13,-1
 86 585 l 1,14,-1
 17 585 l 1,15,-1
 17 658 l 1,16,-1
 86 658 l 1,17,-1
 86 742 l 1,18,-1
 216 742 l 1,19,-1
 216 658 l 1,20,-1
 413 658 l 1,21,-1
 413 585 l 1,22,-1
 216 585 l 1,23,-1
 216 408 l 1,24,25
 272 515 272 515 409 515 c 0,26,0
 501 515 501 515 554 459.5 c 128,-1,1
EndSplineSet
Substitution2: "<3,3> Small Caps in Latin lookup 11 subtable" hbar.sc
EndChar

StartChar: Iogonek
Encoding: 302 302 241
Width: 306
Flags: W
LayerCount: 2
Fore
SplineSet
220 700 m 1,0,-1
 220 0 l 1,1,-1
 211 0 l 1,2,3
 166 -32 166 -32 146 -56.5 c 128,-1,4
 126 -81 126 -81 126 -103 c 0,5,6
 126 -117 126 -117 133 -124 c 128,-1,7
 140 -131 140 -131 151 -131 c 0,8,9
 170 -131 170 -131 183 -123 c 1,10,-1
 211 -203 l 1,11,12
 165 -223 165 -223 123 -223 c 0,13,14
 74 -223 74 -223 44.5 -197.5 c 128,-1,15
 15 -172 15 -172 15 -127 c 0,16,17
 15 -55 15 -55 86 6 c 1,18,-1
 86 700 l 1,19,-1
 220 700 l 1,0,-1
EndSplineSet
EndChar

StartChar: iogonek
Encoding: 303 303 242
Width: 291
Flags: W
LayerCount: 2
Fore
SplineSet
93 632 m 128,-1,1
 72 654 72 654 72 687 c 0,2,3
 72 721 72 721 93 743 c 128,-1,4
 114 765 114 765 146 765 c 256,5,6
 178 765 178 765 199 743 c 128,-1,7
 220 721 220 721 220 687 c 0,8,9
 220 654 220 654 199 632 c 128,-1,10
 178 610 178 610 146 610 c 256,11,0
 114 610 114 610 93 632 c 128,-1,1
81 535 m 1,12,-1
 211 535 l 1,13,-1
 211 0 l 1,14,-1
 202 0 l 1,15,16
 157 -32 157 -32 137 -56.5 c 128,-1,17
 117 -81 117 -81 117 -103 c 0,18,19
 117 -117 117 -117 124 -124 c 128,-1,20
 131 -131 131 -131 142 -131 c 0,21,22
 161 -131 161 -131 174 -123 c 1,23,-1
 202 -203 l 1,24,25
 156 -223 156 -223 114 -223 c 0,26,27
 65 -223 65 -223 35.5 -197.5 c 128,-1,28
 6 -172 6 -172 6 -127 c 0,29,30
 6 -52 6 -52 81 9 c 1,31,-1
 81 535 l 1,12,-1
EndSplineSet
Substitution2: "<3,3> Small Caps in Latin lookup 11 subtable" iogonek.sc
EndChar

StartChar: dotlessi
Encoding: 305 305 244
Width: 291
Flags: W
LayerCount: 2
Fore
SplineSet
81 535 m 1,0,-1
 211 535 l 1,1,-1
 211 0 l 1,2,-1
 81 0 l 1,3,-1
 81 535 l 1,0,-1
EndSplineSet
Substitution2: "<3,3> Small Caps in Latin lookup 11 subtable" dotlessi.sc
EndChar

StartChar: kgreenlandic
Encoding: 312 312 251
Width: 599
Flags: W
LayerCount: 2
Fore
SplineSet
438 0 m 1,0,-1
 293 234 l 1,1,-1
 211 148 l 1,2,-1
 211 0 l 1,3,-1
 81 0 l 1,4,-1
 81 535 l 1,5,-1
 211 535 l 1,6,-1
 211 309 l 1,7,-1
 431 535 l 1,8,-1
 580 535 l 1,9,-1
 382 328 l 1,10,-1
 593 0 l 1,11,-1
 438 0 l 1,0,-1
EndSplineSet
Substitution2: "<3,3> Small Caps in Latin lookup 11 subtable" kgreenlandic.sc
EndChar

StartChar: Lslash
Encoding: 321 321 260
Width: 576
Flags: W
LayerCount: 2
Fore
SplineSet
256 120 m 1,0,-1
 557 120 l 1,1,-1
 557 0 l 1,2,-1
 121 0 l 1,3,-1
 121 317 l 1,4,-1
 22 264 l 1,5,-1
 22 342 l 1,6,-1
 121 395 l 1,7,-1
 121 700 l 1,8,-1
 256 700 l 1,9,-1
 256 467 l 1,10,-1
 371 528 l 1,11,-1
 371 450 l 1,12,-1
 256 389 l 1,13,-1
 256 120 l 1,0,-1
EndSplineSet
EndChar

StartChar: lslash
Encoding: 322 322 261
Width: 397
Flags: W
LayerCount: 2
Fore
SplineSet
376 522 m 1,0,-1
 376 437 l 1,1,-1
 267 379 l 1,2,-1
 267 0 l 1,3,-1
 137 0 l 1,4,-1
 137 309 l 1,5,-1
 28 251 l 1,6,-1
 28 337 l 1,7,-1
 137 395 l 1,8,-1
 137 742 l 1,9,-1
 267 742 l 1,10,-1
 267 464 l 1,11,-1
 376 522 l 1,0,-1
EndSplineSet
Substitution2: "<3,3> Small Caps in Latin lookup 11 subtable" lslash.sc
EndChar

StartChar: Eng
Encoding: 330 330 269
Width: 790
Flags: W
LayerCount: 2
Fore
SplineSet
704 700 m 1,0,-1
 704 0 l 2,1,2
 702 -95 702 -95 641.5 -151.5 c 128,-1,3
 581 -208 581 -208 479 -208 c 0,4,5
 364 -208 364 -208 287 -137 c 1,6,-1
 346 -31 l 1,7,8
 377 -55 377 -55 412 -67.5 c 128,-1,9
 447 -80 447 -80 477 -80 c 0,10,11
 517 -80 517 -80 542 -57.5 c 128,-1,12
 567 -35 567 -35 571 8 c 1,13,-1
 217 478 l 1,14,-1
 217 0 l 1,15,-1
 86 0 l 1,16,-1
 86 700 l 1,17,-1
 213 700 l 1,18,-1
 574 221 l 1,19,-1
 574 700 l 1,20,-1
 704 700 l 1,0,-1
EndSplineSet
EndChar

StartChar: eng
Encoding: 331 331 270
Width: 666
Flags: W
LayerCount: 2
Fore
SplineSet
548 484.5 m 128,-1,1
 601 429 601 429 601 334 c 2,2,-1
 601 -17 l 2,3,4
 601 -76 601 -76 576 -117.5 c 128,-1,5
 551 -159 551 -159 510 -179.5 c 128,-1,6
 469 -200 469 -200 422 -200 c 0,7,8
 356 -200 356 -200 304 -164 c 1,9,-1
 344 -64 l 1,10,11
 375 -87 375 -87 410 -87 c 0,12,13
 437 -87 437 -87 453.5 -70 c 128,-1,14
 470 -53 470 -53 470 -19 c 2,15,-1
 470 296 l 2,16,17
 470 352 470 352 438 384.5 c 128,-1,18
 406 417 406 417 351 417 c 0,19,20
 286 416 286 416 248.5 373 c 128,-1,21
 211 330 211 330 211 263 c 2,22,-1
 211 0 l 1,23,-1
 81 0 l 1,24,-1
 81 535 l 1,25,-1
 211 535 l 1,26,-1
 211 435 l 1,27,28
 266 538 266 538 403 540 c 0,29,0
 495 540 495 540 548 484.5 c 128,-1,1
EndSplineSet
Substitution2: "<3,3> Small Caps in Latin lookup 11 subtable" eng.sc
EndChar

StartChar: OE
Encoding: 338 338 277
Width: 1101
Flags: W
LayerCount: 2
Fore
SplineSet
1051 117 m 1,0,-1
 1051 0 l 1,1,-1
 403 0 l 2,2,3
 299 0 299 0 214 46 c 128,-1,4
 129 92 129 92 80 172 c 128,-1,5
 31 252 31 252 31 350 c 0,6,7
 31 447 31 447 80 527 c 128,-1,8
 129 607 129 607 214 653.5 c 128,-1,9
 299 700 299 700 403 700 c 2,10,-1
 1040 700 l 1,11,-1
 1040 583 l 1,12,-1
 661 583 l 1,13,-1
 661 410 l 1,14,-1
 1001 410 l 1,15,-1
 1001 293 l 1,16,-1
 661 293 l 1,17,-1
 661 117 l 1,18,-1
 1051 117 l 1,0,-1
526 119 m 1,19,-1
 526 580 l 1,20,-1
 404 580 l 2,21,22
 338 580 338 580 284 550 c 128,-1,23
 230 520 230 520 199 467 c 128,-1,24
 168 414 168 414 168 349 c 256,25,26
 168 284 168 284 199 231 c 128,-1,27
 230 178 230 178 284 148 c 128,-1,28
 338 118 338 118 404 118 c 2,29,-1
 526 119 l 1,19,-1
EndSplineSet
EndChar

StartChar: oe
Encoding: 339 339 278
Width: 1035
Flags: W
LayerCount: 2
Fore
SplineSet
880 501.5 m 128,-1,1
 942 464 942 464 974 395.5 c 128,-1,2
 1006 327 1006 327 1003 238 c 1,3,-1
 590 238 l 1,4,5
 600 174 600 174 642.5 137 c 128,-1,6
 685 100 685 100 748 100 c 0,7,8
 790 100 790 100 827.5 115.5 c 128,-1,9
 865 131 865 131 894 160 c 1,10,-1
 964 87 l 1,11,12
 923 43 923 43 865 19 c 128,-1,13
 807 -5 807 -5 738 -5 c 0,14,15
 666 -5 666 -5 612.5 23.5 c 128,-1,16
 559 52 559 52 528 105 c 1,17,18
 494 52 494 52 439.5 23.5 c 128,-1,19
 385 -5 385 -5 314 -5 c 0,20,21
 231 -5 231 -5 167 29 c 128,-1,22
 103 63 103 63 67.5 125 c 128,-1,23
 32 187 32 187 32 268 c 0,24,25
 32 348 32 348 67.5 409.5 c 128,-1,26
 103 471 103 471 167 505 c 128,-1,27
 231 539 231 539 314 539 c 0,28,29
 386 539 386 539 440.5 510.5 c 128,-1,30
 495 482 495 482 528 429 c 1,31,32
 560 482 560 482 612.5 510.5 c 128,-1,33
 665 539 665 539 734 539 c 0,34,0
 818 539 818 539 880 501.5 c 128,-1,1
873 307 m 1,35,36
 871 368 871 368 833 406 c 128,-1,37
 795 444 795 444 735 444 c 0,38,39
 677 444 677 444 637.5 406 c 128,-1,40
 598 368 598 368 589 307 c 1,41,-1
 873 307 l 1,35,36
423 149 m 128,-1,43
 465 194 465 194 465 266 c 256,44,45
 465 338 465 338 423 382.5 c 128,-1,46
 381 427 381 427 314 427 c 0,47,48
 248 427 248 427 206 382.5 c 128,-1,49
 164 338 164 338 164 266 c 256,50,51
 164 194 164 194 206 149 c 128,-1,52
 248 104 248 104 314 104 c 0,53,42
 381 104 381 104 423 149 c 128,-1,43
EndSplineSet
Substitution2: "<3,3> Small Caps in Latin lookup 11 subtable" oe.sc
EndChar

StartChar: Scedilla
Encoding: 350 350 289
Width: 628
Flags: W
LayerCount: 2
Fore
SplineSet
231.5 472.5 m 128,-1,1
 251 453 251 453 280.5 440.5 c 128,-1,2
 310 428 310 428 361 413 c 0,3,4
 432 392 432 392 477.5 371 c 128,-1,5
 523 350 523 350 555 309 c 128,-1,6
 587 268 587 268 587 201 c 0,7,8
 587 116 587 116 528 61.5 c 128,-1,9
 469 7 469 7 371 -5 c 1,10,-1
 353 -53 l 1,11,12
 395 -60 395 -60 415 -81.5 c 128,-1,13
 435 -103 435 -103 435 -133 c 0,14,15
 435 -177 435 -177 401.5 -200.5 c 128,-1,16
 368 -224 368 -224 316 -224 c 0,17,18
 267 -224 267 -224 216 -203 c 1,19,-1
 240 -133 l 1,20,21
 271 -144 271 -144 297 -144 c 0,22,23
 316 -144 316 -144 327 -137 c 128,-1,24
 338 -130 338 -130 338 -120 c 0,25,26
 338 -109 338 -109 325 -102 c 128,-1,27
 312 -95 312 -95 288 -95 c 2,28,-1
 258 -95 l 1,29,-1
 287 -7 l 1,30,31
 213 -1 213 -1 144 28.5 c 128,-1,32
 75 58 75 58 23 104 c 1,33,-1
 79 218 l 1,34,35
 132 169 132 169 198 141 c 128,-1,36
 264 113 264 113 321 113 c 0,37,38
 377 113 377 113 409 134.5 c 128,-1,39
 441 156 441 156 441 193 c 0,40,41
 441 223 441 223 421.5 242.5 c 128,-1,42
 402 262 402 262 372 274 c 128,-1,43
 342 286 342 286 290 301 c 0,44,45
 219 322 219 322 174 342 c 128,-1,46
 129 362 129 362 97 402.5 c 128,-1,47
 65 443 65 443 65 509 c 0,48,49
 65 570 65 570 97.5 615.5 c 128,-1,50
 130 661 130 661 189.5 686 c 128,-1,51
 249 711 249 711 327 711 c 0,52,53
 395 711 395 711 461.5 691 c 128,-1,54
 528 671 528 671 580 637 c 1,55,-1
 526 520 l 1,56,57
 472 553 472 553 415.5 571 c 128,-1,58
 359 589 359 589 316 589 c 0,59,60
 268 589 268 589 240 571 c 128,-1,61
 212 553 212 553 212 521 c 0,62,0
 212 492 212 492 231.5 472.5 c 128,-1,1
EndSplineSet
EndChar

StartChar: scedilla
Encoding: 351 351 290
Width: 482
Flags: W
LayerCount: 2
Fore
SplineSet
408 50.5 m 128,-1,1
 364 10 364 10 293 -1 c 1,2,-1
 273 -53 l 1,3,4
 315 -60 315 -60 335 -81.5 c 128,-1,5
 355 -103 355 -103 355 -133 c 0,6,7
 355 -177 355 -177 321.5 -200.5 c 128,-1,8
 288 -224 288 -224 236 -224 c 0,9,10
 187 -224 187 -224 136 -203 c 1,11,-1
 160 -133 l 1,12,13
 191 -144 191 -144 217 -144 c 0,14,15
 236 -144 236 -144 247 -137 c 128,-1,16
 258 -130 258 -130 258 -120 c 0,17,18
 258 -109 258 -109 245 -102 c 128,-1,19
 232 -95 232 -95 208 -95 c 2,20,-1
 178 -95 l 1,21,-1
 208 -4 l 1,22,23
 155 1 155 1 105 20 c 128,-1,24
 55 39 55 39 20 70 c 1,25,-1
 65 161 l 1,26,27
 101 130 101 130 151 112.5 c 128,-1,28
 201 95 201 95 246 95 c 0,29,30
 282 95 282 95 303.5 107.5 c 128,-1,31
 325 120 325 120 325 145 c 0,32,33
 325 173 325 173 300 187 c 128,-1,34
 275 201 275 201 219 218 c 0,35,36
 165 234 165 234 131 249.5 c 128,-1,37
 97 265 97 265 72 296.5 c 128,-1,38
 47 328 47 328 47 379 c 0,39,40
 47 458 47 458 104.5 499.5 c 128,-1,41
 162 541 162 541 249 541 c 0,42,43
 302 541 302 541 353.5 526 c 128,-1,44
 405 511 405 511 445 484 c 1,45,-1
 398 390 l 1,46,47
 359 413 359 413 317.5 426 c 128,-1,48
 276 439 276 439 241 439 c 0,49,50
 208 439 208 439 188.5 427.5 c 128,-1,51
 169 416 169 416 169 392 c 0,52,53
 169 367 169 367 193.5 353.5 c 128,-1,54
 218 340 218 340 271 325 c 0,55,56
 327 308 327 308 363 291.5 c 128,-1,57
 399 275 399 275 425.5 242.5 c 128,-1,58
 452 210 452 210 452 157 c 0,59,0
 452 91 452 91 408 50.5 c 128,-1,1
EndSplineSet
Substitution2: "<3,3> Small Caps in Latin lookup 11 subtable" scedilla.sc
EndChar

StartChar: uni0162
Encoding: 354 354 293
Width: 588
Flags: W
LayerCount: 2
Fore
SplineSet
346 0 m 1,0,-1
 326 -53 l 1,1,2
 368 -60 368 -60 388 -81.5 c 128,-1,3
 408 -103 408 -103 408 -133 c 0,4,5
 408 -177 408 -177 374.5 -200.5 c 128,-1,6
 341 -224 341 -224 289 -224 c 0,7,8
 240 -224 240 -224 189 -203 c 1,9,-1
 213 -133 l 1,10,11
 244 -144 244 -144 270 -144 c 0,12,13
 289 -144 289 -144 300 -137 c 128,-1,14
 311 -130 311 -130 311 -120 c 0,15,16
 311 -109 311 -109 298 -102 c 128,-1,17
 285 -95 285 -95 261 -95 c 2,18,-1
 231 -95 l 1,19,-1
 262 0 l 1,20,-1
 226 0 l 1,21,-1
 226 581 l 1,22,-1
 8 581 l 1,23,-1
 8 700 l 1,24,-1
 579 700 l 1,25,-1
 579 581 l 1,26,-1
 361 581 l 1,27,-1
 361 0 l 1,28,-1
 346 0 l 1,0,-1
EndSplineSet
EndChar

StartChar: uni0163
Encoding: 355 355 294
Width: 415
Flags: W
LayerCount: 2
Fore
SplineSet
354 -81.5 m 128,-1,1
 374 -103 374 -103 374 -133 c 0,2,3
 374 -177 374 -177 340.5 -200.5 c 128,-1,4
 307 -224 307 -224 255 -224 c 0,5,6
 206 -224 206 -224 155 -203 c 1,7,-1
 179 -133 l 1,8,9
 210 -144 210 -144 236 -144 c 0,10,11
 255 -144 255 -144 266 -137 c 128,-1,12
 277 -130 277 -130 277 -120 c 0,13,14
 277 -109 277 -109 264 -102 c 128,-1,15
 251 -95 251 -95 227 -95 c 2,16,-1
 197 -95 l 1,17,-1
 227 -3 l 1,18,19
 171 6 171 6 137 45.5 c 128,-1,20
 103 85 103 85 103 154 c 2,21,-1
 103 418 l 1,22,-1
 28 418 l 1,23,-1
 27 513 l 1,24,-1
 103 513 l 1,25,-1
 103 660 l 1,26,-1
 232 660 l 1,27,-1
 232 513 l 1,28,-1
 385 513 l 1,29,-1
 385 418 l 1,30,-1
 232 418 l 1,31,-1
 232 177 l 2,32,33
 232 140 232 140 246 124.5 c 128,-1,34
 260 109 260 109 288 109 c 0,35,36
 318 109 318 109 364 131 c 1,37,-1
 394 33 l 1,38,39
 355 9 355 9 312 0 c 1,40,-1
 292 -53 l 1,41,0
 334 -60 334 -60 354 -81.5 c 128,-1,1
EndSplineSet
Substitution2: "<3,3> Small Caps in Latin lookup 11 subtable" uni0163.sc
EndChar

StartChar: Tbar
Encoding: 358 358 297
Width: 588
Flags: W
LayerCount: 2
Fore
SplineSet
579 581 m 1,0,-1
 361 581 l 1,1,-1
 361 362 l 1,2,-1
 504 362 l 1,3,-1
 504 284 l 1,4,-1
 361 284 l 1,5,-1
 361 0 l 1,6,-1
 226 0 l 1,7,-1
 226 284 l 1,8,-1
 82 284 l 1,9,-1
 82 362 l 1,10,-1
 226 362 l 1,11,-1
 226 581 l 1,12,-1
 8 581 l 1,13,-1
 8 700 l 1,14,-1
 579 700 l 1,15,-1
 579 581 l 1,0,-1
EndSplineSet
EndChar

StartChar: tbar
Encoding: 359 359 298
Width: 415
Flags: W
LayerCount: 2
Fore
SplineSet
394 33 m 1,0,1
 330 -6 330 -6 260 -6 c 0,2,3
 191 -6 191 -6 147 34.5 c 128,-1,4
 103 75 103 75 103 154 c 2,5,-1
 103 246 l 1,6,-1
 28 246 l 1,7,-1
 28 336 l 1,8,-1
 103 336 l 1,9,-1
 103 423 l 1,10,-1
 28 423 l 1,11,-1
 28 513 l 1,12,-1
 103 513 l 1,13,-1
 103 660 l 1,14,-1
 232 660 l 1,15,-1
 232 513 l 1,16,-1
 385 513 l 1,17,-1
 385 423 l 1,18,-1
 232 423 l 1,19,-1
 232 336 l 1,20,-1
 385 336 l 1,21,-1
 385 246 l 1,22,-1
 232 246 l 1,23,-1
 232 177 l 2,24,25
 232 140 232 140 246 124.5 c 128,-1,26
 260 109 260 109 288 109 c 0,27,28
 318 109 318 109 364 131 c 1,29,-1
 394 33 l 1,0,1
EndSplineSet
Substitution2: "<3,3> Small Caps in Latin lookup 11 subtable" tbar.sc
EndChar

StartChar: Uogonek
Encoding: 370 370 309
Width: 756
Flags: W
LayerCount: 2
Fore
SplineSet
684 700 m 1,0,-1
 684 288 l 2,1,2
 684 206 684 206 654.5 143.5 c 128,-1,3
 625 81 625 81 569 43 c 1,4,5
 536 8 536 8 514.5 -30.5 c 128,-1,6
 493 -69 493 -69 493 -98 c 0,7,8
 493 -131 493 -131 519 -131 c 0,9,10
 536 -131 536 -131 550 -123 c 1,11,-1
 578 -203 l 1,12,13
 530 -223 530 -223 490 -223 c 0,14,15
 441 -223 441 -223 411.5 -195 c 128,-1,16
 382 -167 382 -167 382 -118 c 0,17,18
 382 -61 382 -61 425 -8 c 1,19,20
 397 -10 397 -10 380 -10 c 0,21,22
 286 -10 286 -10 216.5 26 c 128,-1,23
 147 62 147 62 110 129.5 c 128,-1,24
 73 197 73 197 73 288 c 2,25,-1
 73 700 l 1,26,-1
 207 700 l 1,27,-1
 207 288 l 2,28,29
 207 205 207 205 254 158 c 128,-1,30
 301 111 301 111 380 111 c 256,31,32
 459 111 459 111 504.5 158 c 128,-1,33
 550 205 550 205 550 288 c 2,34,-1
 550 700 l 1,35,-1
 684 700 l 1,0,-1
EndSplineSet
EndChar

StartChar: uogonek
Encoding: 371 371 310
Width: 656
Flags: W
LayerCount: 2
Fore
SplineSet
575 535 m 1,0,-1
 575 0 l 1,1,-1
 566 0 l 1,2,3
 521 -32 521 -32 501 -56.5 c 128,-1,4
 481 -81 481 -81 481 -103 c 0,5,6
 481 -117 481 -117 488 -124 c 128,-1,7
 495 -131 495 -131 506 -131 c 0,8,9
 525 -131 525 -131 538 -123 c 1,10,-1
 566 -203 l 1,11,12
 520 -223 520 -223 478 -223 c 0,13,14
 429 -223 429 -223 399.5 -197.5 c 128,-1,15
 370 -172 370 -172 370 -127 c 0,16,17
 370 -54 370 -54 444 8 c 1,18,-1
 444 99 l 1,19,20
 390 -5 390 -5 258 -5 c 0,21,22
 168 -5 168 -5 116 50 c 128,-1,23
 64 105 64 105 64 200 c 2,24,-1
 64 535 l 1,25,-1
 195 535 l 1,26,-1
 195 238 l 2,27,28
 195 182 195 182 225.5 150 c 128,-1,29
 256 118 256 118 310 118 c 0,30,31
 372 119 372 119 408 162 c 128,-1,32
 444 205 444 205 444 271 c 2,33,-1
 444 535 l 1,34,-1
 575 535 l 1,0,-1
EndSplineSet
Substitution2: "<3,3> Small Caps in Latin lookup 11 subtable" uogonek.sc
EndChar

StartChar: uni018F
Encoding: 399 399 322
Width: 783
Flags: W
LayerCount: 2
Fore
SplineSet
202.5 40 m 128,-1,1
 120 90 120 90 74.5 179.5 c 128,-1,2
 29 269 29 269 29 384 c 1,3,-1
 615 384 l 1,4,5
 608 442 608 442 577 489 c 128,-1,6
 546 536 546 536 498 562.5 c 128,-1,7
 450 589 450 589 394 589 c 0,8,9
 335 589 335 589 285 562.5 c 128,-1,10
 235 536 235 536 202 490 c 1,11,-1
 106 586 l 1,12,13
 219 709 219 709 392 709 c 0,14,15
 492 709 492 709 574 662 c 128,-1,16
 656 615 656 615 703 533 c 128,-1,17
 750 451 750 451 750 351 c 256,18,19
 750 251 750 251 703 168.5 c 128,-1,20
 656 86 656 86 574 38 c 128,-1,21
 492 -10 492 -10 392 -10 c 0,22,0
 285 -10 285 -10 202.5 40 c 128,-1,1
530.5 156.5 m 128,-1,24
 589 202 589 202 609 277 c 1,25,-1
 175 277 l 1,26,27
 195 202 195 202 253.5 156.5 c 128,-1,28
 312 111 312 111 394 111 c 0,29,23
 472 111 472 111 530.5 156.5 c 128,-1,24
EndSplineSet
EndChar

StartChar: florin
Encoding: 402 402 323
Width: 382
Flags: W
LayerCount: 2
Fore
SplineSet
282.5 620.5 m 128,-1,1
 259 598 259 598 254 561 c 2,2,-1
 242 465 l 1,3,-1
 377 465 l 1,4,-1
 367 374 l 1,5,-1
 231 374 l 1,6,-1
 182 -28 l 2,7,8
 172 -108 172 -108 123.5 -154 c 128,-1,9
 75 -200 75 -200 -3 -200 c 0,10,11
 -32 -200 -32 -200 -64 -189.5 c 128,-1,12
 -96 -179 -96 -179 -117 -162 c 1,13,-1
 -82 -66 l 1,14,15
 -69 -77 -69 -77 -50.5 -84 c 128,-1,16
 -32 -91 -32 -91 -17 -91 c 0,17,18
 43 -91 43 -91 55 -8 c 2,19,-1
 102 374 l 1,20,-1
 32 374 l 1,21,-1
 42 465 l 1,22,-1
 113 465 l 1,23,-1
 127 580 l 2,24,25
 137 658 137 658 189.5 705 c 128,-1,26
 242 752 242 752 321 752 c 0,27,28
 356 752 356 752 393 741.5 c 128,-1,29
 430 731 430 731 456 714 c 1,30,-1
 411 618 l 1,31,32
 395 629 395 629 375.5 636 c 128,-1,33
 356 643 356 643 340 643 c 0,34,0
 306 643 306 643 282.5 620.5 c 128,-1,1
EndSplineSet
EndChar

StartChar: Ohorn
Encoding: 416 416 324
Width: 834
Flags: W
LayerCount: 2
Fore
SplineSet
750.5 487 m 128,-1,1
 777 423 777 423 777 351 c 0,2,3
 777 251 777 251 728 168.5 c 128,-1,4
 679 86 679 86 593.5 38 c 128,-1,5
 508 -10 508 -10 404 -10 c 256,6,7
 300 -10 300 -10 214.5 38 c 128,-1,8
 129 86 129 86 80 168.5 c 128,-1,9
 31 251 31 251 31 351 c 256,10,11
 31 451 31 451 80 533 c 128,-1,12
 129 615 129 615 214.5 662 c 128,-1,13
 300 709 300 709 404 709 c 0,14,15
 493 709 493 709 571 673 c 0,16,17
 586 668 586 668 604 668 c 0,18,19
 634 668 634 668 650 687.5 c 128,-1,20
 666 707 666 707 666 736 c 0,21,22
 666 773 666 773 644 804 c 1,23,-1
 747 841 l 1,24,25
 774 789 774 789 774 741 c 0,26,27
 774 692 774 692 748 654 c 128,-1,28
 722 616 722 616 677 599 c 1,29,0
 724 551 724 551 750.5 487 c 128,-1,1
523 143 m 128,-1,31
 577 175 577 175 608.5 230 c 128,-1,32
 640 285 640 285 640 351 c 256,33,34
 640 417 640 417 608.5 471.5 c 128,-1,35
 577 526 577 526 523 557.5 c 128,-1,36
 469 589 469 589 406 589 c 0,37,38
 342 589 342 589 287 557.5 c 128,-1,39
 232 526 232 526 200 471.5 c 128,-1,40
 168 417 168 417 168 351 c 256,41,42
 168 285 168 285 200.5 230 c 128,-1,43
 233 175 233 175 287.5 143 c 128,-1,44
 342 111 342 111 406 111 c 0,45,30
 469 111 469 111 523 143 c 128,-1,31
EndSplineSet
EndChar

StartChar: ohorn
Encoding: 417 417 325
Width: 663
Flags: W
LayerCount: 2
Fore
SplineSet
663 574 m 0,1,2
 663 520 663 520 632.5 480 c 128,-1,3
 602 440 602 440 550 427 c 1,4,5
 596 359 596 359 596 268 c 0,6,7
 596 187 596 187 560.5 125 c 128,-1,8
 525 63 525 63 461.5 29 c 128,-1,9
 398 -5 398 -5 315 -5 c 0,10,11
 231 -5 231 -5 167 29 c 128,-1,12
 103 63 103 63 67.5 125 c 128,-1,13
 32 187 32 187 32 268 c 0,14,15
 32 348 32 348 67.5 409.5 c 128,-1,16
 103 471 103 471 167 505 c 128,-1,17
 231 539 231 539 315 539 c 0,18,19
 391 539 391 539 454 509 c 0,20,21
 472 501 472 501 494 501 c 0,22,23
 524 501 524 501 540 520.5 c 128,-1,24
 556 540 556 540 556 569 c 0,25,26
 556 606 556 606 534 637 c 1,27,-1
 637 674 l 1,28,0
 663 625 663 625 663 574 c 0,1,2
423 149 m 128,-1,30
 465 194 465 194 465 266 c 256,31,32
 465 338 465 338 423 383 c 128,-1,33
 381 428 381 428 315 428 c 0,34,35
 247 428 247 428 205 383 c 128,-1,36
 163 338 163 338 163 266 c 256,37,38
 163 194 163 194 205 149 c 128,-1,39
 247 104 247 104 315 104 c 0,40,29
 381 104 381 104 423 149 c 128,-1,30
EndSplineSet
Substitution2: "<3,3> Small Caps in Latin lookup 11 subtable" ohorn.sc
EndChar

StartChar: Uhorn
Encoding: 431 431 326
Width: 790
Flags: W
LayerCount: 2
Fore
SplineSet
801 752 m 0,1,2
 801 702 801 702 771 669 c 128,-1,3
 741 636 741 636 684 626 c 1,4,-1
 684 288 l 2,5,6
 684 197 684 197 647 129.5 c 128,-1,7
 610 62 610 62 541.5 26 c 128,-1,8
 473 -10 473 -10 380 -10 c 0,9,10
 286 -10 286 -10 216.5 26 c 128,-1,11
 147 62 147 62 110 129.5 c 128,-1,12
 73 197 73 197 73 288 c 2,13,-1
 73 700 l 1,14,-1
 207 700 l 1,15,-1
 207 288 l 2,16,17
 207 205 207 205 254 158 c 128,-1,18
 301 111 301 111 380 111 c 256,19,20
 459 111 459 111 504.5 158 c 128,-1,21
 550 205 550 205 550 288 c 2,22,-1
 550 700 l 1,23,-1
 635 700 l 1,24,-1
 635 701 l 1,25,26
 667 701 667 701 683.5 715 c 128,-1,27
 700 729 700 729 700 753 c 0,28,29
 700 778 700 778 685 805 c 1,30,-1
 781 841 l 1,31,0
 801 794 801 794 801 752 c 0,1,2
EndSplineSet
EndChar

StartChar: uhorn
Encoding: 432 432 327
Width: 666
Flags: W
LayerCount: 2
Fore
SplineSet
675 586 m 0,1,2
 675 540 675 540 649.5 508.5 c 128,-1,3
 624 477 624 477 575 464 c 1,4,-1
 575 0 l 1,5,-1
 444 0 l 1,6,-1
 444 99 l 1,7,8
 390 -5 390 -5 258 -5 c 0,9,10
 168 -5 168 -5 116 50 c 128,-1,11
 64 105 64 105 64 200 c 2,12,-1
 64 535 l 1,13,-1
 195 535 l 1,14,-1
 195 238 l 2,15,16
 195 182 195 182 225.5 150 c 128,-1,17
 256 118 256 118 310 118 c 0,18,19
 372 119 372 119 408 162 c 128,-1,20
 444 205 444 205 444 271 c 2,21,-1
 444 535 l 1,22,-1
 509 535 l 2,23,24
 541 535 541 535 557.5 549 c 128,-1,25
 574 563 574 563 574 587 c 0,26,27
 574 612 574 612 559 639 c 1,28,-1
 655 675 l 1,29,0
 675 628 675 628 675 586 c 0,1,2
EndSplineSet
Substitution2: "<3,3> Small Caps in Latin lookup 11 subtable" uhorn.sc
EndChar

StartChar: uni01EA
Encoding: 490 490 339
Width: 809
Flags: W
LayerCount: 2
Fore
SplineSet
729 170 m 128,-1,1
 681 88 681 88 598 41 c 1,2,3
 566 7 566 7 545 -31.5 c 128,-1,4
 524 -70 524 -70 524 -98 c 0,5,6
 524 -131 524 -131 550 -131 c 0,7,8
 567 -131 567 -131 581 -123 c 1,9,-1
 609 -203 l 1,10,11
 561 -223 561 -223 521 -223 c 0,12,13
 472 -223 472 -223 442.5 -195 c 128,-1,14
 413 -167 413 -167 413 -118 c 0,15,16
 413 -60 413 -60 457 -7 c 1,17,18
 432 -10 432 -10 404 -10 c 0,19,20
 300 -10 300 -10 214.5 38 c 128,-1,21
 129 86 129 86 80 168.5 c 128,-1,22
 31 251 31 251 31 351 c 256,23,24
 31 451 31 451 80 533 c 128,-1,25
 129 615 129 615 214.5 662 c 128,-1,26
 300 709 300 709 404 709 c 256,27,28
 508 709 508 709 593.5 662 c 128,-1,29
 679 615 679 615 728 533 c 128,-1,30
 777 451 777 451 777 351 c 0,31,0
 777 252 777 252 729 170 c 128,-1,1
200.5 230 m 128,-1,33
 233 175 233 175 287.5 143 c 128,-1,34
 342 111 342 111 406 111 c 0,35,36
 469 111 469 111 523 143 c 128,-1,37
 577 175 577 175 608.5 230 c 128,-1,38
 640 285 640 285 640 351 c 256,39,40
 640 417 640 417 608.5 471.5 c 128,-1,41
 577 526 577 526 523 557.5 c 128,-1,42
 469 589 469 589 406 589 c 0,43,44
 342 589 342 589 287 557.5 c 128,-1,45
 232 526 232 526 200 471.5 c 128,-1,46
 168 417 168 417 168 351 c 256,47,32
 168 285 168 285 200.5 230 c 128,-1,33
EndSplineSet
EndChar

StartChar: uni01EB
Encoding: 491 491 340
Width: 628
Flags: W
LayerCount: 2
Fore
SplineSet
567 137 m 128,-1,1
 538 79 538 79 485 43 c 1,2,3
 451 9 451 9 429.5 -30 c 128,-1,4
 408 -69 408 -69 408 -98 c 0,5,6
 408 -131 408 -131 434 -131 c 0,7,8
 451 -131 451 -131 465 -123 c 1,9,-1
 493 -203 l 1,10,11
 445 -223 445 -223 405 -223 c 0,12,13
 356 -223 356 -223 326.5 -195 c 128,-1,14
 297 -167 297 -167 297 -118 c 0,15,16
 297 -60 297 -60 344 -4 c 1,17,18
 334 -5 334 -5 315 -5 c 0,19,20
 231 -5 231 -5 167 29 c 128,-1,21
 103 63 103 63 67.5 125 c 128,-1,22
 32 187 32 187 32 268 c 0,23,24
 32 348 32 348 67.5 409.5 c 128,-1,25
 103 471 103 471 167 505 c 128,-1,26
 231 539 231 539 315 539 c 0,27,28
 398 539 398 539 461.5 505 c 128,-1,29
 525 471 525 471 560.5 409.5 c 128,-1,30
 596 348 596 348 596 268 c 0,31,0
 596 195 596 195 567 137 c 128,-1,1
205 149 m 128,-1,33
 247 104 247 104 315 104 c 0,34,35
 381 104 381 104 423 149 c 128,-1,36
 465 194 465 194 465 266 c 256,37,38
 465 338 465 338 423 383 c 128,-1,39
 381 428 381 428 315 428 c 0,40,41
 247 428 247 428 205 383 c 128,-1,42
 163 338 163 338 163 266 c 256,43,32
 163 194 163 194 205 149 c 128,-1,33
EndSplineSet
Substitution2: "<3,3> Small Caps in Latin lookup 11 subtable" uni01EB.sc
EndChar

StartChar: uni0237
Encoding: 567 567 383
Width: 284
Flags: W
LayerCount: 2
Fore
SplineSet
13 -90 m 0,1,2
 46 -91 46 -91 63.5 -68.5 c 128,-1,3
 81 -46 81 -46 81 -3 c 2,4,-1
 81 535 l 1,5,-1
 211 535 l 1,6,-1
 211 -23 l 2,7,8
 211 -106 211 -106 166.5 -152.5 c 128,-1,9
 122 -199 122 -199 43 -199 c 0,10,11
 -12 -199 -12 -199 -61 -179 c 1,12,-1
 -33 -81 l 1,13,0
 -10 -89 -10 -89 13 -90 c 0,1,2
EndSplineSet
EndChar

StartChar: uni0259
Encoding: 601 601 384
Width: 592
Flags: W
LayerCount: 2
Fore
SplineSet
429.5 506 m 128,-1,1
 492 472 492 472 526 410.5 c 128,-1,2
 560 349 560 349 560 269 c 256,3,4
 560 189 560 189 525.5 127 c 128,-1,5
 491 65 491 65 429 30.5 c 128,-1,6
 367 -4 367 -4 288 -4 c 0,7,8
 160 -4 160 -4 95.5 69 c 128,-1,9
 31 142 31 142 31 274 c 0,10,11
 31 300 31 300 32 313 c 1,12,-1
 427 313 l 1,13,14
 414 370 414 370 373.5 402.5 c 128,-1,15
 333 435 333 435 274 435 c 0,16,17
 233 435 233 435 195.5 419.5 c 128,-1,18
 158 404 158 404 130 375 c 1,19,-1
 60 448 l 1,20,21
 100 492 100 492 157.5 516 c 128,-1,22
 215 540 215 540 285 540 c 0,23,0
 367 540 367 540 429.5 506 c 128,-1,1
382.5 131.5 m 128,-1,25
 421 166 421 166 430 226 c 1,26,-1
 150 226 l 1,27,28
 152 167 152 167 189 132 c 128,-1,29
 226 97 226 97 287 97 c 0,30,24
 344 97 344 97 382.5 131.5 c 128,-1,25
EndSplineSet
Substitution2: "<3,3> Small Caps in Latin lookup 11 subtable" uni0259.sc
EndChar

StartChar: uni02BB
Encoding: 699 699 385
Width: 215
Flags: W
LayerCount: 2
Fore
SplineSet
165 497 m 1,0,-1
 50 523 l 1,1,-1
 80 700 l 1,2,-1
 165 700 l 1,3,-1
 165 497 l 1,0,-1
EndSplineSet
EndChar

StartChar: uni02BC
Encoding: 700 700 386
Width: 166
Flags: W
LayerCount: 2
Fore
SplineSet
37 700 m 1,0,-1
 133 700 l 1,1,-1
 116 439 l 1,2,-1
 37 439 l 1,3,-1
 37 700 l 1,0,-1
EndSplineSet
EndChar

StartChar: uni02BE
Encoding: 702 702 387
Width: 239
Flags: W
LayerCount: 2
Fore
SplineSet
62 628 m 1,0,1
 88 628 88 628 107 645.5 c 128,-1,2
 126 663 126 663 126 688 c 256,3,4
 126 713 126 713 107 730.5 c 128,-1,5
 88 748 88 748 62 748 c 1,6,-1
 62 806 l 1,7,8
 111 806 111 806 146 771 c 128,-1,9
 181 736 181 736 181 688 c 256,10,11
 181 640 181 640 146 605 c 128,-1,12
 111 570 111 570 62 570 c 1,13,-1
 62 628 l 1,0,1
EndSplineSet
EndChar

StartChar: uni02BF
Encoding: 703 703 388
Width: 238
Flags: W
LayerCount: 2
Fore
SplineSet
175 628 m 1,0,1
 149 628 149 628 130 645.5 c 128,-1,2
 111 663 111 663 111 688 c 256,3,4
 111 713 111 713 130 730.5 c 128,-1,5
 149 748 149 748 175 748 c 1,6,-1
 175 806 l 1,7,8
 143 806 143 806 115.5 790 c 128,-1,9
 88 774 88 774 72 746.5 c 128,-1,10
 56 719 56 719 56 688 c 256,11,12
 56 657 56 657 72 629.5 c 128,-1,13
 88 602 88 602 115.5 586 c 128,-1,14
 143 570 143 570 175 570 c 1,15,-1
 175 628 l 1,0,1
EndSplineSet
EndChar

StartChar: uni02C8
Encoding: 712 712 391
Width: 132
Flags: W
LayerCount: 2
Fore
SplineSet
20 519 m 1,0,-1
 20 700 l 1,1,-1
 112 700 l 1,2,-1
 112 519 l 1,3,-1
 20 519 l 1,0,-1
EndSplineSet
EndChar

StartChar: uni02CC
Encoding: 716 716 395
Width: 131
Flags: W
LayerCount: 2
Fore
SplineSet
20 -212 m 1,0,-1
 20 -31 l 1,1,-1
 111 -31 l 1,2,-1
 111 -212 l 1,3,-1
 20 -212 l 1,0,-1
EndSplineSet
EndChar

StartChar: gravecomb
Encoding: 768 768 402
Width: 0
Flags: W
LayerCount: 2
Fore
SplineSet
-158 760 m 1,0,-1
 -57 616 l 1,1,-1
 -159 606 l 1,2,-1
 -283 709 l 1,3,-1
 -158 760 l 1,0,-1
EndSplineSet
Substitution2: "<3,3> Small Caps in Latin lookup 11 subtable" gravecomb.sc
EndChar

StartChar: acutecomb
Encoding: 769 769 403
Width: 0
Flags: W
LayerCount: 2
Fore
SplineSet
-144 760 m 1,0,-1
 -19 709 l 1,1,-1
 -147 606 l 1,2,-1
 -248 616 l 1,3,-1
 -144 760 l 1,0,-1
EndSplineSet
Substitution2: "<3,3> Small Caps in Latin lookup 11 subtable" acutecomb.sc
EndChar

StartChar: uni0302
Encoding: 770 770 404
Width: 0
Flags: W
LayerCount: 2
Fore
SplineSet
-11 613 m 1,0,-1
 -127 613 l 1,1,-1
 -182 676 l 1,2,-1
 -237 613 l 1,3,-1
 -353 613 l 1,4,-1
 -245 757 l 1,5,-1
 -119 757 l 1,6,-1
 -11 613 l 1,0,-1
EndSplineSet
Substitution2: "<3,3> Small Caps in Latin lookup 11 subtable" uni0302.sc
EndChar

StartChar: tildecomb
Encoding: 771 771 405
Width: 0
Flags: W
LayerCount: 2
Fore
SplineSet
-118 602 m 0,1,2
 -140 602 -140 602 -160.5 610 c 128,-1,3
 -181 618 -181 618 -206 632 c 0,4,5
 -238 650 -238 650 -251 650 c 0,6,7
 -266 650 -266 650 -272 638.5 c 128,-1,8
 -278 627 -278 627 -278 605 c 1,9,-1
 -361 605 l 1,10,11
 -361 746 -361 746 -274 746 c 0,12,13
 -252 746 -252 746 -231.5 738 c 128,-1,14
 -211 730 -211 730 -186 716 c 0,15,16
 -154 698 -154 698 -141 698 c 0,17,18
 -126 698 -126 698 -120 709.5 c 128,-1,19
 -114 721 -114 721 -114 742 c 1,20,-1
 -30 742 l 1,21,0
 -30 602 -30 602 -118 602 c 0,1,2
EndSplineSet
Substitution2: "<3,3> Small Caps in Latin lookup 11 subtable" tildecomb.sc
EndChar

StartChar: uni0304
Encoding: 772 772 406
Width: 0
Flags: W
LayerCount: 2
Fore
SplineSet
-300 726 m 1,0,-1
 -1 726 l 1,1,-1
 -1 643 l 1,2,-1
 -300 643 l 1,3,-1
 -300 726 l 1,0,-1
EndSplineSet
Substitution2: "<3,3> Small Caps in Latin lookup 11 subtable" uni0304.sc
EndChar

StartChar: uni0306
Encoding: 774 774 407
Width: 0
Flags: W
LayerCount: 2
Fore
SplineSet
-219 707 m 128,-1,1
 -202 689 -202 689 -177 689 c 256,2,3
 -152 689 -152 689 -135 707 c 128,-1,4
 -118 725 -118 725 -116 753 c 1,5,-1
 -30 753 l 1,6,7
 -32 687 -32 687 -73 646 c 128,-1,8
 -114 605 -114 605 -177 605 c 256,9,10
 -240 605 -240 605 -281 646 c 128,-1,11
 -322 687 -322 687 -324 753 c 1,12,-1
 -238 753 l 1,13,0
 -236 725 -236 725 -219 707 c 128,-1,1
EndSplineSet
Substitution2: "<3,3> Small Caps in Latin lookup 11 subtable" uni0306.sc
EndChar

StartChar: uni0307
Encoding: 775 775 408
Width: 0
Flags: W
LayerCount: 2
Fore
SplineSet
-68 743 m 128,-1,1
 -47 721 -47 721 -47 687 c 0,2,3
 -47 654 -47 654 -68 632 c 128,-1,4
 -89 610 -89 610 -121 610 c 256,5,6
 -153 610 -153 610 -174 632 c 128,-1,7
 -195 654 -195 654 -195 687 c 0,8,9
 -195 721 -195 721 -174 743 c 128,-1,10
 -153 765 -153 765 -121 765 c 256,11,0
 -89 765 -89 765 -68 743 c 128,-1,1
EndSplineSet
Substitution2: "<3,3> Small Caps in Latin lookup 11 subtable" uni0307.sc
EndChar

StartChar: uni0308
Encoding: 776 776 409
Width: 0
Flags: W
LayerCount: 2
Fore
SplineSet
-251 732 m 128,-1,1
 -233 713 -233 713 -233 684 c 256,2,3
 -233 655 -233 655 -251 636.5 c 128,-1,4
 -269 618 -269 618 -297 618 c 256,5,6
 -325 618 -325 618 -343 636.5 c 128,-1,7
 -361 655 -361 655 -361 684 c 256,8,9
 -361 713 -361 713 -343 732 c 128,-1,10
 -325 751 -325 751 -297 751 c 256,11,0
 -269 751 -269 751 -251 732 c 128,-1,1
-69.5 732 m 128,-1,13
 -51 713 -51 713 -51 684 c 0,14,15
 -51 656 -51 656 -69.5 637 c 128,-1,16
 -88 618 -88 618 -116 618 c 0,17,18
 -143 618 -143 618 -161.5 637 c 128,-1,19
 -180 656 -180 656 -180 684 c 0,20,21
 -180 713 -180 713 -161.5 732 c 128,-1,22
 -143 751 -143 751 -116 751 c 0,23,12
 -88 751 -88 751 -69.5 732 c 128,-1,13
EndSplineSet
Substitution2: "<3,3> Small Caps in Latin lookup 11 subtable" uni0308.sc
EndChar

StartChar: hookabovecomb
Encoding: 777 777 410
Width: 0
Flags: W
LayerCount: 2
Fore
SplineSet
-53.5 773 m 128,-1,1
 -24 750 -24 750 -24 710 c 0,2,3
 -24 679 -24 679 -46 644 c 128,-1,4
 -68 609 -68 609 -103 578 c 1,5,-1
 -169 608 l 1,6,7
 -149 627 -149 627 -138 649 c 128,-1,8
 -127 671 -127 671 -127 687 c 0,9,10
 -127 699 -127 699 -135 706 c 128,-1,11
 -143 713 -143 713 -155 713 c 0,12,13
 -174 713 -174 713 -191 701 c 1,14,-1
 -230 763 l 1,15,16
 -184 796 -184 796 -127 796 c 0,17,0
 -83 796 -83 796 -53.5 773 c 128,-1,1
EndSplineSet
Substitution2: "<3,3> Small Caps in Latin lookup 11 subtable" hookabovecomb.sc
EndChar

StartChar: uni030A
Encoding: 778 778 411
Width: 0
Flags: W
LayerCount: 2
Fore
SplineSet
-91.5 771 m 128,-1,1
 -58 738 -58 738 -58 692 c 256,2,3
 -58 646 -58 646 -91.5 612.5 c 128,-1,4
 -125 579 -125 579 -171 579 c 0,5,6
 -218 579 -218 579 -251 612.5 c 128,-1,7
 -284 646 -284 646 -284 692 c 256,8,9
 -284 738 -284 738 -250.5 771 c 128,-1,10
 -217 804 -217 804 -171 804 c 256,11,0
 -125 804 -125 804 -91.5 771 c 128,-1,1
-206 725.5 m 128,-1,13
 -221 711 -221 711 -221 692 c 0,14,15
 -221 672 -221 672 -206 658 c 128,-1,16
 -191 644 -191 644 -171 644 c 256,17,18
 -151 644 -151 644 -136 658 c 128,-1,19
 -121 672 -121 672 -121 692 c 0,20,21
 -121 711 -121 711 -136 725.5 c 128,-1,22
 -151 740 -151 740 -171 740 c 256,23,12
 -191 740 -191 740 -206 725.5 c 128,-1,13
EndSplineSet
EndChar

StartChar: uni030B
Encoding: 779 779 412
Width: 0
Flags: W
LayerCount: 2
Fore
SplineSet
-324 766 m 1,0,-1
 -217 720 l 1,1,-1
 -309 606 l 1,2,-1
 -403 615 l 1,3,-1
 -324 766 l 1,0,-1
-151 766 m 1,4,-1
 -44 720 l 1,5,-1
 -136 606 l 1,6,-1
 -230 615 l 1,7,-1
 -151 766 l 1,4,-1
EndSplineSet
Substitution2: "<3,3> Small Caps in Latin lookup 11 subtable" uni030B.sc
EndChar

StartChar: uni030C
Encoding: 780 780 413
Width: 0
Flags: W
LayerCount: 2
Fore
SplineSet
-131 757 m 1,0,-1
 -15 757 l 1,1,-1
 -123 613 l 1,2,-1
 -249 613 l 1,3,-1
 -357 757 l 1,4,-1
 -241 757 l 1,5,-1
 -186 694 l 1,6,-1
 -131 757 l 1,0,-1
EndSplineSet
Substitution2: "<3,3> Small Caps in Latin lookup 11 subtable" uni030C.sc
EndChar

StartChar: uni030F
Encoding: 783 783 414
Width: 0
Flags: W
LayerCount: 2
Fore
SplineSet
-307 766 m 1,0,-1
 -228 615 l 1,1,-1
 -322 606 l 1,2,-1
 -414 720 l 1,3,-1
 -307 766 l 1,0,-1
-134 766 m 1,4,-1
 -55 615 l 1,5,-1
 -149 606 l 1,6,-1
 -241 720 l 1,7,-1
 -134 766 l 1,4,-1
EndSplineSet
Substitution2: "<3,3> Small Caps in Latin lookup 11 subtable" uni030F.sc
EndChar

StartChar: uni0311
Encoding: 785 785 415
Width: 0
Flags: W
LayerCount: 2
Fore
SplineSet
-324 605 m 1,0,1
 -322 671 -322 671 -281 712 c 128,-1,2
 -240 753 -240 753 -177 753 c 256,3,4
 -114 753 -114 753 -73 712 c 128,-1,5
 -32 671 -32 671 -30 605 c 1,6,-1
 -116 605 l 1,7,8
 -118 633 -118 633 -135 650.5 c 128,-1,9
 -152 668 -152 668 -177 668 c 256,10,11
 -202 668 -202 668 -219 650.5 c 128,-1,12
 -236 633 -236 633 -238 605 c 1,13,-1
 -324 605 l 1,0,1
EndSplineSet
Substitution2: "<3,3> Small Caps in Latin lookup 11 subtable" uni0311.sc
EndChar

StartChar: uni0312
Encoding: 786 786 416
Width: 0
Flags: W
LayerCount: 2
Fore
SplineSet
-72 612 m 1,0,-1
 -188 612 l 1,1,-1
 -126 777 l 1,2,-1
 -38 777 l 1,3,-1
 -72 612 l 1,0,-1
EndSplineSet
EndChar

StartChar: uni031B
Encoding: 795 795 417
Width: 0
Flags: W
LayerCount: 2
Fore
SplineSet
-42 586 m 0,1,2
 -42 525 -42 525 -86 490.5 c 128,-1,3
 -130 456 -130 456 -211 456 c 1,4,-1
 -208 535 l 1,5,6
 -176 535 -176 535 -159.5 549 c 128,-1,7
 -143 563 -143 563 -143 587 c 0,8,9
 -143 612 -143 612 -158 639 c 1,10,-1
 -62 675 l 1,11,0
 -42 628 -42 628 -42 586 c 0,1,2
EndSplineSet
EndChar

StartChar: dotbelowcomb
Encoding: 803 803 418
Width: 0
Flags: W
LayerCount: 2
Fore
SplineSet
-68 -92 m 128,-1,1
 -47 -114 -47 -114 -47 -148 c 0,2,3
 -47 -181 -47 -181 -68 -203 c 128,-1,4
 -89 -225 -89 -225 -121 -225 c 256,5,6
 -153 -225 -153 -225 -174 -203 c 128,-1,7
 -195 -181 -195 -181 -195 -148 c 0,8,9
 -195 -114 -195 -114 -174 -92 c 128,-1,10
 -153 -70 -153 -70 -121 -70 c 256,11,0
 -89 -70 -89 -70 -68 -92 c 128,-1,1
EndSplineSet
Substitution2: "<3,3> Small Caps in Latin lookup 11 subtable" dotbelowcomb.sc
EndChar

StartChar: uni0324
Encoding: 804 804 419
Width: 0
Flags: W
LayerCount: 2
Fore
SplineSet
-237 -87 m 128,-1,1
 -219 -106 -219 -106 -219 -135 c 256,2,3
 -219 -164 -219 -164 -237 -182.5 c 128,-1,4
 -255 -201 -255 -201 -283 -201 c 256,5,6
 -311 -201 -311 -201 -329 -182.5 c 128,-1,7
 -347 -164 -347 -164 -347 -135 c 256,8,9
 -347 -106 -347 -106 -329 -87 c 128,-1,10
 -311 -68 -311 -68 -283 -68 c 256,11,0
 -255 -68 -255 -68 -237 -87 c 128,-1,1
-55.5 -87 m 128,-1,13
 -37 -106 -37 -106 -37 -135 c 0,14,15
 -37 -163 -37 -163 -55.5 -182 c 128,-1,16
 -74 -201 -74 -201 -102 -201 c 0,17,18
 -129 -201 -129 -201 -147.5 -182 c 128,-1,19
 -166 -163 -166 -163 -166 -135 c 0,20,21
 -166 -106 -166 -106 -147.5 -87 c 128,-1,22
 -129 -68 -129 -68 -102 -68 c 0,23,12
 -74 -68 -74 -68 -55.5 -87 c 128,-1,13
EndSplineSet
Substitution2: "<3,3> Small Caps in Latin lookup 11 subtable" uni0324.sc
EndChar

StartChar: uni0326
Encoding: 806 806 420
Width: 0
Flags: W
LayerCount: 2
Fore
SplineSet
-156 -59 m 1,0,-1
 -40 -59 l 1,1,-1
 -102 -224 l 1,2,-1
 -190 -224 l 1,3,-1
 -156 -59 l 1,0,-1
EndSplineSet
EndChar

StartChar: uni0327
Encoding: 807 807 421
Width: 0
Flags: W
LayerCount: 2
Fore
SplineSet
-97 0 m 1,0,-1
 -117 -53 l 1,1,2
 -75 -60 -75 -60 -55 -81.5 c 128,-1,3
 -35 -103 -35 -103 -35 -133 c 0,4,5
 -35 -177 -35 -177 -68.5 -200.5 c 128,-1,6
 -102 -224 -102 -224 -154 -224 c 0,7,8
 -203 -224 -203 -224 -254 -203 c 1,9,-1
 -230 -133 l 1,10,11
 -199 -144 -199 -144 -173 -144 c 0,12,13
 -154 -144 -154 -144 -143 -137 c 128,-1,14
 -132 -130 -132 -130 -132 -120 c 0,15,16
 -132 -109 -132 -109 -145 -102 c 128,-1,17
 -158 -95 -158 -95 -182 -95 c 2,18,-1
 -212 -95 l 1,19,-1
 -178 8 l 1,20,-1
 -97 0 l 1,0,-1
EndSplineSet
Substitution2: "<3,3> Small Caps in Latin lookup 11 subtable" uni0327.sc
EndChar

StartChar: uni0328
Encoding: 808 808 422
Width: 0
Flags: W
LayerCount: 2
Fore
SplineSet
-35 0 m 1,0,1
 -80 -32 -80 -32 -100 -56.5 c 128,-1,2
 -120 -81 -120 -81 -120 -103 c 0,3,4
 -120 -117 -120 -117 -113 -124 c 128,-1,5
 -106 -131 -106 -131 -95 -131 c 0,6,7
 -76 -131 -76 -131 -63 -123 c 1,8,-1
 -35 -203 l 1,9,10
 -81 -223 -81 -223 -123 -223 c 0,11,12
 -172 -223 -172 -223 -201.5 -197.5 c 128,-1,13
 -231 -172 -231 -172 -231 -127 c 0,14,15
 -231 -85 -231 -85 -203.5 -42 c 128,-1,16
 -176 1 -176 1 -115 38 c 1,17,-1
 -35 0 l 1,0,1
EndSplineSet
EndChar

StartChar: uni032E
Encoding: 814 814 423
Width: 0
Flags: W
LayerCount: 2
Fore
SplineSet
-219 -99 m 128,-1,1
 -202 -117 -202 -117 -177 -117 c 256,2,3
 -152 -117 -152 -117 -135 -99 c 128,-1,4
 -118 -81 -118 -81 -116 -53 c 1,5,-1
 -30 -53 l 1,6,7
 -32 -119 -32 -119 -73 -160 c 128,-1,8
 -114 -201 -114 -201 -177 -201 c 256,9,10
 -240 -201 -240 -201 -281 -160 c 128,-1,11
 -322 -119 -322 -119 -324 -53 c 1,12,-1
 -238 -53 l 1,13,0
 -236 -81 -236 -81 -219 -99 c 128,-1,1
EndSplineSet
EndChar

StartChar: uni0331
Encoding: 817 817 424
Width: 0
Flags: W
LayerCount: 2
Fore
SplineSet
-330 -80 m 1,0,-1
 -31 -80 l 1,1,-1
 -31 -163 l 1,2,-1
 -330 -163 l 1,3,-1
 -330 -80 l 1,0,-1
EndSplineSet
EndChar

StartChar: uni0335
Encoding: 821 821 425
Width: 0
Flags: W
LayerCount: 2
Fore
SplineSet
-367 478 m 1,0,-1
 -9 478 l 1,1,-1
 -9 400 l 1,2,-1
 -367 400 l 1,3,-1
 -367 478 l 1,0,-1
EndSplineSet
EndChar

StartChar: uni0336
Encoding: 822 822 426
Width: 0
Flags: W
LayerCount: 2
Fore
SplineSet
-513 478 m 1,0,-1
 -91 478 l 1,1,-1
 -91 400 l 1,2,-1
 -513 400 l 1,3,-1
 -513 478 l 1,0,-1
EndSplineSet
EndChar

StartChar: uni0337
Encoding: 823 823 427
Width: 0
Flags: W
LayerCount: 2
Fore
SplineSet
-20 561 m 1,0,-1
 -180 91 l 1,1,-1
 -291 91 l 1,2,-1
 -131 561 l 1,3,-1
 -20 561 l 1,0,-1
EndSplineSet
EndChar

StartChar: uni0338
Encoding: 824 824 428
Width: 0
Flags: W
LayerCount: 2
Fore
SplineSet
-322 0 m 1,0,-1
 -68 742 l 1,1,-1
 43 742 l 1,2,-1
 -212 0 l 1,3,-1
 -322 0 l 1,0,-1
EndSplineSet
EndChar

StartChar: uni0394
Encoding: 916 916 429
Width: 747
Flags: W
LayerCount: 2
Fore
SplineSet
445 700 m 1,0,-1
 748 0 l 1,1,-1
 -1 0 l 1,2,-1
 306 700 l 1,3,-1
 445 700 l 1,0,-1
182 105 m 1,4,-1
 560 105 l 1,5,-1
 372 557 l 1,6,-1
 182 105 l 1,4,-1
EndSplineSet
EndChar

StartChar: uni03A9
Encoding: 937 937 430
Width: 875
Flags: W
LayerCount: 2
Fore
SplineSet
640 227 m 128,-1,1
 678 290 678 290 678 360 c 0,2,3
 678 421 678 421 649 473.5 c 128,-1,4
 620 526 620 526 565.5 557.5 c 128,-1,5
 511 589 511 589 437 589 c 0,6,7
 364 589 364 589 309.5 557.5 c 128,-1,8
 255 526 255 526 226 473.5 c 128,-1,9
 197 421 197 421 197 360 c 0,10,11
 197 291 197 291 235.5 227.5 c 128,-1,12
 274 164 274 164 347 123 c 1,13,-1
 347 0 l 1,14,-1
 8 0 l 1,15,-1
 8 113 l 1,16,-1
 212 113 l 1,17,18
 152 160 152 160 115 232.5 c 128,-1,19
 78 305 78 305 78 378 c 0,20,21
 78 471 78 471 124.5 546 c 128,-1,22
 171 621 171 621 253 663.5 c 128,-1,23
 335 706 335 706 437 706 c 256,24,25
 539 706 539 706 621.5 663.5 c 128,-1,26
 704 621 704 621 751 546 c 128,-1,27
 798 471 798 471 798 378 c 0,28,29
 798 306 798 306 761 232.5 c 128,-1,30
 724 159 724 159 664 113 c 1,31,-1
 867 113 l 1,32,-1
 867 0 l 1,33,-1
 529 0 l 1,34,-1
 529 123 l 1,35,0
 602 164 602 164 640 227 c 128,-1,1
EndSplineSet
EndChar

StartChar: uni03BC
Encoding: 956 956 431
Width: 677
Flags: W
LayerCount: 2
Fore
SplineSet
597 535 m 1,0,-1
 597 0 l 1,1,-1
 466 0 l 1,2,-1
 466 99 l 1,3,4
 412 -5 412 -5 280 -5 c 0,5,6
 245 -5 245 -5 216 4 c 1,7,-1
 216 -194 l 1,8,-1
 86 -194 l 1,9,-1
 86 535 l 1,10,-1
 217 535 l 1,11,-1
 217 238 l 2,12,13
 217 182 217 182 247.5 150 c 128,-1,14
 278 118 278 118 332 118 c 0,15,16
 394 119 394 119 430 162 c 128,-1,17
 466 205 466 205 466 271 c 2,18,-1
 466 535 l 1,19,-1
 597 535 l 1,0,-1
EndSplineSet
EndChar

StartChar: pi
Encoding: 960 960 432
Width: 726
Flags: W
LayerCount: 2
Fore
SplineSet
716 436 m 1,0,-1
 575 436 l 1,1,-1
 575 0 l 1,2,-1
 466 0 l 1,3,-1
 466 436 l 1,4,-1
 335 436 l 1,5,-1
 286 0 l 1,6,-1
 177 0 l 1,7,-1
 225 436 l 1,8,-1
 179 436 l 2,9,10
 141 436 141 436 115.5 414 c 128,-1,11
 90 392 90 392 91 359 c 0,12,13
 91 343 91 343 98 322.5 c 128,-1,14
 105 302 105 302 116 285 c 1,15,-1
 25 250 l 1,16,17
 8 279 8 279 -2 315 c 128,-1,18
 -12 351 -12 351 -12 383 c 0,19,20
 -12 425 -12 425 11 460 c 128,-1,21
 34 495 34 495 74 515 c 128,-1,22
 114 535 114 535 163 535 c 2,23,-1
 716 535 l 1,24,-1
 716 436 l 1,0,-1
EndSplineSet
EndChar

StartChar: uni1E08
Encoding: 7688 7688 433
Width: 696
Flags: W
LayerCount: 2
Fore
SplineSet
529 859 m 1,0,-1
 401 756 l 1,1,-1
 300 766 l 1,2,-1
 404 910 l 1,3,-1
 529 859 l 1,0,-1
560 30.5 m 128,-1,5
 497 -1 497 -1 431 -8 c 1,6,-1
 414 -53 l 1,7,8
 456 -60 456 -60 476 -81.5 c 128,-1,9
 496 -103 496 -103 496 -133 c 0,10,11
 496 -177 496 -177 462.5 -200.5 c 128,-1,12
 429 -224 429 -224 377 -224 c 0,13,14
 328 -224 328 -224 277 -203 c 1,15,-1
 301 -133 l 1,16,17
 332 -144 332 -144 358 -144 c 0,18,19
 377 -144 377 -144 388 -137 c 128,-1,20
 399 -130 399 -130 399 -120 c 0,21,22
 399 -109 399 -109 386 -102 c 128,-1,23
 373 -95 373 -95 349 -95 c 2,24,-1
 319 -95 l 1,25,-1
 348 -7 l 1,26,27
 258 4 258 4 185.5 53.5 c 128,-1,28
 113 103 113 103 72 181 c 128,-1,29
 31 259 31 259 31 351 c 0,30,31
 31 451 31 451 80 533 c 128,-1,32
 129 615 129 615 213.5 662 c 128,-1,33
 298 709 298 709 401 709 c 0,34,35
 476 709 476 709 548 679 c 128,-1,36
 620 649 620 649 671 596 c 1,37,-1
 593 498 l 1,38,39
 556 541 556 541 505.5 565 c 128,-1,40
 455 589 455 589 403 589 c 0,41,42
 338 589 338 589 284 558 c 128,-1,43
 230 527 230 527 199 472.5 c 128,-1,44
 168 418 168 418 168 353 c 256,45,46
 168 288 168 288 199 233.5 c 128,-1,47
 230 179 230 179 284 147.5 c 128,-1,48
 338 116 338 116 403 116 c 0,49,50
 453 116 453 116 503.5 138 c 128,-1,51
 554 160 554 160 593 199 c 1,52,-1
 672 111 l 1,53,4
 623 62 623 62 560 30.5 c 128,-1,5
EndSplineSet
EndChar

StartChar: uni1E09
Encoding: 7689 7689 434
Width: 564
Flags: W
LayerCount: 2
Fore
SplineSet
442 709 m 1,0,-1
 314 606 l 1,1,-1
 213 616 l 1,2,-1
 317 760 l 1,3,-1
 442 709 l 1,0,-1
454 31 m 128,-1,5
 405 4 405 4 342 -3 c 1,6,-1
 323 -53 l 1,7,8
 365 -60 365 -60 385 -81.5 c 128,-1,9
 405 -103 405 -103 405 -133 c 0,10,11
 405 -177 405 -177 371.5 -200.5 c 128,-1,12
 338 -224 338 -224 286 -224 c 0,13,14
 237 -224 237 -224 186 -203 c 1,15,-1
 210 -133 l 1,16,17
 241 -144 241 -144 267 -144 c 0,18,19
 286 -144 286 -144 297 -137 c 128,-1,20
 308 -130 308 -130 308 -120 c 0,21,22
 308 -109 308 -109 295 -102 c 128,-1,23
 282 -95 282 -95 258 -95 c 2,24,-1
 228 -95 l 1,25,-1
 259 -2 l 1,26,27
 191 7 191 7 139.5 43 c 128,-1,28
 88 79 88 79 60 136.5 c 128,-1,29
 32 194 32 194 32 266 c 0,30,31
 32 347 32 347 66.5 409 c 128,-1,32
 101 471 101 471 162.5 505 c 128,-1,33
 224 539 224 539 304 539 c 0,34,35
 377 539 377 539 434.5 513.5 c 128,-1,36
 492 488 492 488 528 441 c 1,37,-1
 449 366 l 1,38,39
 395 425 395 425 309 425 c 0,40,41
 244 425 244 425 203.5 381 c 128,-1,42
 163 337 163 337 163 267 c 0,43,44
 163 195 163 195 203.5 151 c 128,-1,45
 244 107 244 107 309 107 c 0,46,47
 405 107 405 107 453 170 c 1,48,-1
 534 103 l 1,49,4
 503 58 503 58 454 31 c 128,-1,5
EndSplineSet
Substitution2: "<3,3> Small Caps in Latin lookup 11 subtable" uni1E09.sc
EndChar

StartChar: uni1E1C
Encoding: 7708 7708 443
Width: 661
Flags: W
LayerCount: 2
Fore
SplineSet
229 798 m 128,-1,1
 188 839 188 839 186 905 c 1,2,-1
 272 905 l 1,3,4
 274 877 274 877 291 859 c 128,-1,5
 308 841 308 841 333 841 c 256,6,7
 358 841 358 841 375 859 c 128,-1,8
 392 877 392 877 394 905 c 1,9,-1
 480 905 l 1,10,11
 478 839 478 839 437 798 c 128,-1,12
 396 757 396 757 333 757 c 256,13,0
 270 757 270 757 229 798 c 128,-1,1
401 0 m 1,14,-1
 381 -53 l 1,15,16
 423 -60 423 -60 443 -81.5 c 128,-1,17
 463 -103 463 -103 463 -133 c 0,18,19
 463 -177 463 -177 429.5 -200.5 c 128,-1,20
 396 -224 396 -224 344 -224 c 0,21,22
 295 -224 295 -224 244 -203 c 1,23,-1
 268 -133 l 1,24,25
 299 -144 299 -144 325 -144 c 0,26,27
 344 -144 344 -144 355 -137 c 128,-1,28
 366 -130 366 -130 366 -120 c 0,29,30
 366 -109 366 -109 353 -102 c 128,-1,31
 340 -95 340 -95 316 -95 c 2,32,-1
 286 -95 l 1,33,-1
 317 0 l 1,34,-1
 86 0 l 1,35,-1
 86 700 l 1,36,-1
 599 700 l 1,37,-1
 599 583 l 1,38,-1
 220 583 l 1,39,-1
 220 410 l 1,40,-1
 560 410 l 1,41,-1
 560 293 l 1,42,-1
 220 293 l 1,43,-1
 220 117 l 1,44,-1
 611 117 l 1,45,-1
 611 0 l 1,46,-1
 401 0 l 1,14,-1
EndSplineSet
EndChar

StartChar: uni1E1D
Encoding: 7709 7709 444
Width: 592
Flags: W
LayerCount: 2
Fore
SplineSet
186 646 m 128,-1,1
 145 687 145 687 143 753 c 1,2,-1
 229 753 l 1,3,4
 231 725 231 725 248 707 c 128,-1,5
 265 689 265 689 290 689 c 256,6,7
 315 689 315 689 332 707 c 128,-1,8
 349 725 349 725 351 753 c 1,9,-1
 437 753 l 1,10,11
 435 687 435 687 394 646 c 128,-1,12
 353 605 353 605 290 605 c 256,13,0
 227 605 227 605 186 646 c 128,-1,1
496.5 466 m 128,-1,15
 561 393 561 393 561 261 c 0,16,17
 561 235 561 235 560 222 c 1,18,-1
 165 222 l 1,19,20
 178 165 178 165 218.5 132.5 c 128,-1,21
 259 100 259 100 318 100 c 0,22,23
 359 100 359 100 396.5 115.5 c 128,-1,24
 434 131 434 131 462 160 c 1,25,-1
 532 87 l 1,26,27
 463 11 463 11 353 -2 c 1,28,-1
 334 -53 l 1,29,30
 376 -60 376 -60 396 -81.5 c 128,-1,31
 416 -103 416 -103 416 -133 c 0,32,33
 416 -177 416 -177 382.5 -200.5 c 128,-1,34
 349 -224 349 -224 297 -224 c 0,35,36
 248 -224 248 -224 197 -203 c 1,37,-1
 221 -133 l 1,38,39
 252 -144 252 -144 278 -144 c 0,40,41
 297 -144 297 -144 308 -137 c 128,-1,42
 319 -130 319 -130 319 -120 c 0,43,44
 319 -109 319 -109 306 -102 c 128,-1,45
 293 -95 293 -95 269 -95 c 2,46,-1
 239 -95 l 1,47,-1
 269 -3 l 1,48,49
 198 4 198 4 144 40 c 128,-1,50
 90 76 90 76 61 134.5 c 128,-1,51
 32 193 32 193 32 266 c 0,52,53
 32 346 32 346 66.5 408 c 128,-1,54
 101 470 101 470 163 504.5 c 128,-1,55
 225 539 225 539 304 539 c 0,56,14
 432 539 432 539 496.5 466 c 128,-1,15
442 309 m 1,57,58
 440 368 440 368 403 403 c 128,-1,59
 366 438 366 438 305 438 c 0,60,61
 248 438 248 438 209.5 403.5 c 128,-1,62
 171 369 171 369 162 309 c 1,63,-1
 442 309 l 1,57,58
EndSplineSet
Substitution2: "<3,3> Small Caps in Latin lookup 11 subtable" uni1E1D.sc
EndChar

StartChar: uni1E9E
Encoding: 7838 7838 506
Width: 686
Flags: W
LayerCount: 2
Fore
SplineSet
617 330.5 m 128,-1,1
 658 280 658 280 658 206 c 0,2,3
 658 111 658 111 592 55.5 c 128,-1,4
 526 0 526 0 409 0 c 2,5,-1
 328 0 l 1,6,-1
 328 115 l 1,7,-1
 404 115 l 2,8,9
 458 115 458 115 489.5 140.5 c 128,-1,10
 521 166 521 166 521 210 c 0,11,12
 521 255 521 255 490 280.5 c 128,-1,13
 459 306 459 306 404 306 c 2,14,-1
 363 306 l 1,15,-1
 363 410 l 1,16,-1
 493 562 l 1,17,18
 444 588 444 588 377 588 c 0,19,20
 297 588 297 588 252 542 c 128,-1,21
 207 496 207 496 207 414 c 2,22,-1
 207 0 l 1,23,-1
 73 0 l 1,24,-1
 73 410 l 2,25,26
 73 550 73 550 152 628 c 128,-1,27
 231 706 231 706 371 706 c 0,28,29
 509 706 509 706 607 630 c 1,30,-1
 607 521 l 1,31,-1
 502 400 l 1,32,0
 576 381 576 381 617 330.5 c 128,-1,1
EndSplineSet
EndChar

StartChar: figuredash
Encoding: 8210 8210 603
Width: 617
Flags: W
LayerCount: 2
Fore
SplineSet
0 349 m 1,0,-1
 617 349 l 1,1,-1
 617 260 l 1,2,-1
 0 260 l 1,3,-1
 0 349 l 1,0,-1
EndSplineSet
EndChar

StartChar: endash
Encoding: 8211 8211 604
Width: 406
Flags: W
LayerCount: 2
Fore
SplineSet
0 349 m 1,0,-1
 406 349 l 1,1,-1
 406 260 l 1,2,-1
 0 260 l 1,3,-1
 0 349 l 1,0,-1
EndSplineSet
EndChar

StartChar: emdash
Encoding: 8212 8212 605
Width: 679
Flags: W
LayerCount: 2
Fore
SplineSet
0 349 m 1,0,-1
 679 349 l 1,1,-1
 679 260 l 1,2,-1
 0 260 l 1,3,-1
 0 349 l 1,0,-1
EndSplineSet
EndChar

StartChar: quoteleft
Encoding: 8216 8216 607
Width: 221
Flags: W
LayerCount: 2
Fore
SplineSet
167 565 m 0,1,2
 167 534 167 534 148 514.5 c 128,-1,3
 129 495 129 495 100 495 c 0,4,5
 72 495 72 495 52.5 514 c 128,-1,6
 33 533 33 533 33 565 c 0,7,8
 33 580 33 580 37.5 592 c 128,-1,9
 42 604 42 604 51 621 c 2,10,-1
 114 742 l 1,11,-1
 179 742 l 1,12,-1
 137 623 l 1,13,0
 167 604 167 604 167 565 c 0,1,2
EndSplineSet
Substitution2: "<3,3> Small Caps in Latin lookup 11 subtable" quoteleft.sc
EndChar

StartChar: quoteright
Encoding: 8217 8217 608
Width: 221
Flags: W
LayerCount: 2
Fore
SplineSet
159.5 723 m 128,-1,1
 179 704 179 704 179 672 c 0,2,3
 179 657 179 657 174.5 645 c 128,-1,4
 170 633 170 633 161 616 c 2,5,-1
 98 495 l 1,6,-1
 33 495 l 1,7,-1
 75 614 l 1,8,9
 45 634 45 634 45 672 c 0,10,11
 45 703 45 703 64 722.5 c 128,-1,12
 83 742 83 742 112 742 c 0,13,0
 140 742 140 742 159.5 723 c 128,-1,1
EndSplineSet
Substitution2: "<3,3> Small Caps in Latin lookup 11 subtable" quoteright.sc
EndChar

StartChar: quotesinglbase
Encoding: 8218 8218 609
Width: 221
Flags: W
LayerCount: 2
Fore
SplineSet
159.5 114 m 128,-1,1
 179 95 179 95 179 63 c 0,2,3
 179 48 179 48 174.5 36 c 128,-1,4
 170 24 170 24 161 7 c 2,5,-1
 98 -114 l 1,6,-1
 33 -114 l 1,7,-1
 75 5 l 1,8,9
 45 25 45 25 45 63 c 0,10,11
 45 94 45 94 64 113.5 c 128,-1,12
 83 133 83 133 112 133 c 0,13,0
 140 133 140 133 159.5 114 c 128,-1,1
EndSplineSet
EndChar

StartChar: dagger
Encoding: 8224 8224 613
Width: 546
Flags: W
LayerCount: 2
Fore
SplineSet
209 699 m 1,0,-1
 334 699 l 1,1,-1
 334 489 l 1,2,-1
 531 489 l 1,3,-1
 531 372 l 1,4,-1
 334 372 l 1,5,-1
 334 -189 l 1,6,-1
 209 -189 l 1,7,-1
 209 372 l 1,8,-1
 16 372 l 1,9,-1
 16 489 l 1,10,-1
 209 489 l 1,11,-1
 209 699 l 1,0,-1
EndSplineSet
EndChar

StartChar: daggerdbl
Encoding: 8225 8225 614
Width: 546
Flags: W
LayerCount: 2
Fore
SplineSet
531 372 m 1,0,-1
 334 372 l 1,1,-1
 334 156 l 1,2,-1
 531 156 l 1,3,-1
 531 40 l 1,4,-1
 334 40 l 1,5,-1
 334 -189 l 1,6,-1
 209 -189 l 1,7,-1
 209 40 l 1,8,-1
 16 40 l 1,9,-1
 16 156 l 1,10,-1
 209 156 l 1,11,-1
 209 372 l 1,12,-1
 16 372 l 1,13,-1
 16 489 l 1,14,-1
 209 489 l 1,15,-1
 209 699 l 1,16,-1
 334 699 l 1,17,-1
 334 489 l 1,18,-1
 531 489 l 1,19,-1
 531 372 l 1,0,-1
EndSplineSet
EndChar

StartChar: bullet
Encoding: 8226 8226 615
Width: 293
Flags: W
LayerCount: 2
Fore
SplineSet
220.5 347.5 m 128,-1,1
 250 317 250 317 250 271 c 0,2,3
 250 224 250 224 220.5 193 c 128,-1,4
 191 162 191 162 146 162 c 0,5,6
 102 162 102 162 73 193 c 128,-1,7
 44 224 44 224 44 271 c 0,8,9
 44 317 44 317 73 347.5 c 128,-1,10
 102 378 102 378 146 378 c 0,11,0
 191 378 191 378 220.5 347.5 c 128,-1,1
EndSplineSet
EndChar

StartChar: ellipsis
Encoding: 8230 8230 616
Width: 628
Flags: W
LayerCount: 2
Fore
SplineSet
157.5 111 m 128,-1,1
 176 92 176 92 176 61 c 0,2,3
 176 31 176 31 157 11 c 128,-1,4
 138 -9 138 -9 110 -9 c 256,5,6
 82 -9 82 -9 63 11 c 128,-1,7
 44 31 44 31 44 61 c 0,8,9
 44 92 44 92 62.5 111 c 128,-1,10
 81 130 81 130 110 130 c 256,11,0
 139 130 139 130 157.5 111 c 128,-1,1
361.5 111 m 128,-1,13
 380 92 380 92 380 61 c 0,14,15
 380 31 380 31 361 11 c 128,-1,16
 342 -9 342 -9 314 -9 c 256,17,18
 286 -9 286 -9 267 11 c 128,-1,19
 248 31 248 31 248 61 c 0,20,21
 248 92 248 92 266.5 111 c 128,-1,22
 285 130 285 130 314 130 c 256,23,12
 343 130 343 130 361.5 111 c 128,-1,13
565.5 111 m 128,-1,25
 584 92 584 92 584 61 c 0,26,27
 584 31 584 31 565 11 c 128,-1,28
 546 -9 546 -9 518 -9 c 256,29,30
 490 -9 490 -9 471 11 c 128,-1,31
 452 31 452 31 452 61 c 0,32,33
 452 92 452 92 470.5 111 c 128,-1,34
 489 130 489 130 518 130 c 256,35,24
 547 130 547 130 565.5 111 c 128,-1,25
EndSplineSet
EndChar

StartChar: minute
Encoding: 8242 8242 618
Width: 214
Flags: W
LayerCount: 2
Fore
SplineSet
57 700 m 1,0,-1
 172 700 l 1,1,-1
 125 459 l 1,2,-1
 40 459 l 1,3,-1
 57 700 l 1,0,-1
EndSplineSet
EndChar

StartChar: guilsinglleft
Encoding: 8249 8249 620
Width: 277
Flags: W
LayerCount: 2
Fore
SplineSet
135 440 m 1,0,-1
 243 440 l 1,1,-1
 136 262 l 1,2,-1
 243 85 l 1,3,-1
 135 85 l 1,4,-1
 18 262 l 1,5,-1
 135 440 l 1,0,-1
EndSplineSet
Substitution2: "<3,3> Small Caps in Latin lookup 11 subtable" guilsinglleft.sc
Substitution2: "'rtla' Right to Left Alternates in Latin lookup 0 subtable" guilsinglright
EndChar

StartChar: guilsinglright
Encoding: 8250 8250 621
Width: 277
Flags: W
LayerCount: 2
Fore
SplineSet
142 84 m 1,0,-1
 34 84 l 1,1,-1
 141 262 l 1,2,-1
 34 439 l 1,3,-1
 142 439 l 1,4,-1
 259 262 l 1,5,-1
 142 84 l 1,0,-1
EndSplineSet
Substitution2: "<3,3> Small Caps in Latin lookup 11 subtable" guilsinglright.sc
Substitution2: "'rtla' Right to Left Alternates in Latin lookup 0 subtable" guilsinglleft
EndChar

StartChar: fraction
Encoding: 8260 8260 622
Width: 90
Flags: W
LayerCount: 2
Fore
SplineSet
247 700 m 1,0,-1
 346 700 l 1,1,-1
 -164 0 l 1,2,-1
 -264 0 l 1,3,-1
 247 700 l 1,0,-1
EndSplineSet
EndChar

StartChar: colonmonetary
Encoding: 8353 8353 640
Width: 696
Flags: W
LayerCount: 2
Fore
SplineSet
505 8 m 1,1,-1
 481 -145 l 1,2,-1
 386 -145 l 1,3,-1
 407 -10 l 1,4,-1
 396 -10 l 2,5,6
 371 -10 371 -10 347 -7 c 1,7,-1
 326 -145 l 1,8,-1
 231 -145 l 1,9,-1
 257 16 l 1,10,11
 155 56 155 56 93 146.5 c 128,-1,12
 31 237 31 237 31 351 c 0,13,14
 31 430 31 430 62 498 c 128,-1,15
 93 566 93 566 148.5 615.5 c 128,-1,16
 204 665 204 665 276 689 c 1,17,-1
 300 838 l 1,18,-1
 395 838 l 1,19,-1
 373 708 l 1,20,21
 382 709 382 709 401 709 c 0,22,23
 422 709 422 709 433 708 c 1,24,-1
 454 838 l 1,25,-1
 549 838 l 1,26,-1
 525 688 l 1,27,28
 612 656 612 656 671 596 c 1,29,-1
 593 498 l 1,30,31
 556 541 556 541 505.5 565 c 128,-1,32
 455 589 455 589 403 589 c 0,33,34
 338 589 338 589 284 558 c 128,-1,35
 230 527 230 527 199 472.5 c 128,-1,36
 168 418 168 418 168 353 c 256,37,38
 168 288 168 288 199 233.5 c 128,-1,39
 230 179 230 179 284 147.5 c 128,-1,40
 338 116 338 116 403 116 c 0,41,42
 453 116 453 116 503.5 138 c 128,-1,43
 554 160 554 160 593 199 c 1,44,-1
 672 111 l 1,45,0
 602 39 602 39 505 8 c 1,1,-1
EndSplineSet
EndChar

StartChar: franc
Encoding: 8355 8355 641
Width: 588
Flags: W
LayerCount: 2
Fore
SplineSet
573 583 m 1,0,-1
 225 583 l 1,1,-1
 225 394 l 1,2,-1
 542 394 l 1,3,-1
 542 279 l 1,4,-1
 225 279 l 1,5,-1
 225 177 l 1,6,-1
 451 177 l 1,7,-1
 451 114 l 1,8,-1
 225 114 l 1,9,-1
 225 0 l 1,10,-1
 91 0 l 1,11,-1
 91 114 l 1,12,-1
 12 114 l 1,13,-1
 12 177 l 1,14,-1
 91 177 l 1,15,-1
 91 700 l 1,16,-1
 574 700 l 1,17,-1
 573 583 l 1,0,-1
EndSplineSet
EndChar

StartChar: lira
Encoding: 8356 8356 642
Width: 551
Flags: W
LayerCount: 2
Fore
SplineSet
250 109 m 1,0,-1
 524 109 l 1,1,-1
 524 0 l 1,2,-1
 35 0 l 1,3,-1
 35 109 l 1,4,-1
 116 109 l 1,5,-1
 116 248 l 1,6,-1
 35 248 l 1,7,-1
 35 310 l 1,8,-1
 116 310 l 1,9,-1
 116 367 l 1,10,-1
 35 367 l 1,11,-1
 35 429 l 1,12,-1
 116 429 l 1,13,-1
 116 480 l 2,14,15
 116 588 116 588 173 647 c 128,-1,16
 230 706 230 706 336 706 c 0,17,18
 394 706 394 706 446 683 c 128,-1,19
 498 660 498 660 537 617 c 1,20,-1
 485 513 l 1,21,22
 420 586 420 586 349 586 c 0,23,24
 301 586 301 586 275.5 558.5 c 128,-1,25
 250 531 250 531 250 477 c 2,26,-1
 250 429 l 1,27,-1
 424 429 l 1,28,-1
 424 367 l 1,29,-1
 250 367 l 1,30,-1
 250 310 l 1,31,-1
 424 310 l 1,32,-1
 424 248 l 1,33,-1
 250 248 l 1,34,-1
 250 109 l 1,0,-1
EndSplineSet
EndChar

StartChar: uni20A6
Encoding: 8358 8358 643
Width: 766
Flags: W
LayerCount: 2
Fore
SplineSet
758 373 m 1,0,-1
 670 373 l 1,1,-1
 670 316 l 1,2,-1
 758 316 l 1,3,-1
 758 254 l 1,4,-1
 670 254 l 1,5,-1
 670 0 l 1,6,-1
 545 0 l 1,7,-1
 226 475 l 1,8,-1
 226 0 l 1,9,-1
 96 0 l 1,10,-1
 96 254 l 1,11,-1
 9 254 l 1,12,-1
 9 316 l 1,13,-1
 96 316 l 1,14,-1
 96 373 l 1,15,-1
 9 373 l 1,16,-1
 9 435 l 1,17,-1
 96 435 l 1,18,-1
 96 700 l 1,19,-1
 221 700 l 1,20,-1
 542 222 l 1,21,-1
 542 700 l 1,22,-1
 670 700 l 1,23,-1
 670 435 l 1,24,-1
 758 435 l 1,25,-1
 758 373 l 1,0,-1
EndSplineSet
EndChar

StartChar: peseta
Encoding: 8359 8359 644
Width: 1529
Flags: W
LayerCount: 2
Fore
SplineSet
547.5 636.5 m 128,-1,1
 620 573 620 573 620 458 c 0,2,3
 620 338 620 338 547.5 272 c 128,-1,4
 475 206 475 206 343 206 c 2,5,-1
 216 206 l 1,6,-1
 216 0 l 1,7,-1
 86 0 l 1,8,-1
 86 700 l 1,9,-1
 343 700 l 2,10,0
 475 700 475 700 547.5 636.5 c 128,-1,1
1006 131 m 1,12,-1
 1036 33 l 1,13,14
 972 -6 972 -6 903 -6 c 0,15,16
 835 -6 835 -6 792 34.5 c 128,-1,17
 749 75 749 75 749 154 c 2,18,-1
 749 419 l 1,19,-1
 674 419 l 1,20,-1
 674 513 l 1,21,-1
 749 513 l 1,22,-1
 749 660 l 1,23,-1
 874 660 l 1,24,-1
 874 513 l 1,25,-1
 1018 513 l 1,26,-1
 1018 419 l 1,27,-1
 874 419 l 1,28,-1
 874 178 l 2,29,30
 874 141 874 141 888 125 c 128,-1,31
 902 109 902 109 930 109 c 0,32,11
 960 109 960 109 1006 131 c 1,12,-1
454.5 352 m 128,-1,34
 496 387 496 387 496 455 c 0,35,36
 496 522 496 522 454.5 555.5 c 128,-1,37
 413 589 413 589 335 589 c 2,38,-1
 216 589 l 1,39,-1
 216 317 l 1,40,-1
 335 317 l 2,41,33
 413 317 413 317 454.5 352 c 128,-1,34
1245 352.5 m 128,-1,43
 1269 339 1269 339 1324 321 c 0,44,45
 1378 305 1378 305 1413 288.5 c 128,-1,46
 1448 272 1448 272 1473.5 239.5 c 128,-1,47
 1499 207 1499 207 1499 155 c 0,48,49
 1499 78 1499 78 1440 36.5 c 128,-1,50
 1381 -5 1381 -5 1293 -5 c 0,51,52
 1232 -5 1232 -5 1174 13.5 c 128,-1,53
 1116 32 1116 32 1075 66 c 1,54,-1
 1119 153 l 1,55,56
 1155 124 1155 124 1203.5 107.5 c 128,-1,57
 1252 91 1252 91 1296 91 c 0,58,59
 1333 91 1333 91 1355 104.5 c 128,-1,60
 1377 118 1377 118 1377 145 c 0,61,62
 1377 174 1377 174 1351 189.5 c 128,-1,63
 1325 205 1325 205 1271 221 c 0,64,65
 1217 239 1217 239 1183.5 254.5 c 128,-1,66
 1150 270 1150 270 1126 301.5 c 128,-1,67
 1102 333 1102 333 1102 384 c 0,68,69
 1102 460 1102 460 1158.5 500.5 c 128,-1,70
 1215 541 1215 541 1300 541 c 0,71,72
 1353 541 1353 541 1403.5 527 c 128,-1,73
 1454 513 1454 513 1492 487 c 1,74,-1
 1447 396 l 1,75,76
 1409 418 1409 418 1369 430.5 c 128,-1,77
 1329 443 1329 443 1294 443 c 0,78,79
 1261 443 1261 443 1241 430.5 c 128,-1,80
 1221 418 1221 418 1221 392 c 256,81,42
 1221 366 1221 366 1245 352.5 c 128,-1,43
EndSplineSet
EndChar

StartChar: uni20A9
Encoding: 8361 8361 645
Width: 998
Flags: W
LayerCount: 2
Fore
SplineSet
997 373 m 1,0,-1
 890 373 l 1,1,-1
 873 316 l 1,2,-1
 987 316 l 1,3,-1
 987 254 l 1,4,-1
 855 254 l 1,5,-1
 780 0 l 1,6,-1
 641 0 l 1,7,-1
 573 254 l 1,8,-1
 427 254 l 1,9,-1
 358 0 l 1,10,-1
 221 0 l 1,11,-1
 146 254 l 1,12,-1
 11 254 l 1,13,-1
 11 316 l 1,14,-1
 128 316 l 1,15,-1
 111 373 l 1,16,-1
 1 373 l 1,17,-1
 1 435 l 1,18,-1
 93 435 l 1,19,-1
 15 700 l 1,20,-1
 157 700 l 1,21,-1
 224 435 l 1,22,-1
 368 435 l 1,23,-1
 438 700 l 1,24,-1
 570 700 l 1,25,-1
 640 435 l 1,26,-1
 784 435 l 1,27,-1
 850 700 l 1,28,-1
 986 700 l 1,29,-1
 908 435 l 1,30,-1
 997 435 l 1,31,-1
 997 373 l 1,0,-1
501 524 m 1,32,-1
 477 435 l 1,33,-1
 525 435 l 1,34,-1
 501 524 l 1,32,-1
240 373 m 1,35,-1
 254 316 l 1,36,-1
 337 316 l 1,37,-1
 352 373 l 1,38,-1
 240 373 l 1,35,-1
444 316 m 1,39,-1
 557 316 l 1,40,-1
 542 373 l 1,41,-1
 460 373 l 1,42,-1
 444 316 l 1,39,-1
754 316 m 1,43,-1
 768 373 l 1,44,-1
 656 373 l 1,45,-1
 671 316 l 1,46,-1
 754 316 l 1,43,-1
295 157 m 1,47,-1
 320 254 l 1,48,-1
 270 254 l 1,49,-1
 295 157 l 1,47,-1
714 155 m 1,50,-1
 738 254 l 1,51,-1
 688 254 l 1,52,-1
 714 155 l 1,50,-1
EndSplineSet
EndChar

StartChar: dong
Encoding: 8363 8363 646
Width: 683
Flags: W
LayerCount: 2
Fore
SplineSet
666 585 m 1,0,-1
 597 585 l 1,1,-1
 597 0 l 1,2,-1
 467 0 l 1,3,-1
 467 86 l 1,4,5
 438 41 438 41 392.5 17.5 c 128,-1,6
 347 -6 347 -6 287 -6 c 0,7,8
 211 -6 211 -6 153.5 28.5 c 128,-1,9
 96 63 96 63 64 125.5 c 128,-1,10
 32 188 32 188 32 269 c 0,11,12
 32 349 32 349 63.5 410.5 c 128,-1,13
 95 472 95 472 152.5 506 c 128,-1,14
 210 540 210 540 284 540 c 0,15,16
 345 540 345 540 391 516 c 128,-1,17
 437 492 437 492 467 447 c 1,18,-1
 467 585 l 1,19,-1
 347 585 l 1,20,-1
 347 650 l 1,21,-1
 467 650 l 1,22,-1
 467 742 l 1,23,-1
 597 742 l 1,24,-1
 597 650 l 1,25,-1
 666 650 l 1,26,-1
 666 585 l 1,0,-1
424.5 148.5 m 128,-1,28
 467 194 467 194 467 266 c 256,29,30
 467 338 467 338 424.5 383.5 c 128,-1,31
 382 429 382 429 315 429 c 256,32,33
 248 429 248 429 206 383.5 c 128,-1,34
 164 338 164 338 163 266 c 0,35,36
 164 194 164 194 206 148.5 c 128,-1,37
 248 103 248 103 315 103 c 256,38,27
 382 103 382 103 424.5 148.5 c 128,-1,28
107 -130 m 1,39,-1
 107 -66 l 1,40,-1
 539 -66 l 1,41,-1
 539 -130 l 1,42,-1
 107 -130 l 1,39,-1
EndSplineSet
EndChar

StartChar: Euro
Encoding: 8364 8364 647
Width: 786
Flags: W
LayerCount: 2
Fore
SplineSet
763 114 m 1,0,1
 708 59 708 59 635 26.5 c 128,-1,2
 562 -6 562 -6 487 -6 c 0,3,4
 402 -6 402 -6 329.5 27 c 128,-1,5
 257 60 257 60 206 119 c 128,-1,6
 155 178 155 178 135 254 c 1,7,-1
 35 254 l 1,8,-1
 35 316 l 1,9,-1
 124 316 l 1,10,11
 122 338 122 338 122 351 c 0,12,13
 122 366 122 366 123 373 c 1,14,-1
 35 373 l 1,15,-1
 35 435 l 1,16,-1
 132 435 l 1,17,18
 151 513 151 513 202.5 574 c 128,-1,19
 254 635 254 635 329 669.5 c 128,-1,20
 404 704 404 704 492 704 c 0,21,22
 567 704 567 704 639 674 c 128,-1,23
 711 644 711 644 762 592 c 1,24,-1
 684 494 l 1,25,26
 646 536 646 536 595.5 560.5 c 128,-1,27
 545 585 545 585 494 585 c 0,28,29
 418 585 418 585 358 543.5 c 128,-1,30
 298 502 298 502 274 435 c 1,31,-1
 529 435 l 1,32,-1
 529 373 l 1,33,-1
 260 373 l 1,34,35
 259 366 259 366 259 353 c 0,36,37
 259 334 259 334 262 316 c 1,38,-1
 529 316 l 1,39,-1
 529 254 l 1,40,-1
 280 254 l 1,41,42
 308 193 308 193 365.5 156.5 c 128,-1,43
 423 120 423 120 494 120 c 0,44,45
 544 120 544 120 594 141.5 c 128,-1,46
 644 163 644 163 684 202 c 1,47,-1
 763 114 l 1,0,1
EndSplineSet
EndChar

StartChar: uni20AD
Encoding: 8365 8365 648
Width: 674
Flags: W
LayerCount: 2
Fore
SplineSet
660 0 m 1,0,-1
 499 0 l 1,1,-1
 210 315 l 1,2,-1
 210 0 l 1,3,-1
 75 0 l 1,4,-1
 75 324 l 1,5,-1
 -3 324 l 1,6,-1
 -3 386 l 1,7,-1
 75 386 l 1,8,-1
 75 700 l 1,9,-1
 210 700 l 1,10,-1
 210 390 l 1,11,-1
 485 700 l 1,12,-1
 642 700 l 1,13,-1
 358 386 l 1,14,-1
 591 386 l 1,15,-1
 591 324 l 1,16,-1
 358 324 l 1,17,-1
 660 0 l 1,0,-1
EndSplineSet
EndChar

StartChar: uni20B1
Encoding: 8369 8369 649
Width: 751
Flags: W
LayerCount: 2
Fore
SplineSet
739 481 m 1,0,-1
 659 481 l 1,1,2
 660 474 660 474 660 459 c 0,3,4
 660 446 660 446 658 424 c 1,5,-1
 739 424 l 1,6,-1
 739 362 l 1,7,-1
 645 362 l 1,8,9
 619 287 619 287 551.5 246.5 c 128,-1,10
 484 206 484 206 382 206 c 2,11,-1
 230 206 l 1,12,-1
 230 0 l 1,13,-1
 96 0 l 1,14,-1
 96 362 l 1,15,-1
 17 362 l 1,16,-1
 17 424 l 1,17,-1
 96 424 l 1,18,-1
 96 481 l 1,19,-1
 17 481 l 1,20,-1
 17 543 l 1,21,-1
 96 543 l 1,22,-1
 96 700 l 1,23,-1
 382 700 l 2,24,25
 488 700 488 700 556 659.5 c 128,-1,26
 624 619 624 619 648 543 c 1,27,-1
 739 543 l 1,28,-1
 739 481 l 1,0,-1
492 357 m 128,-1,30
 532 390 532 390 532 455 c 0,31,32
 532 519 532 519 492 551 c 128,-1,33
 452 583 452 583 376 583 c 2,34,-1
 230 583 l 1,35,-1
 230 324 l 1,36,-1
 376 324 l 2,37,29
 452 324 452 324 492 357 c 128,-1,30
EndSplineSet
EndChar

StartChar: uni20B2
Encoding: 8370 8370 650
Width: 725
Flags: W
LayerCount: 2
Fore
SplineSet
561 348 m 1,0,-1
 678 348 l 1,1,-1
 678 82 l 1,2,3
 633 48 633 48 573.5 24.5 c 128,-1,4
 514 1 514 1 452 -7 c 1,5,-1
 452 -145 l 1,6,-1
 353 -145 l 1,7,-1
 353 -7 l 1,8,9
 261 4 261 4 188 53.5 c 128,-1,10
 115 103 115 103 73 181 c 128,-1,11
 31 259 31 259 31 351 c 0,12,13
 31 442 31 442 72.5 518.5 c 128,-1,14
 114 595 114 595 187.5 644 c 128,-1,15
 261 693 261 693 353 705 c 1,16,-1
 353 838 l 1,17,-1
 452 838 l 1,18,-1
 452 707 l 1,19,20
 517 700 517 700 577.5 674 c 128,-1,21
 638 648 638 648 683 608 c 1,22,-1
 607 509 l 1,23,24
 567 547 567 547 514.5 568 c 128,-1,25
 462 589 462 589 409 589 c 0,26,27
 343 589 343 589 287.5 557.5 c 128,-1,28
 232 526 232 526 200 471 c 128,-1,29
 168 416 168 416 168 351 c 0,30,31
 168 285 168 285 200.5 230 c 128,-1,32
 233 175 233 175 288 143 c 128,-1,33
 343 111 343 111 410 111 c 0,34,35
 446 111 446 111 485.5 122.5 c 128,-1,36
 525 134 525 134 561 155 c 1,37,-1
 561 348 l 1,0,-1
EndSplineSet
EndChar

StartChar: uni20B5
Encoding: 8373 8373 651
Width: 696
Flags: W
LayerCount: 2
Fore
SplineSet
566 33 m 128,-1,1
 506 2 506 2 442 -7 c 1,2,-1
 442 -145 l 1,3,-1
 343 -145 l 1,4,-1
 343 -6 l 1,5,6
 254 6 254 6 183 55.5 c 128,-1,7
 112 105 112 105 71.5 182.5 c 128,-1,8
 31 260 31 260 31 351 c 256,9,10
 31 442 31 442 71.5 518 c 128,-1,11
 112 594 112 594 183 643 c 128,-1,12
 254 692 254 692 343 705 c 1,13,-1
 343 838 l 1,14,-1
 442 838 l 1,15,-1
 442 707 l 1,16,17
 506 700 506 700 566.5 670.5 c 128,-1,18
 627 641 627 641 671 596 c 1,19,-1
 593 498 l 1,20,21
 556 541 556 541 505.5 565 c 128,-1,22
 455 589 455 589 403 589 c 0,23,24
 338 589 338 589 284 558 c 128,-1,25
 230 527 230 527 199 472.5 c 128,-1,26
 168 418 168 418 168 353 c 256,27,28
 168 288 168 288 199 233.5 c 128,-1,29
 230 179 230 179 284 147.5 c 128,-1,30
 338 116 338 116 403 116 c 0,31,32
 453 116 453 116 503.5 138 c 128,-1,33
 554 160 554 160 593 199 c 1,34,-1
 672 111 l 1,35,0
 626 64 626 64 566 33 c 128,-1,1
EndSplineSet
EndChar

StartChar: uni20B9
Encoding: 8377 8377 652
Width: 591
Flags: W
LayerCount: 2
Fore
SplineSet
452 588 m 1,0,1
 483 545 483 545 491 485 c 1,2,-1
 569 485 l 1,3,-1
 569 423 l 1,4,-1
 492 423 l 1,5,6
 483 302 483 302 385 245 c 1,7,-1
 569 0 l 1,8,-1
 417 0 l 1,9,-1
 261 209 l 1,10,11
 237 206 237 206 210 206 c 2,12,-1
 31 206 l 1,13,-1
 31 319 l 1,14,-1
 207 319 l 2,15,16
 275 319 275 319 315 345 c 128,-1,17
 355 371 355 371 364 423 c 1,18,-1
 31 423 l 1,19,-1
 31 485 l 1,20,-1
 365 485 l 1,21,22
 346 587 346 587 207 587 c 2,23,-1
 31 587 l 1,24,-1
 31 700 l 1,25,-1
 569 700 l 1,26,-1
 569 588 l 1,27,-1
 452 588 l 1,0,1
EndSplineSet
EndChar

StartChar: uni20BA
Encoding: 8378 8378 653
Width: 694
Flags: W
LayerCount: 2
Fore
SplineSet
668 352 m 1,0,1
 668 251 668 251 621 170.5 c 128,-1,2
 574 90 574 90 490 45 c 128,-1,3
 406 0 406 0 299 0 c 2,4,-1
 105 0 l 1,5,-1
 105 310 l 1,6,-1
 30 288 l 1,7,-1
 30 357 l 1,8,-1
 105 379 l 1,9,-1
 105 459 l 1,10,-1
 30 437 l 1,11,-1
 30 505 l 1,12,-1
 105 527 l 1,13,-1
 105 700 l 1,14,-1
 239 700 l 1,15,-1
 239 565 l 1,16,-1
 528 648 l 1,17,-1
 528 580 l 1,18,-1
 239 497 l 1,19,-1
 239 417 l 1,20,-1
 528 500 l 1,21,-1
 528 431 l 1,22,-1
 239 348 l 1,23,-1
 239 118 l 1,24,-1
 307 118 l 2,25,26
 371 118 371 118 422.5 147.5 c 128,-1,27
 474 177 474 177 503 230.5 c 128,-1,28
 532 284 532 284 532 351 c 1,29,-1
 668 352 l 1,0,1
EndSplineSet
EndChar

StartChar: uni20BC
Encoding: 8380 8380 654
Width: 750
Flags: W
LayerCount: 2
Fore
SplineSet
584 545.5 m 128,-1,1
 649 499 649 499 685 428 c 128,-1,2
 721 357 721 357 721 272 c 2,3,-1
 721 0 l 1,4,-1
 586 0 l 1,5,-1
 586 271 l 2,6,7
 586 348 586 348 545 405 c 128,-1,8
 504 462 504 462 437 482 c 1,9,-1
 437 0 l 1,10,-1
 313 0 l 1,11,-1
 313 481 l 1,12,13
 246 461 246 461 204.5 404 c 128,-1,14
 163 347 163 347 163 271 c 2,15,-1
 163 0 l 1,16,-1
 29 0 l 1,17,-1
 29 272 l 2,18,19
 29 357 29 357 65 428 c 128,-1,20
 101 499 101 499 166 545.5 c 128,-1,21
 231 592 231 592 313 605 c 1,22,-1
 313 700 l 1,23,-1
 437 700 l 1,24,-1
 437 605 l 1,25,0
 519 592 519 592 584 545.5 c 128,-1,1
EndSplineSet
EndChar

StartChar: uni20BD
Encoding: 8381 8381 655
Width: 681
Flags: W
LayerCount: 2
Fore
SplineSet
227 224 m 1,0,-1
 227 159 l 1,1,-1
 470 159 l 1,2,-1
 470 97 l 1,3,-1
 227 97 l 1,4,-1
 227 0 l 1,5,-1
 93 0 l 1,6,-1
 93 97 l 1,7,-1
 13 97 l 1,8,-1
 13 159 l 1,9,-1
 93 159 l 1,10,-1
 93 700 l 1,11,-1
 379 700 l 2,12,13
 512 700 512 700 585 639 c 128,-1,14
 658 578 658 578 658 467 c 0,15,16
 658 351 658 351 585 287.5 c 128,-1,17
 512 224 512 224 379 224 c 2,18,-1
 227 224 l 1,0,-1
489 555.5 m 128,-1,20
 449 586 449 586 373 586 c 2,21,-1
 227 586 l 1,22,-1
 227 338 l 1,23,-1
 373 338 l 2,24,25
 449 338 449 338 489 370 c 128,-1,26
 529 402 529 402 529 464 c 0,27,19
 529 525 529 525 489 555.5 c 128,-1,20
EndSplineSet
EndChar

StartChar: uni2113
Encoding: 8467 8467 656
Width: 469
Flags: W
LayerCount: 2
Fore
SplineSet
211 654.5 m 128,-1,1
 258 707 258 707 322 707 c 0,2,3
 374 707 374 707 404.5 673 c 128,-1,4
 435 639 435 639 435 578 c 0,5,6
 435 483 435 483 368 393.5 c 128,-1,7
 301 304 301 304 196 219 c 1,8,9
 191 187 191 187 191 169 c 0,10,11
 191 92 191 92 254 92 c 0,12,13
 290 92 290 92 321 114 c 128,-1,14
 352 136 352 136 385 175 c 1,15,-1
 428 122 l 1,16,17
 344 -5 344 -5 225 -5 c 0,18,19
 157 -5 157 -5 125.5 36.5 c 128,-1,20
 94 78 94 78 92 155 c 1,21,-1
 43 122 l 1,22,-1
 21 183 l 1,23,-1
 103 241 l 1,24,-1
 144 497 l 2,25,0
 164 602 164 602 211 654.5 c 128,-1,1
317 450 m 128,-1,27
 358 518 358 518 358 576 c 0,28,29
 358 602 358 602 347.5 616 c 128,-1,30
 337 630 337 630 320 630 c 0,31,32
 295 630 295 630 275 600.5 c 128,-1,33
 255 571 255 571 244 508 c 2,34,-1
 213 326 l 1,35,26
 276 382 276 382 317 450 c 128,-1,27
EndSplineSet
EndChar

StartChar: trademark
Encoding: 8482 8482 658
Width: 891
Flags: W
LayerCount: 2
Fore
SplineSet
-6 700 m 1,0,-1
 329 700 l 1,1,-1
 329 618 l 1,2,-1
 209 618 l 1,3,-1
 209 280 l 1,4,-1
 113 280 l 1,5,-1
 113 618 l 1,6,-1
 -6 618 l 1,7,-1
 -6 700 l 1,0,-1
382 700 m 1,8,-1
 491 700 l 1,9,-1
 612 446 l 1,10,-1
 733 700 l 1,11,-1
 842 700 l 1,12,-1
 842 280 l 1,13,-1
 755 280 l 1,14,-1
 755 559 l 1,15,-1
 644 322 l 1,16,-1
 580 322 l 1,17,-1
 470 559 l 1,18,-1
 470 280 l 1,19,-1
 382 280 l 1,20,-1
 382 700 l 1,8,-1
EndSplineSet
EndChar

StartChar: estimated
Encoding: 8494 8494 660
Width: 809
Flags: W
LayerCount: 2
Fore
SplineSet
192 308 m 2,1,-1
 192 144 l 2,2,3
 192 135 192 135 200 125 c 0,4,5
 239 83 239 83 292.5 59.5 c 128,-1,6
 346 36 346 36 406 36 c 0,7,8
 469 36 469 36 525.5 62.5 c 128,-1,9
 582 89 582 89 621 135 c 1,10,-1
 670 135 l 1,11,12
 624 81 624 81 554 49.5 c 128,-1,13
 484 18 484 18 405 18 c 0,14,15
 314 18 314 18 237 58.5 c 128,-1,16
 160 99 160 99 115 168 c 128,-1,17
 70 237 70 237 70 319 c 256,18,19
 70 401 70 401 115 470.5 c 128,-1,20
 160 540 160 540 237 580.5 c 128,-1,21
 314 621 314 621 405 621 c 256,22,23
 496 621 496 621 573 580.5 c 128,-1,24
 650 540 650 540 695 470.5 c 128,-1,25
 740 401 740 401 740 319 c 2,26,-1
 740 312 l 1,27,-1
 197 312 l 2,28,0
 192 312 192 312 192 308 c 2,1,-1
609 518 m 0,30,31
 569 558 569 558 516.5 580.5 c 128,-1,32
 464 603 464 603 406 603 c 0,33,34
 347 603 347 603 294 579.5 c 128,-1,35
 241 556 241 556 201 515 c 0,36,37
 192 506 192 506 192 495 c 2,38,-1
 192 333 l 2,39,40
 192 328 192 328 197 328 c 2,41,-1
 613 328 l 2,42,43
 618 328 618 328 618 333 c 2,44,-1
 618 498 l 2,45,29
 618 509 618 509 609 518 c 0,30,31
EndSplineSet
EndChar

StartChar: arrowleft
Encoding: 8592 8592 667
Width: 600
Flags: W
LayerCount: 2
Fore
SplineSet
531 324 m 1,0,-1
 531 228 l 1,1,-1
 251 228 l 1,2,-1
 353 61 l 1,3,-1
 238 61 l 1,4,-1
 97 276 l 1,5,-1
 238 491 l 1,6,-1
 353 491 l 1,7,-1
 251 324 l 1,8,-1
 531 324 l 1,0,-1
EndSplineSet
EndChar

StartChar: arrowup
Encoding: 8593 8593 668
Width: 600
Flags: W
LayerCount: 2
Fore
SplineSet
511 358 m 1,0,-1
 511 246 l 1,1,-1
 352 345 l 1,2,-1
 352 59 l 1,3,-1
 249 59 l 1,4,-1
 249 347 l 1,5,-1
 89 246 l 1,6,-1
 89 358 l 1,7,-1
 299 501 l 1,8,-1
 511 358 l 1,0,-1
EndSplineSet
EndChar

StartChar: arrowright
Encoding: 8594 8594 669
Width: 600
Flags: W
LayerCount: 2
Fore
SplineSet
362 491 m 1,0,-1
 503 276 l 1,1,-1
 362 61 l 1,2,-1
 247 61 l 1,3,-1
 349 228 l 1,4,-1
 69 228 l 1,5,-1
 69 324 l 1,6,-1
 349 324 l 1,7,-1
 247 491 l 1,8,-1
 362 491 l 1,0,-1
EndSplineSet
EndChar

StartChar: arrowdown
Encoding: 8595 8595 670
Width: 600
Flags: W
LayerCount: 2
Fore
SplineSet
377 205 m 1,0,-1
 537 306 l 1,1,-1
 537 194 l 1,2,-1
 327 51 l 1,3,-1
 115 194 l 1,4,-1
 115 306 l 1,5,-1
 274 207 l 1,6,-1
 274 493 l 1,7,-1
 377 493 l 1,8,-1
 377 205 l 1,0,-1
EndSplineSet
EndChar

StartChar: arrowboth
Encoding: 8596 8596 671
Width: 753
Flags: W
LayerCount: 2
Fore
SplineSet
562 491 m 1,0,-1
 703 276 l 1,1,-1
 562 61 l 1,2,-1
 446 61 l 1,3,-1
 549 228 l 1,4,-1
 204 228 l 1,5,-1
 306 61 l 1,6,-1
 191 61 l 1,7,-1
 50 276 l 1,8,-1
 191 491 l 1,9,-1
 306 491 l 1,10,-1
 204 324 l 1,11,-1
 549 324 l 1,12,-1
 446 491 l 1,13,-1
 562 491 l 1,0,-1
EndSplineSet
EndChar

StartChar: arrowupdn
Encoding: 8597 8597 672
Width: 600
Flags: W
LayerCount: 2
Fore
SplineSet
352 200 m 1,0,-1
 512 301 l 1,1,-1
 512 189 l 1,2,-1
 302 45 l 1,3,-1
 90 189 l 1,4,-1
 90 301 l 1,5,-1
 249 202 l 1,6,-1
 249 520 l 1,7,-1
 89 419 l 1,8,-1
 89 531 l 1,9,-1
 299 674 l 1,10,-1
 511 531 l 1,11,-1
 511 419 l 1,12,-1
 352 518 l 1,13,-1
 352 200 l 1,0,-1
EndSplineSet
EndChar

StartChar: uni2196
Encoding: 8598 8598 673
Width: 600
Flags: W
LayerCount: 2
Fore
SplineSet
502 165 m 1,0,-1
 429 92 l 1,1,-1
 226 295 l 1,2,-1
 184 111 l 1,3,-1
 105 190 l 1,4,-1
 152 440 l 1,5,-1
 403 488 l 1,6,-1
 482 409 l 1,7,-1
 299 367 l 1,8,-1
 502 165 l 1,0,-1
EndSplineSet
EndChar

StartChar: uni2197
Encoding: 8599 8599 674
Width: 600
Flags: W
LayerCount: 2
Fore
SplineSet
509 184 m 1,0,-1
 430 105 l 1,1,-1
 388 288 l 1,2,-1
 186 85 l 1,3,-1
 113 158 l 1,4,-1
 316 361 l 1,5,-1
 132 403 l 1,6,-1
 211 482 l 1,7,-1
 461 435 l 1,8,-1
 509 184 l 1,0,-1
EndSplineSet
EndChar

StartChar: uni2198
Encoding: 8600 8600 675
Width: 600
Flags: W
LayerCount: 2
Fore
SplineSet
430 453 m 1,0,-1
 509 374 l 1,1,-1
 462 124 l 1,2,-1
 211 76 l 1,3,-1
 132 155 l 1,4,-1
 315 197 l 1,5,-1
 112 399 l 1,6,-1
 185 472 l 1,7,-1
 388 269 l 1,8,-1
 430 453 l 1,0,-1
EndSplineSet
EndChar

StartChar: uni2199
Encoding: 8601 8601 676
Width: 600
Flags: W
LayerCount: 2
Fore
SplineSet
501 406 m 1,0,-1
 298 203 l 1,1,-1
 482 161 l 1,2,-1
 403 82 l 1,3,-1
 153 129 l 1,4,-1
 105 380 l 1,5,-1
 184 459 l 1,6,-1
 226 276 l 1,7,-1
 428 479 l 1,8,-1
 501 406 l 1,0,-1
EndSplineSet
EndChar

StartChar: partialdiff
Encoding: 8706 8706 677
Width: 616
Flags: W
LayerCount: 2
Fore
SplineSet
156.5 689 m 128,-1,1
 215 706 215 706 271 706 c 0,2,3
 362 706 362 706 430.5 661 c 128,-1,4
 499 616 499 616 536 534 c 128,-1,5
 573 452 573 452 573 344 c 0,6,7
 573 235 573 235 538.5 156.5 c 128,-1,8
 504 78 504 78 438.5 36 c 128,-1,9
 373 -6 373 -6 284 -6 c 0,10,11
 209 -6 209 -6 152.5 23 c 128,-1,12
 96 52 96 52 65 105.5 c 128,-1,13
 34 159 34 159 34 231 c 0,14,15
 34 298 34 298 62 349 c 128,-1,16
 90 400 90 400 141.5 427.5 c 128,-1,17
 193 455 193 455 262 455 c 0,18,19
 330 455 330 455 377 426 c 128,-1,20
 424 397 424 397 443 346 c 1,21,22
 444 357 444 357 444 379 c 0,23,24
 444 482 444 482 397 538 c 128,-1,25
 350 594 350 594 263 594 c 0,26,27
 219 594 219 594 178 580.5 c 128,-1,28
 137 567 137 567 104 540 c 1,29,-1
 52 642 l 1,30,0
 98 672 98 672 156.5 689 c 128,-1,1
193 318.5 m 128,-1,32
 159 287 159 287 159 232 c 0,33,34
 159 174 159 174 194.5 141.5 c 128,-1,35
 230 109 230 109 291 109 c 0,36,37
 356 109 356 109 390.5 144.5 c 128,-1,38
 425 180 425 180 425 228 c 0,39,40
 425 281 425 281 387.5 315.5 c 128,-1,41
 350 350 350 350 286 350 c 0,42,31
 227 350 227 350 193 318.5 c 128,-1,32
EndSplineSet
EndChar

StartChar: emptyset
Encoding: 8709 8709 678
Width: 494
Flags: W
LayerCount: 2
Fore
SplineSet
426 455 m 1,0,1
 468 395 468 395 468 326 c 0,2,3
 468 266 468 266 438.5 215.5 c 128,-1,4
 409 165 409 165 359 135 c 128,-1,5
 309 105 309 105 251 105 c 0,6,7
 212 105 212 105 176 118.5 c 128,-1,8
 140 132 140 132 111 157 c 1,9,-1
 39 88 l 1,10,-1
 0 133 l 1,11,-1
 72 200 l 1,12,13
 34 257 34 257 34 326 c 0,14,15
 34 385 34 385 63 435.5 c 128,-1,16
 92 486 92 486 142 515.5 c 128,-1,17
 192 545 192 545 251 545 c 0,18,19
 328 545 328 545 389 494 c 1,20,-1
 460 560 l 1,21,-1
 494 519 l 1,22,-1
 426 455 l 1,0,1
139 262 m 1,24,-1
 322 431 l 1,25,26
 288 452 288 452 251 452 c 0,27,28
 216 452 216 452 186 435 c 128,-1,29
 156 418 156 418 139 389 c 128,-1,30
 122 360 122 360 122 326 c 0,31,23
 122 291 122 291 139 262 c 1,24,-1
361 393 m 1,33,-1
 178 220 l 1,34,35
 210 197 210 197 251 197 c 0,36,37
 286 197 286 197 316 214.5 c 128,-1,38
 346 232 346 232 363.5 261.5 c 128,-1,39
 381 291 381 291 381 326 c 0,40,32
 381 362 381 362 361 393 c 1,33,-1
EndSplineSet
EndChar

StartChar: uni2206
Encoding: 8710 8710 679
Width: 690
Flags: W
LayerCount: 2
Fore
SplineSet
0 0 m 1,0,-1
 0 87 l 1,1,-1
 278 700 l 1,2,-1
 416 700 l 1,3,-1
 690 87 l 1,4,-1
 690 0 l 1,5,-1
 0 0 l 1,0,-1
145 113 m 1,6,-1
 541 113 l 1,7,-1
 343 558 l 1,8,-1
 145 113 l 1,6,-1
EndSplineSet
EndChar

StartChar: product
Encoding: 8719 8719 680
Width: 748
Flags: W
LayerCount: 2
Fore
SplineSet
86 742 m 1,0,-1
 662 742 l 1,1,-1
 662 -194 l 1,2,-1
 531 -194 l 1,3,-1
 531 632 l 1,4,-1
 217 632 l 1,5,-1
 217 -194 l 1,6,-1
 86 -194 l 1,7,-1
 86 742 l 1,0,-1
EndSplineSet
EndChar

StartChar: summation
Encoding: 8721 8721 681
Width: 612
Flags: W
LayerCount: 2
Fore
SplineSet
39 744 m 1,0,-1
 598 744 l 1,1,-1
 598 623 l 1,2,-1
 194 623 l 1,3,-1
 461 305 l 1,4,-1
 193 -18 l 1,5,-1
 608 -18 l 1,6,-1
 608 -138 l 1,7,-1
 31 -138 l 1,8,-1
 31 -36 l 1,9,-1
 317 305 l 1,10,-1
 39 640 l 1,11,-1
 39 744 l 1,0,-1
EndSplineSet
EndChar

StartChar: minus
Encoding: 8722 8722 682
Width: 501
Flags: W
LayerCount: 2
Fore
SplineSet
35 370 m 1,0,-1
 467 370 l 1,1,-1
 467 280 l 1,2,-1
 35 280 l 1,3,-1
 35 370 l 1,0,-1
EndSplineSet
EndChar

StartChar: uni2219
Encoding: 8729 8729 684
Width: 293
Flags: W
LayerCount: 2
Fore
SplineSet
220.5 347.5 m 128,-1,1
 250 317 250 317 250 271 c 0,2,3
 250 224 250 224 220.5 193 c 128,-1,4
 191 162 191 162 146 162 c 0,5,6
 102 162 102 162 73 193 c 128,-1,7
 44 224 44 224 44 271 c 0,8,9
 44 317 44 317 73 347.5 c 128,-1,10
 102 378 102 378 146 378 c 0,11,0
 191 378 191 378 220.5 347.5 c 128,-1,1
EndSplineSet
EndChar

StartChar: radical
Encoding: 8730 8730 685
Width: 694
Flags: W
LayerCount: 2
Fore
SplineSet
570 748 m 1,0,-1
 696 748 l 1,1,-1
 419 -155 l 1,2,-1
 280 -155 l 1,3,-1
 133 292 l 1,4,-1
 8 292 l 1,5,-1
 8 402 l 1,6,-1
 222 402 l 1,7,-1
 350 -15 l 1,8,-1
 570 748 l 1,0,-1
EndSplineSet
EndChar

StartChar: infinity
Encoding: 8734 8734 686
Width: 869
Flags: W
LayerCount: 2
Fore
SplineSet
741.5 480 m 128,-1,1
 786 453 786 453 811.5 406 c 128,-1,2
 837 359 837 359 837 301 c 256,3,4
 837 243 837 243 811.5 196 c 128,-1,5
 786 149 786 149 741.5 122 c 128,-1,6
 697 95 697 95 641 95 c 0,7,8
 567 95 567 95 521.5 129.5 c 128,-1,9
 476 164 476 164 435 227 c 1,10,11
 397 164 397 164 350 129.5 c 128,-1,12
 303 95 303 95 228 95 c 0,13,14
 172 95 172 95 127.5 121.5 c 128,-1,15
 83 148 83 148 57.5 195 c 128,-1,16
 32 242 32 242 32 300 c 0,17,18
 32 359 32 359 57.5 406 c 128,-1,19
 83 453 83 453 127.5 479.5 c 128,-1,20
 172 506 172 506 228 506 c 0,21,22
 301 506 301 506 347 471.5 c 128,-1,23
 393 437 393 437 433 375 c 1,24,25
 473 438 473 438 519.5 472.5 c 128,-1,26
 566 507 566 507 641 507 c 0,27,0
 697 507 697 507 741.5 480 c 128,-1,1
716.5 221.5 m 128,-1,29
 747 253 747 253 747 301 c 256,30,31
 747 349 747 349 716.5 380.5 c 128,-1,32
 686 412 686 412 640 412 c 0,33,34
 585 412 585 412 549 383 c 128,-1,35
 513 354 513 354 479 300 c 1,36,37
 514 247 514 247 550 218.5 c 128,-1,38
 586 190 586 190 640 190 c 0,39,28
 686 190 686 190 716.5 221.5 c 128,-1,29
320 219 m 128,-1,41
 356 248 356 248 389 302 c 1,42,43
 356 355 356 355 319.5 383 c 128,-1,44
 283 411 283 411 229 411 c 0,45,46
 183 411 183 411 152.5 379.5 c 128,-1,47
 122 348 122 348 122 300 c 256,48,49
 122 252 122 252 152.5 221 c 128,-1,50
 183 190 183 190 229 190 c 0,51,40
 284 190 284 190 320 219 c 128,-1,41
EndSplineSet
EndChar

StartChar: integral
Encoding: 8747 8747 687
Width: 355
Flags: W
LayerCount: 2
Fore
SplineSet
295 746 m 0,1,2
 253 746 253 746 235.5 720 c 128,-1,3
 218 694 218 694 218 630 c 0,4,5
 218 562 218 562 229 375 c 0,6,7
 241 161 241 161 241 96 c 0,8,9
 241 13 241 13 225 -36.5 c 128,-1,10
 209 -86 209 -86 174 -109 c 128,-1,11
 139 -132 139 -132 80 -132 c 0,12,13
 52 -132 52 -132 30.5 -126.5 c 128,-1,14
 9 -121 9 -121 -11 -109 c 1,15,-1
 5 -19 l 1,16,17
 24 -28 24 -28 37 -31.5 c 128,-1,18
 50 -35 50 -35 64 -35 c 0,19,20
 107 -35 107 -35 125.5 -7 c 128,-1,21
 144 21 144 21 144 86 c 0,22,23
 144 150 144 150 132 362 c 0,24,25
 120 566 120 566 120 619 c 0,26,27
 120 701 120 701 136 750.5 c 128,-1,28
 152 800 152 800 187 822.5 c 128,-1,29
 222 845 222 845 280 845 c 0,30,31
 318 845 318 845 361 825 c 1,32,-1
 347 735 l 1,33,0
 321 746 321 746 295 746 c 0,1,2
EndSplineSet
EndChar

StartChar: approxequal
Encoding: 8776 8776 688
Width: 501
Flags: W
LayerCount: 2
Fore
SplineSet
338 361 m 0,1,2
 312 361 312 361 291 369.5 c 128,-1,3
 270 378 270 378 244 394 c 0,4,5
 225 405 225 405 213 410.5 c 128,-1,6
 201 416 201 416 190 416 c 0,7,8
 153 416 153 416 153 367 c 1,9,-1
 64 367 l 1,10,11
 64 517 64 517 165 517 c 0,12,13
 189 517 189 517 209 508.5 c 128,-1,14
 229 500 229 500 257 484 c 0,15,16
 278 472 278 472 289.5 467 c 128,-1,17
 301 462 301 462 312 462 c 0,18,19
 349 462 349 462 349 511 c 1,20,-1
 438 511 l 1,21,0
 438 361 438 361 338 361 c 0,1,2
338 137 m 0,23,24
 312 137 312 137 291 145.5 c 128,-1,25
 270 154 270 154 244 170 c 0,26,27
 225 181 225 181 213 186.5 c 128,-1,28
 201 192 201 192 190 192 c 0,29,30
 153 192 153 192 153 143 c 1,31,-1
 64 143 l 1,32,33
 64 293 64 293 165 293 c 0,34,35
 189 293 189 293 209 284.5 c 128,-1,36
 229 276 229 276 257 260 c 0,37,38
 278 248 278 248 289.5 243 c 128,-1,39
 301 238 301 238 312 238 c 0,40,41
 349 238 349 238 349 287 c 1,42,-1
 438 287 l 1,43,22
 438 137 438 137 338 137 c 0,23,24
EndSplineSet
EndChar

StartChar: notequal
Encoding: 8800 8800 689
Width: 501
Flags: W
LayerCount: 2
Fore
SplineSet
467 386 m 1,0,-1
 314 386 l 1,1,-1
 276 264 l 1,2,-1
 467 264 l 1,3,-1
 467 175 l 1,4,-1
 248 175 l 1,5,-1
 202 28 l 1,6,-1
 103 28 l 1,7,-1
 149 175 l 1,8,-1
 35 175 l 1,9,-1
 35 264 l 1,10,-1
 177 264 l 1,11,-1
 215 386 l 1,12,-1
 35 386 l 1,13,-1
 35 476 l 1,14,-1
 244 476 l 1,15,-1
 288 617 l 1,16,-1
 387 617 l 1,17,-1
 343 476 l 1,18,-1
 467 476 l 1,19,-1
 467 386 l 1,0,-1
EndSplineSet
EndChar

StartChar: lessequal
Encoding: 8804 8804 690
Width: 501
Flags: W
LayerCount: 2
Fore
SplineSet
467 631 m 1,0,-1
 467 533 l 1,1,-1
 121 394 l 1,2,-1
 467 255 l 1,3,-1
 467 159 l 1,4,-1
 35 339 l 1,5,-1
 35 450 l 1,6,-1
 467 631 l 1,0,-1
35 104 m 1,7,-1
 467 104 l 1,8,-1
 467 14 l 1,9,-1
 35 14 l 1,10,-1
 35 104 l 1,7,-1
EndSplineSet
EndChar

StartChar: greaterequal
Encoding: 8805 8805 691
Width: 501
Flags: W
LayerCount: 2
Fore
SplineSet
34 164 m 1,0,-1
 34 261 l 1,1,-1
 380 400 l 1,2,-1
 34 539 l 1,3,-1
 34 636 l 1,4,-1
 466 456 l 1,5,-1
 466 345 l 1,6,-1
 34 164 l 1,0,-1
35 104 m 1,7,-1
 467 104 l 1,8,-1
 467 14 l 1,9,-1
 35 14 l 1,10,-1
 35 104 l 1,7,-1
EndSplineSet
EndChar

StartChar: filledbox
Encoding: 9632 9632 692
Width: 600
Flags: W
LayerCount: 2
Fore
SplineSet
106 459 m 1,0,-1
 494 459 l 1,1,-1
 494 71 l 1,2,-1
 106 71 l 1,3,-1
 106 459 l 1,0,-1
EndSplineSet
EndChar

StartChar: uni25A1
Encoding: 9633 9633 693
Width: 600
Flags: W
LayerCount: 2
Fore
SplineSet
106 459 m 1,0,-1
 494 459 l 1,1,-1
 494 71 l 1,2,-1
 106 71 l 1,3,-1
 106 459 l 1,0,-1
185 377 m 1,4,-1
 185 153 l 1,5,-1
 415 153 l 1,6,-1
 415 377 l 1,7,-1
 185 377 l 1,4,-1
EndSplineSet
EndChar

StartChar: triagup
Encoding: 9650 9650 694
Width: 600
Flags: W
LayerCount: 2
Fore
SplineSet
300 478 m 1,0,-1
 513 52 l 1,1,-1
 87 52 l 1,2,-1
 300 478 l 1,0,-1
EndSplineSet
EndChar

StartChar: uni25B3
Encoding: 9651 9651 695
Width: 600
Flags: W
LayerCount: 2
Fore
SplineSet
300 478 m 1,0,-1
 513 52 l 1,1,-1
 87 52 l 1,2,-1
 300 478 l 1,0,-1
300 312 m 1,3,-1
 205 126 l 1,4,-1
 395 126 l 1,5,-1
 300 312 l 1,3,-1
EndSplineSet
EndChar

StartChar: uni25B6
Encoding: 9654 9654 696
Width: 600
Flags: W
LayerCount: 2
Fore
SplineSet
541 266 m 1,0,-1
 115 53 l 1,1,-1
 115 479 l 1,2,-1
 541 266 l 1,0,-1
EndSplineSet
EndChar

StartChar: uni25B7
Encoding: 9655 9655 697
Width: 600
Flags: W
LayerCount: 2
Fore
SplineSet
541 266 m 1,0,-1
 115 53 l 1,1,-1
 115 479 l 1,2,-1
 541 266 l 1,0,-1
375 266 m 1,3,-1
 189 361 l 1,4,-1
 189 171 l 1,5,-1
 375 266 l 1,3,-1
EndSplineSet
EndChar

StartChar: triagdn
Encoding: 9660 9660 698
Width: 600
Flags: W
LayerCount: 2
Fore
SplineSet
300 52 m 1,0,-1
 87 478 l 1,1,-1
 513 478 l 1,2,-1
 300 52 l 1,0,-1
EndSplineSet
EndChar

StartChar: uni25BD
Encoding: 9661 9661 699
Width: 600
Flags: W
LayerCount: 2
Fore
SplineSet
300 52 m 1,0,-1
 87 478 l 1,1,-1
 513 478 l 1,2,-1
 300 52 l 1,0,-1
300 218 m 1,3,-1
 395 404 l 1,4,-1
 205 404 l 1,5,-1
 300 218 l 1,3,-1
EndSplineSet
EndChar

StartChar: uni25C0
Encoding: 9664 9664 700
Width: 600
Flags: W
LayerCount: 2
Fore
SplineSet
58 265 m 1,0,-1
 484 478 l 1,1,-1
 484 52 l 1,2,-1
 58 265 l 1,0,-1
EndSplineSet
EndChar

StartChar: uni25C1
Encoding: 9665 9665 701
Width: 600
Flags: W
LayerCount: 2
Fore
SplineSet
58 265 m 1,0,-1
 484 478 l 1,1,-1
 484 52 l 1,2,-1
 58 265 l 1,0,-1
224 265 m 1,3,-1
 410 170 l 1,4,-1
 410 360 l 1,5,-1
 224 265 l 1,3,-1
EndSplineSet
EndChar

StartChar: uni25C6
Encoding: 9670 9670 702
Width: 600
Flags: W
LayerCount: 2
Fore
SplineSet
300 540 m 1,0,-1
 574 265 l 1,1,-1
 300 -9 l 1,2,-1
 25 265 l 1,3,-1
 300 540 l 1,0,-1
EndSplineSet
EndChar

StartChar: uni25C7
Encoding: 9671 9671 703
Width: 600
Flags: W
LayerCount: 2
Fore
SplineSet
300 540 m 1,0,-1
 574 265 l 1,1,-1
 300 -9 l 1,2,-1
 25 265 l 1,3,-1
 300 540 l 1,0,-1
297 426 m 1,4,-1
 139 267 l 1,5,-1
 302 105 l 1,6,-1
 460 263 l 1,7,-1
 297 426 l 1,4,-1
EndSplineSet
EndChar

StartChar: lozenge
Encoding: 9674 9674 704
Width: 528
Flags: W
LayerCount: 2
Fore
SplineSet
264 675 m 1,0,-1
 496 330 l 1,1,-1
 263 -17 l 1,2,-1
 32 330 l 1,3,-1
 264 675 l 1,0,-1
264 505 m 1,4,-1
 143 330 l 1,5,-1
 263 155 l 1,6,-1
 385 330 l 1,7,-1
 264 505 l 1,4,-1
EndSplineSet
EndChar

StartChar: uniA78B
Encoding: 42891 42891 705
Width: 279
Flags: W
LayerCount: 2
Fore
SplineSet
72 700 m 1,0,-1
 206 700 l 1,1,-1
 191 301 l 1,2,-1
 72 301 l 1,3,-1
 72 700 l 1,0,-1
EndSplineSet
EndChar

StartChar: uniA78C
Encoding: 42892 42892 706
Width: 275
Flags: W
LayerCount: 2
Fore
SplineSet
73 672 m 1,0,-1
 203 672 l 1,1,-1
 186 301 l 1,2,-1
 72 301 l 1,3,-1
 73 672 l 1,0,-1
EndSplineSet
Substitution2: "<3,3> Small Caps in Latin lookup 11 subtable" uniA78C.sc
EndChar

StartChar: A.ss01
Encoding: 65538 -1 709
Width: 760
Flags: W
LayerCount: 2
Fore
SplineSet
110 569 m 128,-1,1
 147 636 147 636 216 672.5 c 128,-1,2
 285 709 285 709 379 709 c 256,3,4
 473 709 473 709 542.5 672.5 c 128,-1,5
 612 636 612 636 649.5 569 c 128,-1,6
 687 502 687 502 687 411 c 2,7,-1
 687 0 l 1,8,-1
 553 0 l 1,9,-1
 553 181 l 1,10,-1
 207 181 l 1,11,-1
 207 0 l 1,12,-1
 73 0 l 1,13,-1
 73 411 l 2,14,0
 73 502 73 502 110 569 c 128,-1,1
506.5 541.5 m 128,-1,16
 460 589 460 589 380 589 c 0,17,18
 299 589 299 589 253 541.5 c 128,-1,19
 207 494 207 494 207 411 c 2,20,-1
 207 295 l 1,21,-1
 553 295 l 1,22,-1
 553 411 l 2,23,15
 553 494 553 494 506.5 541.5 c 128,-1,16
EndSplineSet
EndChar

StartChar: Adieresis.alt
Encoding: 65553 -1 724
Width: 747
Flags: W
LayerCount: 2
Fore
SplineSet
115.5 599 m 128,-1,1
 98 617 98 617 98 643 c 0,2,3
 98 670 98 670 115.5 687.5 c 128,-1,4
 133 705 133 705 160 705 c 0,5,6
 186 705 186 705 203.5 687.5 c 128,-1,7
 221 670 221 670 221 643 c 0,8,9
 221 617 221 617 203.5 599 c 128,-1,10
 186 581 186 581 160 581 c 0,11,0
 133 581 133 581 115.5 599 c 128,-1,1
549.5 599 m 128,-1,13
 532 617 532 617 532 643 c 0,14,15
 532 670 532 670 549.5 687.5 c 128,-1,16
 567 705 567 705 594 705 c 0,17,18
 620 705 620 705 637 687.5 c 128,-1,19
 654 670 654 670 654 643 c 0,20,21
 654 617 654 617 636.5 599 c 128,-1,22
 619 581 619 581 594 581 c 0,23,12
 567 581 567 581 549.5 599 c 128,-1,13
604 0 m 1,24,-1
 542 148 l 1,25,-1
 200 148 l 1,26,-1
 138 0 l 1,27,-1
 -1 0 l 1,28,-1
 306 700 l 1,29,-1
 445 700 l 1,30,-1
 748 0 l 1,31,-1
 604 0 l 1,24,-1
248 263 m 1,32,-1
 494 263 l 1,33,-1
 372 557 l 1,34,-1
 248 263 l 1,32,-1
EndSplineSet
EndChar

StartChar: Aogonek.ss01
Encoding: 65560 -1 731
Width: 760
Flags: W
LayerCount: 2
Fore
SplineSet
542.5 672.5 m 128,-1,1
 612 636 612 636 649.5 569 c 128,-1,2
 687 502 687 502 687 411 c 2,3,-1
 687 0 l 1,4,-1
 678 0 l 1,5,6
 633 -32 633 -32 613 -56.5 c 128,-1,7
 593 -81 593 -81 593 -103 c 0,8,9
 593 -117 593 -117 600 -124 c 128,-1,10
 607 -131 607 -131 618 -131 c 0,11,12
 637 -131 637 -131 650 -123 c 1,13,-1
 678 -203 l 1,14,15
 632 -223 632 -223 590 -223 c 0,16,17
 541 -223 541 -223 511.5 -197.5 c 128,-1,18
 482 -172 482 -172 482 -127 c 0,19,20
 482 -55 482 -55 553 6 c 1,21,-1
 553 181 l 1,22,-1
 207 181 l 1,23,-1
 207 0 l 1,24,-1
 73 0 l 1,25,-1
 73 411 l 2,26,27
 73 502 73 502 110 569 c 128,-1,28
 147 636 147 636 216 672.5 c 128,-1,29
 285 709 285 709 379 709 c 256,30,0
 473 709 473 709 542.5 672.5 c 128,-1,1
553 295 m 1,31,-1
 553 411 l 2,32,33
 553 494 553 494 506.5 541.5 c 128,-1,34
 460 589 460 589 380 589 c 0,35,36
 299 589 299 589 253 541.5 c 128,-1,37
 207 494 207 494 207 411 c 2,38,-1
 207 295 l 1,39,-1
 553 295 l 1,31,-1
EndSplineSet
EndChar

StartChar: E.ss01
Encoding: 65566 -1 737
Width: 607
Flags: W
LayerCount: 2
Fore
SplineSet
221.5 280 m 128,-1,1
 178 254 178 254 178 210 c 0,2,3
 178 165 178 165 224.5 136 c 128,-1,4
 271 107 271 107 342 107 c 0,5,6
 389 107 389 107 448.5 122.5 c 128,-1,7
 508 138 508 138 547 160 c 1,8,-1
 599 56 l 1,9,10
 550 27 550 27 476 8.5 c 128,-1,11
 402 -10 402 -10 330 -10 c 0,12,13
 244 -10 244 -10 178 15 c 128,-1,14
 112 40 112 40 76 85.5 c 128,-1,15
 40 131 40 131 40 190 c 0,16,17
 40 256 40 256 84.5 305 c 128,-1,18
 129 354 129 354 204 371 c 1,19,20
 147 388 147 388 112 430.5 c 128,-1,21
 77 473 77 473 77 528 c 256,22,23
 77 583 77 583 109.5 624 c 128,-1,24
 142 665 142 665 202 688 c 128,-1,25
 262 711 262 711 342 711 c 0,26,27
 403 711 403 711 466 698 c 128,-1,28
 529 685 529 685 569 664 c 1,29,-1
 526 559 l 1,30,31
 489 575 489 575 442.5 585 c 128,-1,32
 396 595 396 595 353 595 c 0,33,34
 286 595 286 595 245 569 c 128,-1,35
 204 543 204 543 204 502 c 0,36,37
 204 464 204 464 241 442 c 128,-1,38
 278 420 278 420 335 420 c 2,39,-1
 490 420 l 1,40,-1
 490 306 l 1,41,-1
 335 306 l 2,42,0
 265 306 265 306 221.5 280 c 128,-1,1
EndSplineSet
EndChar

StartChar: uni1E1C.ss01
Encoding: 65570 -1 741
Width: 607
Flags: W
LayerCount: 2
Fore
SplineSet
212 798 m 128,-1,1
 171 839 171 839 169 905 c 1,2,-1
 255 905 l 1,3,4
 257 877 257 877 274 859 c 128,-1,5
 291 841 291 841 316 841 c 256,6,7
 341 841 341 841 358 859 c 128,-1,8
 375 877 375 877 377 905 c 1,9,-1
 463 905 l 1,10,11
 461 839 461 839 420 798 c 128,-1,12
 379 757 379 757 316 757 c 256,13,0
 253 757 253 757 212 798 c 128,-1,1
426 -81.5 m 128,-1,15
 446 -103 446 -103 446 -133 c 0,16,17
 446 -177 446 -177 412.5 -200.5 c 128,-1,18
 379 -224 379 -224 327 -224 c 0,19,20
 278 -224 278 -224 227 -203 c 1,21,-1
 251 -133 l 1,22,23
 282 -144 282 -144 308 -144 c 0,24,25
 327 -144 327 -144 338 -137 c 128,-1,26
 349 -130 349 -130 349 -120 c 0,27,28
 349 -109 349 -109 336 -102 c 128,-1,29
 323 -95 323 -95 299 -95 c 2,30,-1
 269 -95 l 1,31,-1
 297 -9 l 1,32,33
 220 -5 220 -5 162 21.5 c 128,-1,34
 104 48 104 48 72 91.5 c 128,-1,35
 40 135 40 135 40 190 c 0,36,37
 40 256 40 256 84.5 305 c 128,-1,38
 129 354 129 354 204 371 c 1,39,40
 147 388 147 388 112 430.5 c 128,-1,41
 77 473 77 473 77 528 c 256,42,43
 77 583 77 583 109.5 624 c 128,-1,44
 142 665 142 665 202 688 c 128,-1,45
 262 711 262 711 342 711 c 0,46,47
 403 711 403 711 466 698 c 128,-1,48
 529 685 529 685 569 664 c 1,49,-1
 526 559 l 1,50,51
 489 575 489 575 442.5 585 c 128,-1,52
 396 595 396 595 353 595 c 0,53,54
 286 595 286 595 245 569 c 128,-1,55
 204 543 204 543 204 502 c 0,56,57
 204 464 204 464 241 442 c 128,-1,58
 278 420 278 420 335 420 c 2,59,-1
 490 420 l 1,60,-1
 490 306 l 1,61,-1
 335 306 l 2,62,63
 265 306 265 306 221.5 280 c 128,-1,64
 178 254 178 254 178 210 c 0,65,66
 178 165 178 165 224.5 136 c 128,-1,67
 271 107 271 107 342 107 c 0,68,69
 389 107 389 107 448.5 122.5 c 128,-1,70
 508 138 508 138 547 160 c 1,71,-1
 599 56 l 1,72,73
 559 32 559 32 501 15 c 128,-1,74
 443 -2 443 -2 381 -8 c 1,75,-1
 364 -53 l 1,76,14
 406 -60 406 -60 426 -81.5 c 128,-1,15
EndSplineSet
EndChar

StartChar: Eogonek.ss01
Encoding: 65587 -1 758
Width: 607
Flags: W
LayerCount: 2
Fore
SplineSet
557 -123 m 1,1,-1
 585 -203 l 1,2,3
 537 -223 537 -223 497 -223 c 0,4,5
 448 -223 448 -223 418.5 -195 c 128,-1,6
 389 -167 389 -167 389 -118 c 0,7,8
 389 -57 389 -57 439 0 c 1,9,10
 379 -10 379 -10 330 -10 c 0,11,12
 244 -10 244 -10 178 15 c 128,-1,13
 112 40 112 40 76 85.5 c 128,-1,14
 40 131 40 131 40 190 c 0,15,16
 40 256 40 256 84.5 305 c 128,-1,17
 129 354 129 354 204 371 c 1,18,19
 147 388 147 388 112 430.5 c 128,-1,20
 77 473 77 473 77 528 c 256,21,22
 77 583 77 583 109.5 624 c 128,-1,23
 142 665 142 665 202 688 c 128,-1,24
 262 711 262 711 342 711 c 0,25,26
 403 711 403 711 466 698 c 128,-1,27
 529 685 529 685 569 664 c 1,28,-1
 526 559 l 1,29,30
 489 575 489 575 442.5 585 c 128,-1,31
 396 595 396 595 353 595 c 0,32,33
 286 595 286 595 245 569 c 128,-1,34
 204 543 204 543 204 502 c 0,35,36
 204 464 204 464 241 442 c 128,-1,37
 278 420 278 420 335 420 c 2,38,-1
 490 420 l 1,39,-1
 490 306 l 1,40,-1
 335 306 l 2,41,42
 265 306 265 306 221.5 280 c 128,-1,43
 178 254 178 254 178 210 c 0,44,45
 178 165 178 165 224.5 136 c 128,-1,46
 271 107 271 107 342 107 c 0,47,48
 389 107 389 107 448.5 122.5 c 128,-1,49
 508 138 508 138 547 160 c 1,50,-1
 599 56 l 1,51,52
 583 47 583 47 578 45 c 0,53,54
 544 10 544 10 522 -29.5 c 128,-1,55
 500 -69 500 -69 500 -98 c 0,56,57
 500 -131 500 -131 526 -131 c 0,58,0
 543 -131 543 -131 557 -123 c 1,1,-1
EndSplineSet
EndChar

StartChar: F.ss01
Encoding: 65589 -1 760
Width: 539
Flags: W
LayerCount: 2
Fore
SplineSet
239 554.5 m 128,-1,1
 207 523 207 523 207 471 c 2,2,-1
 207 382 l 1,3,-1
 477 382 l 1,4,-1
 477 265 l 1,5,-1
 207 265 l 1,6,-1
 207 0 l 1,7,-1
 72 0 l 1,8,-1
 72 474 l 2,9,10
 72 544 72 544 101.5 596.5 c 128,-1,11
 131 649 131 649 185.5 677.5 c 128,-1,12
 240 706 240 706 312 706 c 0,13,14
 372 706 372 706 433 693.5 c 128,-1,15
 494 681 494 681 537 661 c 1,16,-1
 505 543 l 1,17,18
 463 562 463 562 413 574 c 128,-1,19
 363 586 363 586 324 586 c 0,20,0
 271 586 271 586 239 554.5 c 128,-1,1
EndSplineSet
EndChar

StartChar: G.ss01
Encoding: 65590 -1 761
Width: 748
Flags: W
LayerCount: 2
Fore
SplineSet
561 358 m 1,0,-1
 678 358 l 1,1,-1
 678 0 l 1,2,-1
 578 0 l 1,3,-1
 578 60 l 1,4,5
 536 27 536 27 486.5 8.5 c 128,-1,6
 437 -10 437 -10 388 -10 c 0,7,8
 289 -10 289 -10 207 38 c 128,-1,9
 125 86 125 86 78 168.5 c 128,-1,10
 31 251 31 251 31 351 c 256,11,12
 31 451 31 451 80.5 532.5 c 128,-1,13
 130 614 130 614 216.5 661.5 c 128,-1,14
 303 709 303 709 408 709 c 0,15,16
 483 709 483 709 556.5 682 c 128,-1,17
 630 655 630 655 684 608 c 1,18,-1
 607 509 l 1,19,20
 567 547 567 547 515 568 c 128,-1,21
 463 589 463 589 409 589 c 0,22,23
 343 589 343 589 287.5 557.5 c 128,-1,24
 232 526 232 526 200 471 c 128,-1,25
 168 416 168 416 168 351 c 0,26,27
 168 285 168 285 199 230 c 128,-1,28
 230 175 230 175 283.5 143 c 128,-1,29
 337 111 337 111 402 111 c 0,30,31
 448 111 448 111 489.5 130 c 128,-1,32
 531 149 531 149 561 183 c 1,33,-1
 561 358 l 1,0,-1
EndSplineSet
EndChar

StartChar: I.ss01
Encoding: 65597 -1 768
Width: 490
Flags: W
LayerCount: 2
Fore
SplineSet
440 583 m 1,0,-1
 312 583 l 1,1,-1
 312 117 l 1,2,-1
 440 117 l 1,3,-1
 440 0 l 1,4,-1
 49 0 l 1,5,-1
 49 117 l 1,6,-1
 178 117 l 1,7,-1
 178 583 l 1,8,-1
 49 583 l 1,9,-1
 49 700 l 1,10,-1
 440 700 l 1,11,-1
 440 583 l 1,0,-1
EndSplineSet
EndChar

StartChar: Iogonek.ss01
Encoding: 65613 -1 784
Width: 490
Flags: W
LayerCount: 2
Fore
SplineSet
312 583 m 1,0,-1
 312 117 l 1,1,-1
 440 117 l 1,2,-1
 440 0 l 1,3,-1
 302 0 l 1,4,5
 257 -32 257 -32 237 -56.5 c 128,-1,6
 217 -81 217 -81 217 -103 c 0,7,8
 217 -117 217 -117 224 -124 c 128,-1,9
 231 -131 231 -131 242 -131 c 0,10,11
 261 -131 261 -131 274 -123 c 1,12,-1
 302 -203 l 1,13,14
 256 -223 256 -223 214 -223 c 0,15,16
 165 -223 165 -223 135.5 -197.5 c 128,-1,17
 106 -172 106 -172 106 -127 c 0,18,19
 106 -59 106 -59 171 0 c 1,20,-1
 49 0 l 1,21,-1
 49 117 l 1,22,-1
 178 117 l 1,23,-1
 178 583 l 1,24,-1
 49 583 l 1,25,-1
 49 700 l 1,26,-1
 440 700 l 1,27,-1
 440 583 l 1,28,-1
 312 583 l 1,0,-1
EndSplineSet
EndChar

StartChar: J.ss01
Encoding: 65615 -1 786
Width: 509
Flags: W
LayerCount: 2
Fore
SplineSet
377 -46.5 m 128,-1,1
 317 -106 317 -106 212 -106 c 0,2,3
 148 -106 148 -106 93.5 -79 c 128,-1,4
 39 -52 39 -52 -3 -1 c 1,5,-1
 60 99 l 1,6,7
 95 62 95 62 134.5 41.5 c 128,-1,8
 174 21 174 21 209 21 c 0,9,10
 253 21 253 21 277.5 47.5 c 128,-1,11
 302 74 302 74 302 123 c 2,12,-1
 302 581 l 1,13,-1
 61 581 l 1,14,-1
 61 700 l 1,15,-1
 437 700 l 1,16,-1
 437 120 l 2,17,0
 437 13 437 13 377 -46.5 c 128,-1,1
EndSplineSet
EndChar

StartChar: M.ss01
Encoding: 65620 -1 791
Width: 1190
Flags: W
LayerCount: 2
Fore
SplineSet
983 0 m 1,0,-1
 983 420 l 2,1,2
 983 491 983 491 943 535.5 c 128,-1,3
 903 580 903 580 839 580 c 0,4,5
 791 580 791 580 752 554 c 128,-1,6
 713 528 713 528 691 483.5 c 128,-1,7
 669 439 669 439 669 386 c 2,8,-1
 669 0 l 1,9,-1
 533 0 l 1,10,-1
 534 420 l 2,11,12
 534 491 534 491 494 535.5 c 128,-1,13
 454 580 454 580 389 580 c 0,14,15
 341 580 341 580 302 554 c 128,-1,16
 263 528 263 528 241.5 483.5 c 128,-1,17
 220 439 220 439 220 386 c 2,18,-1
 220 0 l 1,19,-1
 86 0 l 1,20,-1
 86 706 l 1,21,-1
 220 706 l 1,22,-1
 220 597 l 1,23,24
 256 650 256 650 312.5 679.5 c 128,-1,25
 369 709 369 709 439 709 c 0,26,27
 513 709 513 709 568.5 670 c 128,-1,28
 624 631 624 631 650 563 c 1,29,30
 683 632 683 632 745 670.5 c 128,-1,31
 807 709 807 709 888 709 c 0,32,33
 954 709 954 709 1006.5 677 c 128,-1,34
 1059 645 1059 645 1088.5 586.5 c 128,-1,35
 1118 528 1118 528 1118 453 c 2,36,-1
 1119 0 l 1,37,-1
 983 0 l 1,0,-1
EndSplineSet
EndChar

StartChar: N.ss01
Encoding: 65622 -1 793
Width: 768
Flags: W
LayerCount: 2
Fore
SplineSet
561 0 m 1,0,-1
 561 420 l 2,1,2
 561 491 561 491 517.5 535.5 c 128,-1,3
 474 580 474 580 405 580 c 0,4,5
 352 580 352 580 310 554 c 128,-1,6
 268 528 268 528 244 484 c 128,-1,7
 220 440 220 440 220 386 c 2,8,-1
 220 0 l 1,9,-1
 86 0 l 1,10,-1
 86 700 l 1,11,-1
 220 700 l 1,12,-1
 220 594 l 1,13,14
 258 649 258 649 318 679 c 128,-1,15
 378 709 378 709 453 709 c 0,16,17
 524 709 524 709 579 677 c 128,-1,18
 634 645 634 645 665 586.5 c 128,-1,19
 696 528 696 528 696 453 c 2,20,-1
 697 0 l 1,21,-1
 561 0 l 1,0,-1
EndSplineSet
EndChar

StartChar: Eng.ss01
Encoding: 65629 -1 800
Width: 769
Flags: W
LayerCount: 2
Fore
SplineSet
579.5 668 m 128,-1,1
 635 636 635 636 666 577.5 c 128,-1,2
 697 519 697 519 697 444 c 2,3,-1
 697 0 l 1,4,-1
 696 0 l 1,5,6
 695 -96 695 -96 634.5 -152 c 128,-1,7
 574 -208 574 -208 472 -208 c 0,8,9
 358 -208 358 -208 279 -137 c 1,10,-1
 338 -31 l 1,11,12
 368 -55 368 -55 403 -67.5 c 128,-1,13
 438 -80 438 -80 468 -80 c 0,14,15
 511 -80 511 -80 536 -54.5 c 128,-1,16
 561 -29 561 -29 561 18 c 2,17,-1
 561 412 l 2,18,19
 561 482 561 482 517.5 526.5 c 128,-1,20
 474 571 474 571 405 571 c 0,21,22
 351 570 351 570 309 544.5 c 128,-1,23
 267 519 267 519 243.5 475 c 128,-1,24
 220 431 220 431 220 377 c 2,25,-1
 220 0 l 1,26,-1
 86 0 l 1,27,-1
 86 700 l 1,28,-1
 220 700 l 1,29,-1
 220 585 l 1,30,31
 258 639 258 639 318 669 c 128,-1,32
 378 699 378 699 454 700 c 0,33,0
 524 700 524 700 579.5 668 c 128,-1,1
EndSplineSet
EndChar

StartChar: Q.ss01
Encoding: 65633 -1 804
Width: 809
Flags: W
LayerCount: 2
Fore
SplineSet
735.5 181.5 m 128,-1,1
 694 104 694 104 620.5 54 c 128,-1,2
 547 4 547 4 455 -7 c 1,3,-1
 455 -124 l 1,4,-1
 354 -124 l 1,5,-1
 354 -7 l 1,6,7
 262 4 262 4 188.5 54 c 128,-1,8
 115 104 115 104 73 181.5 c 128,-1,9
 31 259 31 259 31 351 c 0,10,11
 31 451 31 451 80 533 c 128,-1,12
 129 615 129 615 214.5 662 c 128,-1,13
 300 709 300 709 404 709 c 256,14,15
 508 709 508 709 593.5 662 c 128,-1,16
 679 615 679 615 728 533 c 128,-1,17
 777 451 777 451 777 351 c 0,18,0
 777 259 777 259 735.5 181.5 c 128,-1,1
549.5 161 m 128,-1,20
 592 195 592 195 616 244.5 c 128,-1,21
 640 294 640 294 640 351 c 0,22,23
 640 417 640 417 608.5 471.5 c 128,-1,24
 577 526 577 526 523 557.5 c 128,-1,25
 469 589 469 589 406 589 c 0,26,27
 342 589 342 589 287 557.5 c 128,-1,28
 232 526 232 526 200 471.5 c 128,-1,29
 168 417 168 417 168 351 c 0,30,31
 168 294 168 294 192.5 245 c 128,-1,32
 217 196 217 196 259.5 162.5 c 128,-1,33
 302 129 302 129 354 117 c 1,34,-1
 354 277 l 1,35,-1
 455 277 l 1,36,-1
 455 116 l 1,37,19
 507 127 507 127 549.5 161 c 128,-1,20
EndSplineSet
EndChar

StartChar: uni018F.ss01
Encoding: 65634 -1 805
Width: 765
Flags: W
LayerCount: 2
Fore
SplineSet
556 662 m 128,-1,1
 638 615 638 615 685 533 c 128,-1,2
 732 451 732 451 732 351 c 256,3,4
 732 251 732 251 685 168.5 c 128,-1,5
 638 86 638 86 556 38 c 128,-1,6
 474 -10 474 -10 374 -10 c 0,7,8
 281 -10 281 -10 209 27 c 128,-1,9
 137 64 137 64 91 126 c 128,-1,10
 45 188 45 188 25 262 c 1,11,-1
 567 475 l 1,12,13
 538 528 538 528 487 558.5 c 128,-1,14
 436 589 436 589 376 589 c 0,15,16
 317 589 317 589 267 562.5 c 128,-1,17
 217 536 217 536 184 490 c 1,18,-1
 88 586 l 1,19,20
 201 709 201 709 374 709 c 0,21,0
 474 709 474 709 556 662 c 128,-1,1
494 143.5 m 128,-1,23
 545 176 545 176 572 230 c 128,-1,24
 599 284 599 284 599 348 c 0,25,26
 599 363 599 363 598 371 c 1,27,-1
 186 210 l 1,28,29
 213 167 213 167 260.5 139 c 128,-1,30
 308 111 308 111 375 111 c 0,31,22
 443 111 443 111 494 143.5 c 128,-1,23
EndSplineSet
EndChar

StartChar: T.ss01
Encoding: 65635 -1 806
Width: 661
Flags: W
LayerCount: 2
Fore
SplineSet
588 520 m 1,0,1
 500 567 500 567 395 579 c 1,2,-1
 395 0 l 1,3,-1
 261 0 l 1,4,-1
 261 579 l 1,5,6
 157 567 157 567 68 520 c 1,7,-1
 25 634 l 1,8,9
 91 670 91 670 168.5 689.5 c 128,-1,10
 246 709 246 709 327 709 c 256,11,12
 408 709 408 709 485.5 689.5 c 128,-1,13
 563 670 563 670 631 633 c 1,14,-1
 588 520 l 1,0,1
EndSplineSet
EndChar

StartChar: Tbar.ss01
Encoding: 65636 -1 807
Width: 661
Flags: W
LayerCount: 2
Fore
SplineSet
395 579 m 1,1,-1
 395 362 l 1,2,-1
 539 362 l 1,3,-1
 539 284 l 1,4,-1
 395 284 l 1,5,-1
 395 0 l 1,6,-1
 261 0 l 1,7,-1
 261 284 l 1,8,-1
 117 284 l 1,9,-1
 117 362 l 1,10,-1
 261 362 l 1,11,-1
 261 579 l 1,12,13
 157 567 157 567 68 520 c 1,14,-1
 25 634 l 1,15,16
 91 670 91 670 168.5 689.5 c 128,-1,17
 246 709 246 709 327 709 c 256,18,19
 408 709 408 709 485.5 689.5 c 128,-1,20
 563 670 563 670 631 633 c 1,21,-1
 588 520 l 1,22,0
 500 567 500 567 395 579 c 1,1,-1
EndSplineSet
EndChar

StartChar: uni0162.ss01
Encoding: 65638 -1 809
Width: 661
Flags: W
LayerCount: 2
Fore
SplineSet
381 0 m 1,0,-1
 361 -53 l 1,1,2
 403 -60 403 -60 423 -81.5 c 128,-1,3
 443 -103 443 -103 443 -133 c 0,4,5
 443 -177 443 -177 409.5 -200.5 c 128,-1,6
 376 -224 376 -224 324 -224 c 0,7,8
 275 -224 275 -224 224 -203 c 1,9,-1
 248 -133 l 1,10,11
 279 -144 279 -144 305 -144 c 0,12,13
 324 -144 324 -144 335 -137 c 128,-1,14
 346 -130 346 -130 346 -120 c 0,15,16
 346 -109 346 -109 333 -102 c 128,-1,17
 320 -95 320 -95 296 -95 c 2,18,-1
 266 -95 l 1,19,-1
 297 0 l 1,20,-1
 261 0 l 1,21,-1
 261 579 l 1,22,23
 157 567 157 567 68 520 c 1,24,-1
 25 634 l 1,25,26
 91 670 91 670 168.5 689.5 c 128,-1,27
 246 709 246 709 327 709 c 256,28,29
 408 709 408 709 485.5 689.5 c 128,-1,30
 563 670 563 670 631 633 c 1,31,-1
 588 520 l 1,32,33
 500 567 500 567 395 579 c 1,34,-1
 395 0 l 1,35,-1
 381 0 l 1,0,-1
EndSplineSet
EndChar

StartChar: U.ss01
Encoding: 65642 -1 813
Width: 768
Flags: W
LayerCount: 2
Fore
SplineSet
682 700 m 1,0,-1
 682 0 l 1,1,-1
 548 0 l 1,2,-1
 548 107 l 1,3,4
 510 51 510 51 449.5 20.5 c 128,-1,5
 389 -10 389 -10 314 -10 c 0,6,7
 244 -10 244 -10 189 23 c 128,-1,8
 134 56 134 56 103 115.5 c 128,-1,9
 72 175 72 175 72 252 c 2,10,-1
 72 700 l 1,11,-1
 207 700 l 1,12,-1
 207 285 l 2,13,14
 207 212 207 212 250.5 165.5 c 128,-1,15
 294 119 294 119 363 119 c 0,16,17
 416 119 416 119 458 145.5 c 128,-1,18
 500 172 500 172 524 218 c 128,-1,19
 548 264 548 264 548 320 c 2,20,-1
 548 700 l 1,21,-1
 682 700 l 1,0,-1
EndSplineSet
EndChar

StartChar: Udieresis.alt
Encoding: 65647 -1 818
Width: 756
Flags: W
LayerCount: 2
Fore
SplineSet
345.5 687.5 m 128,-1,1
 363 670 363 670 363 645 c 0,2,3
 363 619 363 619 345.5 601.5 c 128,-1,4
 328 584 328 584 303 584 c 0,5,6
 277 584 277 584 259.5 601.5 c 128,-1,7
 242 619 242 619 242 645 c 256,8,9
 242 671 242 671 259.5 688 c 128,-1,10
 277 705 277 705 303 705 c 0,11,0
 328 705 328 705 345.5 687.5 c 128,-1,1
502 688 m 128,-1,13
 519 671 519 671 519 645 c 256,14,15
 519 619 519 619 501.5 601.5 c 128,-1,16
 484 584 484 584 459 584 c 0,17,18
 433 584 433 584 415.5 601.5 c 128,-1,19
 398 619 398 619 398 645 c 256,20,21
 398 671 398 671 415.5 688 c 128,-1,22
 433 705 433 705 459 705 c 256,23,12
 485 705 485 705 502 688 c 128,-1,13
254 158 m 128,-1,25
 301 111 301 111 380 111 c 256,26,27
 459 111 459 111 504.5 158 c 128,-1,28
 550 205 550 205 550 288 c 2,29,-1
 550 700 l 1,30,-1
 684 700 l 1,31,-1
 684 288 l 2,32,33
 684 197 684 197 647 129.5 c 128,-1,34
 610 62 610 62 541.5 26 c 128,-1,35
 473 -10 473 -10 380 -10 c 0,36,37
 286 -10 286 -10 216.5 26 c 128,-1,38
 147 62 147 62 110 129.5 c 128,-1,39
 73 197 73 197 73 288 c 2,40,-1
 73 700 l 1,41,-1
 207 700 l 1,42,-1
 207 288 l 2,43,24
 207 205 207 205 254 158 c 128,-1,25
EndSplineSet
EndChar

